<?xml version="1.0" encoding="UTF-8"?>
<svg xmlns="http://www.w3.org/2000/svg" viewBox="0 0 96 96">
  <path fill="#334155" fill-rule="evenodd" d="M42.202,20.923L38.024,23.247L34.493,25.642L32.774,26.186L31.421,26.305L31.407,25.529L30.843,25.331L30.083,24.982L29.794,24.411L25.68,21.751L21.567,19.09L16.981,16.138L17.004,15.902L17.004,15.82L16.994,14.375L18.963,13.475L20.18,13.289L21.178,12.962L21.645,12.351L23.07,11.869L23.123,10.966L23.828,10.859L24.38,10.409L25.976,10.203L26.199,9.729L25.878,9.47L25.457,8.183L25.384,7.441L24.924,6.66L26.097,5.994L27.415,5.782L28.185,5.279L29.359,4.908L31.426,4.69L33.443,4.591L34.058,4.772L35.206,4.292L36.509,4.282L37.005,4.566L37.839,4.492L37.591,5.118L37.784,6.28L37.497,7.286L36.745,7.966L36.853,8.885L37.85,9.611L37.861,9.906L38.612,10.398L39.132,12.587L39.527,13.664L39.593,14.23L39.378,15.225L39.467,15.781L39.312,16.448L39.418,17.215L38.934,17.725L39.655,18.613L39.701,19.136L40.134,19.816L40.705,19.592L41.667,20.159L42.202,20.923ZM47.478,56.71L47.779,57.618L48.129,58.35L48.409,58.744L48.876,59.381L49.682,59.283L50.085,59.111L50.759,59.284L50.941,58.979L51.247,58.268L52.004,58.22L52.069,58.009L52.691,58.005L52.585,58.444L54.065,58.433L54.087,59.2L54.334,59.671L54.155,60.406L54.244,61.156L54.651,61.608L54.586,63.059L54.887,62.947L55.417,62.977L56.173,62.795L56.728,62.867L56.857,63.245L56.718,63.837L56.932,64.409L56.751,64.865L56.855,65.286L54.316,65.271L54.259,69.151L55.082,70.148L55.878,70.91L53.637,71.407L50.685,71.234L49.84,70.65L44.897,70.703L44.713,70.788L43.986,70.237L43.195,70.201L42.465,70.408L41.879,70.64L41.764,69.874L41.933,68.801L42.353,67.685L42.417,67.162L42.812,66.062L43.103,65.563L43.804,64.765L44.195,64.222L44.323,63.319L44.259,62.628L43.894,62.192L43.57,61.452L43.27,60.721L43.336,60.467L43.71,59.984L43.34,58.806L43.091,57.99L42.48,57.218L42.596,56.981L43.099,56.817L43.452,56.84L43.88,56.694L47.478,56.71ZM42.735,56.474L42.425,56.603L42.099,55.686L42.591,55.16L42.96,54.955L43.417,55.373L42.973,55.629L42.773,55.943L42.735,56.474ZM30.853,41.911L29.845,42.054L29.544,41.212L29.6,38.412L29.354,38.161L29.308,37.562L28.885,37.135L28.512,36.775L28.667,36.133L29.087,35.995L29.335,35.462L29.931,35.348L30.197,34.984L30.607,34.627L31.044,34.623L31.974,35.325L31.926,35.73L32.2,36.453L31.96,36.944L32.089,37.272L31.497,38.027L31.122,38.401L30.892,39.17L30.922,39.946L30.853,41.911ZM58.846,72.145L59.091,72.363L59.475,73.068L60.855,74.408L61.377,74.539L61.38,74.969L61.738,75.742L62.681,75.929L63.459,76.48L61.733,77.378L60.639,78.289L60.233,79.101L59.866,79.559L59.203,79.657L58.988,80.24L58.865,80.621L58.085,80.904L57.093,80.844L56.51,80.503L55.996,80.355L55.401,80.637L55.103,81.221L54.525,81.588L53.916,82.132L53.042,82.257L52.77,81.828L52.883,81.085L52.16,79.927L51.83,79.744L51.83,76.185L53.032,76.142L53.068,71.799L53.976,71.759L55.856,71.332L56.322,71.834L57.1,71.356L57.47,71.354L58.157,71.079L58.377,71.17L58.846,72.145ZM24.123,37.785L23.288,37.471L22.717,37.517L22.29,37.824L21.742,37.566L21.529,37.163L20.981,36.897L20.9,36.189L21.232,35.673L21.204,35.26L22.172,34.249L22.351,33.413L22.685,33.115L23.275,33.28L23.786,33.031L23.952,32.718L24.898,32.172L25.13,31.79L26.27,31.285L26.941,31.111L27.246,31.345L28.028,31.339L27.931,31.93L28.095,32.486L28.781,33.282L28.819,33.872L30.225,34.149L30.197,34.984L29.931,35.348L29.335,35.462L29.087,35.995L28.667,36.133L27.599,36.107L27.035,36.01L26.642,36.207L26.103,36.118L23.985,36.176L23.956,36.867L24.123,37.785ZM63.346,55.03L63.269,53.559L62.962,53.005L63.703,53.101L64.076,52.407L64.724,52.486L64.795,52.966L65.057,53.243L65.068,53.639L64.768,53.894L64.293,54.53L63.851,54.972L63.346,55.03ZM43.514,46.779L43.363,46.712L42.641,46.869L41.9,46.706L41.32,46.786L39.336,46.758L39.514,45.795L39.038,44.989L38.481,44.782L38.234,44.236L37.921,44.061L37.935,43.724L38.249,42.861L38.829,41.685L39.182,41.674L39.908,40.96L40.37,40.94L41.055,41.441L41.893,41.03L42.007,40.523L42.281,40.032L42.47,39.415L43.122,38.913L43.368,38.059L43.626,37.788L43.798,37.154L44.121,36.376L45.148,35.432L45.212,35.027L45.345,34.807L44.862,34.321L44.902,33.933L45.246,33.863L45.731,34.644L45.812,35.453L45.768,36.263L46.431,37.371L45.75,37.359L45.406,37.446L44.85,37.323L44.586,37.899L45.305,38.61L45.836,38.817L46.008,39.322L46.392,40.163L46.202,40.493L45.588,41.729L45.296,41.95L45.202,42.895L45.323,43.409L45.225,43.772L45.801,44.409L45.905,44.847L46.355,45.476L46.913,45.868L46.967,46.425L47.096,46.778L47.008,47.436L46.039,47.148L45.053,46.826L43.514,46.779ZM46.202,40.493L47.21,40.401L47.434,40.088L47.636,40.112L47.941,40.388L49.476,39.921L49.994,39.445L50.63,39.019L50.509,38.59L50.853,38.478L52.03,38.553L53.178,37.988L54.059,36.658L54.678,36.164L55.45,35.956L55.588,36.478L56.291,37.241L56.295,37.738L56.097,38.246L56.175,38.625L56.598,38.976L57.527,39.509L58.194,40.001L58.206,40.398L59.026,41.033L59.534,41.56L59.842,42.292L60.753,42.774L60.949,43.161L60.547,43.29L59.765,43.262L58.847,43.134L58.394,43.238L58.211,43.535L57.817,43.571L57.336,43.314L55.978,43.922L55.422,43.8L55.255,43.894L54.89,44.63L53.981,44.392L53.089,44.272L52.312,43.822L51.309,43.408L50.656,43.8L50.181,44.42L50.071,45.27L49.287,45.202L48.462,44.997L47.735,45.643L47.096,46.778L46.967,46.425L46.913,45.868L46.355,45.476L45.905,44.847L45.801,44.409L45.225,43.772L45.323,43.409L45.202,42.895L45.296,41.95L45.588,41.729L46.202,40.493ZM45.246,33.863L45.368,33.288L44.586,33.26L44.589,32.476L44.081,32.024L44.607,30.418L46.163,29.268L46.227,27.682L46.697,25.208L46.962,24.683L46.455,24.265L46.435,23.877L45.979,23.56L45.679,21.665L46.91,20.998L51.774,23.333L56.637,25.667L56.697,30.508L55.646,30.423L55.089,31.321L54.766,32.073L55.021,32.358L54.62,32.732L54.758,33.237L54.442,33.746L54.319,34.194L54.747,34.123L55.003,34.593L55.017,35.302L55.465,35.661L55.45,35.956L54.678,36.164L54.059,36.658L53.178,37.988L52.03,38.553L50.853,38.478L50.509,38.59L50.63,39.019L49.994,39.445L49.476,39.921L47.941,40.388L47.636,40.112L47.434,40.088L47.21,40.401L46.202,40.493L46.392,40.163L46.008,39.322L45.836,38.817L45.305,38.61L44.586,37.899L44.85,37.323L45.406,37.446L45.75,37.359L46.431,37.371L45.768,36.263L45.812,35.453L45.731,34.644L45.246,33.863ZM65.168,45.264L65.094,46.69L65.583,46.855L65.191,47.288L64.722,47.612L64.256,48.248L64,48.815L63.931,49.793L63.649,50.259L63.638,51.179L63.288,51.518L63.242,52.244L63.075,52.338L62.962,53.005L63.269,53.559L63.346,55.03L63.566,56.152L63.444,56.786L63.688,57.493L64.395,58.176L65.053,59.712L64.573,59.588L62.935,59.794L62.608,59.94L62.261,60.718L62.534,61.256L62.317,62.7L62.166,63.924L62.496,64.141L63.348,64.615L63.683,64.393L63.785,65.708L62.852,65.698L62.351,65.027L61.902,64.508L60.967,64.337L60.694,63.698L59.948,64.083L58.972,63.913L58.564,63.359L57.79,63.247L57.218,63.276L57.149,62.897L56.728,62.867L56.173,62.795L55.417,62.977L54.887,62.947L54.586,63.059L54.651,61.608L54.244,61.156L54.155,60.406L54.334,59.671L54.087,59.2L54.065,58.433L52.585,58.444L52.691,58.005L52.069,58.009L52.004,58.22L51.247,58.268L50.941,58.979L50.759,59.284L50.085,59.111L49.682,59.283L48.876,59.381L48.409,58.744L48.129,58.35L47.779,57.618L47.478,56.71L43.88,56.694L43.452,56.84L43.099,56.817L42.596,56.981L42.425,56.603L42.735,56.474L42.773,55.943L42.973,55.629L43.417,55.373L43.737,55.497L44.154,55.03L44.818,55.042L44.896,55.387L45.352,55.603L46.069,54.839L46.78,54.244L47.088,53.854L47.047,52.85L47.576,51.666L48.135,51.038L48.938,50.45L49.078,50.061L49.109,49.614L49.307,49.191L49.243,48.5L49.395,47.419L49.634,46.658L49.999,46.006L50.071,45.27L50.181,44.42L50.656,43.8L51.309,43.408L52.312,43.822L53.089,44.272L53.981,44.392L54.89,44.63L55.255,43.894L55.422,43.8L55.978,43.922L57.336,43.314L57.817,43.571L58.211,43.535L58.394,43.238L58.847,43.134L59.765,43.262L60.547,43.29L60.949,43.161L61.688,44.168L62.235,44.315L62.562,44.111L63.126,44.191L63.805,43.933L64.094,44.454L65.168,45.264ZM80.102,34.058L80.39,34.435L80.352,34.941L79.656,35.233L80.18,35.567L79.731,36.219L79.46,36.002L79.166,36.088L78.485,36.068L78.466,35.697L78.371,35.36L78.783,34.789L79.212,34.25L79.734,34.355L80.102,34.058ZM70.154,13.57L69.811,14.06L69.549,14.982L69.217,15.616L68.933,15.829L68.526,15.436L67.976,14.892L67.106,13.144L66.981,13.254L67.486,14.541L68.234,15.767L69.156,17.666L69.606,18.329L69.998,19.018L71.092,20.368L70.85,20.58L70.889,21.373L72.309,22.467L72.523,22.717L67.687,22.717L62.956,22.717L58.054,22.717L58.054,18.227L58.054,13.891L57.689,12.908L58.003,12.156L57.814,11.634L58.255,11.049L59.878,11.029L61.051,11.351L62.262,11.711L62.826,11.901L63.765,11.515L64.267,11.166L65.342,11.065L66.209,11.219L66.542,11.824L66.825,11.425L67.802,11.714L68.752,11.783L69.352,11.475L70.154,13.57ZM39.146,48.311L38.917,48.127L39.336,46.758L41.32,46.786L41.331,48.253L39.557,48.241L39.146,48.311ZM79.212,34.25L78.795,33.855L78.294,33.14L77.753,32.748L77.438,32.327L76.377,31.838L75.541,31.824L75.247,31.569L74.531,31.856L73.791,31.302L73.411,32.212L71.991,31.957L71.861,31.469L72.386,29.677L72.507,28.867L72.891,28.493L73.789,28.293L74.406,27.597L75.114,29.008L75.45,30.128L76.118,30.721L77.783,31.873L78.46,32.568L79.121,33.272L79.502,33.691L80.102,34.058L79.734,34.355L79.212,34.25ZM73.791,31.302L74.531,31.856L75.247,31.569L75.541,31.824L76.377,31.838L77.438,32.327L77.753,32.748L78.294,33.14L78.795,33.855L79.212,34.25L78.783,34.789L78.371,35.36L78.466,35.697L78.485,36.068L79.166,36.088L79.46,36.002L79.731,36.219L79.465,36.651L79.915,37.323L80.365,37.91L80.83,38.345L84.817,39.792L85.843,39.784L82.397,43.444L80.809,43.498L79.722,44.358L78.94,44.38L78.607,44.764L77.774,44.764L77.282,44.352L76.168,44.862L75.807,45.37L74.994,45.274L74.724,45.134L74.439,45.167L74.053,45.155L72.51,44.119L71.661,44.119L71.245,43.718L71.245,43.034L70.611,42.829L69.891,41.502L69.334,41.22L69.12,40.732L68.502,40.138L67.753,40.05L68.169,39.356L68.816,39.326L68.998,38.953L68.982,37.857L69.342,36.581L69.92,36.24L70.043,35.741L70.566,34.81L71.301,34.206L71.797,33.004L71.991,31.957L73.411,32.212L73.791,31.302ZM41.098,54.395L39.845,53.164L39.039,52.158L38.298,50.898L38.337,50.493L38.604,50.103L38.9,49.215L39.146,48.311L39.557,48.241L41.331,48.253L41.32,46.786L41.9,46.706L42.641,46.869L43.363,46.712L43.514,46.779L43.426,47.31L43.767,47.941L44.674,47.841L44.978,48.084L44.45,49.496L45.027,50.217L45.16,51.169L45.006,51.98L44.632,52.556L43.556,52.504L42.904,51.919L42.807,52.459L41.984,52.609L41.566,52.915L42.026,53.722L41.098,54.395ZM7.035,33.507L7.19,32.966L8.518,32.931L8.794,32.642L9.18,32.623L9.662,32.923L10.04,32.928L10.442,32.723L10.688,33.076L10.161,33.349L9.631,33.328L9.108,33.07L8.656,33.352L8.437,33.362L8.144,33.532L7.035,33.507ZM28.863,42.314L26.951,43.027L26.273,43.446L25.175,43.799L24.088,43.453L24.143,42.972L23.614,41.921L23.932,40.544L24.446,39.52L24.123,37.785L23.956,36.867L23.985,36.176L26.103,36.118L26.642,36.207L27.035,36.01L27.599,36.107L27.51,36.487L28.019,37.116L28.017,38.002L28.133,38.962L28.439,39.407L28.169,40.505L28.266,41.112L28.591,41.885L28.863,42.314ZM17.28,40.171L16.935,40.14L16.686,40.631L16.342,40.625L16.104,40.365L16.185,39.875L15.675,39.128L15.357,39.266L15.096,39.293L14.76,39.363L14.774,38.916L14.578,38.597L14.618,38.242L14.354,37.73L14.014,37.293L13.039,37.292L12.755,37.522L12.419,37.55L12.21,37.813L12.07,38.151L11.418,38.687L10.883,37.966L10.409,37.488L10.097,37.33L9.793,37.088L9.654,36.549L9.476,36.281L9.121,36.081L9.663,35.486L10.033,35.509L10.351,35.304L10.62,35.302L10.813,35.141L10.709,34.737L10.842,34.609L10.865,34.196L11.453,34.209L12.33,34.506L12.598,34.479L12.69,34.343L13.355,34.439L13.531,34.371L13.601,34.817L13.795,34.816L14.113,34.653L14.315,34.694L14.653,35.003L15.175,35.101L15.51,34.837L15.904,34.674L16.197,34.503L16.441,34.535L16.712,34.803L16.857,35.139L17.357,35.65L17.107,35.964L17.059,36.361L17.319,36.241L17.471,36.383L17.407,36.746L17.779,37.098L17.536,37.192L17.438,37.606L17.719,38.11L18.02,39.086L17.567,39.233L17.451,39.402L17.545,39.638L17.473,40.17L17.28,40.171ZM9.121,36.081L8.47,35.571L7.957,35.49L7.677,35.147L7.684,34.961L7.312,34.702L7.235,34.441L7.881,34.243L8.284,34.282L8.611,34.145L10.865,34.196L10.842,34.609L10.709,34.737L10.813,35.141L10.62,35.302L10.351,35.304L10.033,35.509L9.663,35.486L9.121,36.081ZM24.088,43.453L23.533,43.465L22.682,43.227L21.9,43.241L20.456,43.454L19.609,43.806L18.402,44.253L18.167,44.221L18.26,43.217L18.377,43.064L18.34,42.584L17.823,42.073L17.436,41.991L17.08,41.657L17.346,41.115L17.224,40.526L17.28,40.171L17.473,40.17L17.545,39.638L17.451,39.402L17.567,39.233L18.02,39.086L17.719,38.11L17.438,37.606L17.536,37.192L17.779,37.098L17.938,36.987L18.276,37.17L19.217,37.18L19.442,36.824L19.652,36.848L20.004,36.71L20.193,37.232L20.477,37.078L20.981,36.897L21.529,37.163L21.742,37.566L22.29,37.824L22.717,37.517L23.288,37.471L24.123,37.785L24.446,39.52L23.932,40.544L23.614,41.921L24.143,42.972L24.088,43.453ZM77.556,50.59L78.278,51.595L77.424,52.082L77.122,52.591L76.665,52.681L76.492,53.54L76.101,54.032L75.863,54.843L75.372,55.246L73.622,54.027L73.539,53.319L69.117,50.835L68.911,50.701L68.899,49.409L69.248,48.915L69.848,48.108L70.292,47.219L69.755,45.819L69.613,45.207L69.035,44.361L69.785,43.633L70.611,42.829L71.245,43.034L71.245,43.718L71.661,44.119L72.51,44.119L74.053,45.155L74.439,45.167L74.724,45.134L74.994,45.274L75.807,45.37L76.168,44.862L77.282,44.352L77.774,44.764L78.607,44.764L77.541,46.148L77.556,50.59ZM62.905,84.85L63.328,85.218L62.954,85.811L62.747,86.209L62.067,86.4L61.843,86.789L61.407,86.91L60.492,85.972L61.142,85.2L61.803,84.723L62.373,84.475L62.905,84.85ZM18.167,44.221L17.847,44.232L16.59,43.651L15.482,42.722L14.444,42.055L13.622,41.269L13.914,40.878L13.979,40.524L14.529,39.862L15.096,39.293L15.357,39.266L15.675,39.128L16.185,39.875L16.104,40.365L16.342,40.625L16.686,40.631L16.935,40.14L17.28,40.171L17.224,40.526L17.346,41.115L17.08,41.657L17.436,41.991L17.823,42.073L18.34,42.584L18.377,43.064L18.26,43.217L18.167,44.221ZM45.679,21.665L44.817,22.118L44.131,21.448L42.202,20.923L41.667,20.159L40.705,19.592L40.134,19.816L39.701,19.136L39.655,18.613L38.934,17.725L39.418,17.215L39.312,16.448L39.467,15.781L39.378,15.225L39.593,14.23L39.527,13.664L39.132,12.587L39.727,12.305L39.833,11.789L39.703,11.284L40.541,10.814L40.916,10.424L41.51,10.074L41.579,9.137L43.011,9.557L43.524,9.452L44.542,9.655L46.16,10.2L46.731,11.284L47.826,11.521L49.545,12.031L50.844,12.637L51.438,12.321L52.023,11.76L51.738,10.826L52.121,10.233L52.999,9.662L53.839,9.495L55.488,9.745L55.904,10.29L56.358,10.295L56.747,10.503L57.958,10.646L58.255,11.049L57.814,11.634L58.003,12.156L57.689,12.908L58.054,13.891L58.054,18.227L58.054,22.717L58.054,25.152L56.652,25.156L56.637,25.667L51.774,23.333L46.91,20.998L45.679,21.665ZM87.982,64.748L88.305,65.267L88.607,66.072L88.803,67.539L89.119,68.11L88.998,68.694L88.782,69.053L88.368,68.338L88.139,68.699L88.372,69.603L88.263,70.12L87.927,70.401L87.85,71.434L87.37,72.856L86.768,74.536L86.015,76.846L85.548,78.542L84.997,79.956L84.005,80.245L82.941,80.76L82.239,80.449L81.271,80.013L80.934,79.369L80.854,78.288L80.424,77.316L80.313,76.439L80.531,75.56L81.092,75.349L81.096,74.943L81.679,74.018L81.788,73.242L81.506,72.664L81.275,71.896L81.177,70.772L81.603,70.09L81.767,69.316L82.374,69.271L83.054,69.021L83.506,68.801L84.042,68.784L84.737,68.09L85.74,67.339L86.106,66.725L85.94,66.204L86.458,66.351L87.13,65.503L87.152,64.77L87.556,64.225L87.982,64.748ZM69.711,63.59L69.37,64.517L69.711,66.102L70.135,66.084L70.575,66.477L71.085,67.359L71.189,68.927L70.661,69.184L70.289,70.03L69.493,69.277L69.403,68.417L69.66,67.85L69.589,67.361L69.108,67.053L68.772,67.165L68.07,66.58L67.429,66.264L67.799,65.131L68.183,64.707L67.949,63.696L68.194,62.708L68.401,62.377L68.091,61.342L67.516,60.798L68.711,61.026L68.956,61.363L69.37,61.932L69.711,63.59ZM12.73,31.72L13.14,31.498L13.345,30.779L13.732,30.751L14.583,31.091L15.271,30.85L15.742,30.931L15.925,30.659L20.818,30.641L21.089,29.787L20.878,29.637L20.289,24.374L19.701,19.112L21.567,19.09L25.68,21.751L29.794,24.411L30.083,24.982L30.843,25.331L31.407,25.529L31.421,26.305L32.774,26.186L32.777,28.994L32.111,29.809L32.007,30.56L30.924,30.753L29.26,30.858L28.809,31.291L28.028,31.339L27.246,31.345L26.941,31.111L26.27,31.285L25.13,31.79L24.898,32.172L23.952,32.718L23.786,33.031L23.275,33.28L22.685,33.115L22.351,33.413L22.172,34.249L21.204,35.26L21.232,35.673L20.9,36.189L20.981,36.897L20.477,37.078L20.193,37.232L20.004,36.71L19.652,36.848L19.442,36.824L19.217,37.18L18.276,37.17L17.938,36.987L17.779,37.098L17.407,36.746L17.471,36.383L17.319,36.241L17.059,36.361L17.107,35.964L17.357,35.65L16.857,35.139L16.712,34.803L16.441,34.535L16.197,34.503L15.904,34.674L15.51,34.837L15.175,35.101L14.653,35.003L14.315,34.694L14.113,34.653L13.795,34.816L13.601,34.817L13.531,34.371L13.587,33.991L13.483,33.519L13.026,33.177L12.786,32.478L12.73,31.72ZM12.73,31.72L11.925,30.882L11.187,29.985L10.378,29.662L9.795,29.304L9.115,29.317L8.52,29.583L7.913,29.478L7.496,29.869L7.39,29.212L7.731,28.61L7.882,27.462L7.747,26.257L7.6,25.651L7.722,25.043L7.407,24.463L6.764,23.937L7.03,23.53L11.805,23.538L11.574,21.777L11.872,21.15L13.015,21.041L12.975,17.921L16.977,17.985L16.981,16.138L21.567,19.09L19.701,19.112L20.289,24.374L20.878,29.637L21.089,29.787L20.818,30.641L15.925,30.659L15.742,30.931L15.271,30.85L14.583,31.091L13.732,30.751L13.345,30.779L13.14,31.498L12.73,31.72ZM21.237,5.945L21.972,6.462L23.132,6.378L24.395,6.647L24.924,6.66L25.384,7.441L25.457,8.183L25.878,9.47L26.199,9.729L25.976,10.203L24.38,10.409L23.828,10.859L23.123,10.966L23.07,11.869L21.645,12.351L21.178,12.962L20.18,13.289L18.963,13.475L16.994,14.375L17.004,15.82L16.818,15.82L16.818,15.82L16.846,16.473L16.093,16.512L15.7,16.79L15.146,16.79L14.705,16.632L13.679,16.762L13.282,17.713L12.901,17.802L12.327,19.339L10.632,20.655L10.23,22.339L9.73,22.887L9.584,23.326L6.838,23.423L6.816,23.422L6.874,22.856L7.342,22.524L7.741,21.889L7.663,21.476L8.082,20.616L8.761,19.841L9.171,19.644L9.494,18.933L9.523,18.283L9.963,17.529L10.775,17.085L11.548,15.84L11.57,15.823L12.184,15.354L13.317,15.22L14.278,14.386L14.89,14.061L15.907,13.043L15.603,11.526L16.066,10.477L16.23,9.835L17.014,9.011L18.237,8.454L19.142,7.95L19.956,6.688L20.34,5.939L21.237,5.945ZM69.711,63.59L70.629,63.491L72.094,63.835L72.412,63.681L73.261,63.649L73.696,63.284L74.427,63.304L75.761,62.83L76.731,62.123L76.928,62.67L76.878,63.885L77.029,64.955L77.076,66.86L77.29,67.458L76.927,68.329L76.454,69.176L75.677,69.932L74.562,70.395L73.188,70.987L71.81,72.296L71.341,72.518L70.49,73.385L69.987,73.667L69.884,74.536L70.463,75.46L70.703,76.175L70.718,76.54L70.934,76.479L70.899,77.675L70.701,78.241L70.989,78.45L70.807,78.957L70.298,79.391L69.292,79.803L67.825,80.463L67.291,80.914L67.395,81.427L67.707,81.51L67.602,82.151L66.677,82.141L66.572,81.602L66.392,81.055L66.288,80.617L66.505,79.258L66.188,78.392L65.604,76.676L66.889,75.292L67.21,74.412L67.394,74.301L67.532,73.583L67.336,73.222L67.388,72.311L67.626,71.466L67.623,69.923L66.99,69.531L66.409,69.442L66.147,69.14L65.581,68.883L64.564,68.907L64.486,68.453L64.37,67.585L68.07,66.58L68.772,67.165L69.108,67.053L69.589,67.361L69.66,67.85L69.403,68.417L69.493,69.277L70.289,70.03L70.661,69.184L71.189,68.927L71.085,67.359L70.575,66.477L70.135,66.084L69.711,66.102L69.37,64.517L69.711,63.59ZM47.501,84.388L46.595,83.467L46.117,82.577L45.848,81.389L45.548,80.506L45.139,78.628L45.112,77.17L44.956,76.504L44.481,76.002L43.852,74.994L43.211,73.532L42.945,72.766L41.953,71.576L41.879,70.64L42.465,70.408L43.195,70.201L43.986,70.237L44.713,70.788L44.897,70.703L49.84,70.65L50.685,71.234L53.637,71.407L55.878,70.91L56.876,70.633L57.667,70.703L58.148,70.978L58.157,71.079L57.47,71.354L57.1,71.356L56.322,71.834L55.856,71.332L53.976,71.759L53.068,71.799L53.032,76.142L51.83,76.185L51.83,79.744L51.829,84.247L50.741,84.871L50.086,84.96L49.319,84.729L48.772,84.64L48.566,84.119L48.085,83.785L47.501,84.388ZM30.197,34.984L30.225,34.149L28.819,33.872L28.781,33.282L28.095,32.486L27.931,31.93L28.028,31.339L28.809,31.291L29.26,30.858L30.924,30.753L32.007,30.56L32.111,29.809L32.777,28.994L32.774,26.186L34.493,25.642L38.024,23.247L42.202,20.923L44.131,21.448L44.817,22.118L45.679,21.665L45.979,23.56L46.435,23.877L46.455,24.265L46.962,24.683L46.697,25.208L46.227,27.682L46.163,29.268L44.607,30.418L44.081,32.024L44.589,32.476L44.586,33.26L45.368,33.288L45.246,33.863L44.902,33.933L44.862,34.321L44.636,34.348L43.811,33.013L43.524,32.964L42.571,33.646L41.627,33.29L40.971,33.219L40.619,33.39L39.904,33.353L39.185,33.873L38.563,33.903L37.087,33.272L36.509,33.572L35.887,33.551L35.43,33.09L34.207,32.635L32.897,32.78L32.579,33.044L32.408,33.745L32.058,34.237L31.974,35.325L31.044,34.623L30.607,34.627L30.197,34.984ZM37.935,43.724L36.669,44.163L36.207,44.099L35.738,44.372L34.762,44.346L34.11,43.583L33.708,42.7L32.845,41.897L31.929,41.912L30.853,41.911L30.922,39.946L30.892,39.17L31.122,38.401L31.497,38.027L32.089,37.272L31.96,36.944L32.2,36.453L31.926,35.73L31.974,35.325L32.058,34.237L32.408,33.745L32.579,33.044L32.897,32.78L34.207,32.635L35.43,33.09L35.887,33.551L36.509,33.572L37.087,33.272L38.563,33.903L39.185,33.873L39.904,33.353L40.619,33.39L40.971,33.219L41.627,33.29L42.571,33.646L43.524,32.964L43.811,33.013L44.636,34.348L44.862,34.321L45.345,34.807L45.212,35.027L45.148,35.432L44.121,36.376L43.798,37.154L43.626,37.788L43.368,38.059L43.122,38.913L42.47,39.415L42.281,40.032L42.007,40.523L41.893,41.03L41.055,41.441L40.37,40.94L39.908,40.96L39.182,41.674L38.829,41.685L38.249,42.861L37.935,43.724ZM43.417,55.373L42.96,54.955L42.591,55.16L42.099,55.686L41.098,54.395L42.026,53.722L41.566,52.915L41.984,52.609L42.807,52.459L42.904,51.919L43.556,52.504L44.632,52.556L45.006,51.98L45.16,51.169L45.027,50.217L44.45,49.496L44.978,48.084L44.674,47.841L43.767,47.941L43.426,47.31L43.514,46.779L45.053,46.826L46.039,47.148L47.008,47.436L47.096,46.778L47.735,45.643L48.462,44.997L49.287,45.202L50.071,45.27L49.999,46.006L49.634,46.658L49.395,47.419L49.243,48.5L49.307,49.191L49.109,49.614L49.078,50.061L48.938,50.45L48.135,51.038L47.576,51.666L47.047,52.85L47.088,53.854L46.78,54.244L46.069,54.839L45.352,55.603L44.896,55.387L44.818,55.042L44.154,55.03L43.737,55.497L43.417,55.373ZM64.662,50.927L65.146,51.615L65.076,52.332L64.724,52.486L64.076,52.407L63.703,53.101L62.962,53.005L63.075,52.338L63.242,52.244L63.288,51.518L63.638,51.179L63.933,51.303L64.662,50.927ZM7.19,32.966L6.688,32.017L6.079,31.582L6.616,31.351L7.206,30.495L7.496,29.869L7.913,29.478L8.52,29.583L9.115,29.317L9.795,29.304L10.378,29.662L11.187,29.985L11.925,30.882L12.73,31.72L12.786,32.478L13.026,33.177L13.483,33.519L13.587,33.991L13.531,34.371L13.355,34.439L12.69,34.343L12.598,34.479L12.33,34.506L11.453,34.209L10.865,34.196L8.611,34.145L8.284,34.282L7.881,34.243L7.235,34.441L7.035,33.507L8.144,33.532L8.437,33.362L8.656,33.352L9.108,33.07L9.631,33.328L10.161,33.349L10.688,33.076L10.442,32.723L10.04,32.928L9.662,32.923L9.18,32.623L8.794,32.642L8.518,32.931L7.19,32.966ZM13.622,41.269L13.294,41.178L12.416,40.687L11.781,40.034L11.568,39.588L11.418,38.687L12.07,38.151L12.21,37.813L12.419,37.55L12.755,37.522L13.039,37.292L14.014,37.293L14.354,37.73L14.618,38.242L14.578,38.597L14.774,38.916L14.76,39.363L15.096,39.293L14.529,39.862L13.979,40.524L13.914,40.878L13.622,41.269ZM88.207,35.424L88.854,35.301L89.431,34.884L89.893,34.881L89.921,35.218L89.808,35.927L89.813,36.568L89.555,37.008L89.212,38.326L88.625,39.688L87.871,41.246L86.825,43.033L85.783,44.398L84.349,46.061L83.129,47.048L81.305,48.259L80.169,49.187L78.834,50.664L78.553,51.307L78.278,51.595L77.556,50.59L77.541,46.148L78.607,44.764L78.94,44.38L79.722,44.358L80.809,43.498L82.397,43.444L85.843,39.784L86.693,38.767L87.243,38.018L87.244,37.382L87.244,36.152L87.248,35.649L87.256,35.629L87.645,35.605L88.207,35.424ZM87.243,38.018L86.693,38.767L85.843,39.784L84.817,39.792L80.83,38.345L80.365,37.91L79.915,37.323L79.465,36.651L79.731,36.219L80.18,35.567L80.577,35.791L80.816,36.296L81.366,36.806L81.971,36.81L83.121,36.498L84.448,36.354L85.521,35.975L86.126,35.895L86.561,35.672L87.256,35.629L87.248,35.649L87.244,36.152L87.244,37.382L87.243,38.018ZM66.006,85.218L65.767,85.395L65.251,86.014L64.911,86.64L64.219,87.514L62.841,88.772L61.98,89.504L61.06,90.059L59.785,90.532L59.164,90.595L59.006,90.934L58.265,90.753L57.662,90.986L56.34,90.751L55.601,90.899L55.096,90.835L53.839,91.317L52.798,91.51L52.044,91.971L51.49,92L50.974,91.565L50.562,91.543L50.037,90.999L49.979,91.168L49.817,90.84L49.824,90.125L49.428,89.308L49.821,89.086L49.789,88.15L48.991,87.009L48.378,85.976L48.376,85.972L47.501,84.388L48.085,83.785L48.566,84.119L48.772,84.64L49.319,84.729L50.086,84.96L50.741,84.871L51.829,84.247L51.83,79.744L52.16,79.927L52.883,81.085L52.77,81.828L53.042,82.257L53.916,82.132L54.525,81.588L55.103,81.221L55.401,80.637L55.996,80.355L56.51,80.503L57.093,80.844L58.085,80.904L58.865,80.621L58.988,80.24L59.203,79.657L59.866,79.559L60.233,79.101L60.639,78.289L61.733,77.378L63.459,76.48L63.955,76.493L64.545,76.7L64.956,76.554L65.604,76.676L66.188,78.392L66.505,79.258L66.288,80.617L66.392,81.055L65.777,80.832L65.424,80.919L65.309,81.274L64.976,81.732L64.988,82.153L65.715,82.814L66.429,82.683L66.677,82.141L67.602,82.151L67.297,83.039L67.153,84.052L66.838,84.602L66.006,85.218ZM62.905,84.85L62.373,84.475L61.803,84.723L61.142,85.2L60.492,85.972L61.407,86.91L61.843,86.789L62.067,86.4L62.747,86.209L62.954,85.811L63.328,85.218L62.905,84.85ZM68.984,38.003L68.998,38.953L68.816,39.326L68.169,39.356L67.753,40.05L68.502,40.138L69.12,40.732L69.334,41.22L69.891,41.502L70.611,42.829L69.785,43.633L69.035,44.361L68.285,44.922L67.427,44.919L66.445,45.204L65.67,44.932L65.168,45.264L64.094,44.454L63.805,43.933L63.126,44.191L62.562,44.111L62.235,44.315L61.688,44.168L60.949,43.161L60.753,42.774L59.842,42.292L59.534,41.56L59.026,41.033L58.206,40.398L58.194,40.001L57.527,39.509L56.697,39.032L57.072,38.9L57.49,38.669L57.804,37.581L58.139,37.016L59.018,36.848L59.228,37.183L59.856,37.895L60.191,37.999L60.63,37.79L61.509,37.832L61.677,38.083L62.891,38.083L62.933,37.832L63.561,37.602L63.686,37.246L64.147,36.995L65.173,37.706L65.801,37.581L66.408,36.702L67.078,36.032L66.973,35.299L66.68,34.943L67.413,34.88L67.496,34.608L68.062,34.692L67.915,35.592L68.062,36.471L68.69,36.953L68.836,37.371L68.815,37.979L68.984,38.003ZM68.984,38.003L68.815,37.979L68.836,37.371L68.69,36.953L68.062,36.471L67.915,35.592L68.062,34.692L67.496,34.608L67.413,34.88L66.68,34.943L66.973,35.299L67.078,36.032L66.408,36.702L65.801,37.581L65.173,37.706L64.147,36.995L63.686,37.246L63.561,37.602L62.933,37.832L62.891,38.083L61.677,38.083L61.509,37.832L60.63,37.79L60.191,37.999L59.856,37.895L59.228,37.183L59.018,36.848L58.139,37.016L57.804,37.581L57.49,38.669L57.072,38.9L56.697,39.032L56.598,38.976L56.175,38.625L56.097,38.246L56.295,37.738L56.291,37.241L55.588,36.478L55.45,35.956L55.465,35.661L55.017,35.302L55.003,34.593L54.747,34.123L54.319,34.194L54.442,33.746L54.758,33.237L54.62,32.732L55.021,32.358L54.766,32.073L55.089,31.321L55.646,30.423L56.697,30.508L56.637,25.667L56.652,25.156L58.054,25.152L58.054,22.717L62.956,22.717L67.687,22.717L72.523,22.717L72.917,23.914L72.649,24.135L72.826,25.39L73.274,26.846L73.739,27.146L74.406,27.597L73.789,28.293L72.891,28.493L72.507,28.867L72.387,29.677L71.861,31.469L71.991,31.957L71.797,33.004L71.301,34.206L70.566,34.81L70.043,35.741L69.92,36.24L69.342,36.581L68.982,37.857L68.984,38.003ZM66.677,82.141L66.429,82.683L65.715,82.814L64.988,82.153L64.976,81.732L65.309,81.274L65.424,80.919L65.777,80.832L66.392,81.055L66.572,81.602L66.677,82.141ZM29.845,42.054L28.863,42.314L28.591,41.885L28.266,41.112L28.169,40.505L28.439,39.407L28.133,38.962L28.017,38.002L28.019,37.116L27.51,36.487L27.599,36.107L28.667,36.133L28.512,36.775L28.885,37.135L29.308,37.562L29.354,38.161L29.6,38.412L29.544,41.212L29.845,42.054ZM39.132,12.587L38.612,10.398L37.861,9.906L37.85,9.611L36.853,8.885L36.745,7.966L37.497,7.286L37.784,6.28L37.591,5.118L37.839,4.492L39.166,4L40.02,4.146L39.984,4.763L41.019,4.314L41.105,4.549L40.496,5.146L40.487,5.71L40.91,6.013L40.749,7.068L39.946,7.682L40.178,8.346L40.809,8.367L41.116,8.947L41.579,9.137L41.51,10.074L40.916,10.424L40.541,10.814L39.703,11.284L39.833,11.789L39.727,12.305L39.132,12.587ZM66.427,50.796L65.09,50.78L64.662,50.927L63.933,51.303L63.638,51.179L63.649,50.259L63.931,49.793L64,48.815L64.256,48.248L64.722,47.612L65.191,47.288L65.583,46.855L65.094,46.69L65.168,45.264L65.67,44.932L66.445,45.204L67.427,44.919L68.285,44.922L69.035,44.361L69.613,45.207L69.755,45.819L70.292,47.219L69.848,48.108L69.248,48.915L68.899,49.409L68.911,50.701L66.427,50.796ZM68.911,50.701L69.117,50.835L73.539,53.319L73.622,54.027L75.372,55.246L74.809,56.748L74.881,57.439L75.662,57.883L75.698,58.2L75.363,58.937L75.433,59.307L75.353,59.89L75.779,60.654L76.283,61.857L76.731,62.123L75.761,62.83L74.427,63.304L73.696,63.284L73.261,63.649L72.412,63.681L72.094,63.835L70.629,63.491L69.711,63.59L69.37,61.932L68.956,61.363L68.711,61.026L67.516,60.798L66.824,60.432L66.049,60.227L65.563,60.023L65.053,59.712L64.395,58.176L63.688,57.493L63.444,56.786L63.566,56.152L63.346,55.03L63.851,54.972L64.293,54.53L64.768,53.894L65.068,53.639L65.057,53.243L64.795,52.966L64.724,52.486L65.076,52.332L65.146,51.615L64.662,50.927L65.09,50.78L66.427,50.796L68.911,50.701ZM16.846,16.473L16.818,15.82L17.004,15.82L17.004,15.902L16.981,16.138L16.977,17.985L12.975,17.921L13.015,21.041L11.872,21.15L11.574,21.777L11.805,23.538L7.03,23.53L6.764,23.937L6.816,23.422L6.838,23.423L9.584,23.326L9.73,22.887L10.23,22.339L10.632,20.655L12.327,19.339L12.901,17.802L13.282,17.713L13.679,16.762L14.705,16.632L15.146,16.79L15.7,16.79L16.093,16.512L16.846,16.473ZM67.516,60.798L68.091,61.342L68.401,62.377L68.194,62.708L67.949,63.696L68.183,64.707L67.799,65.131L67.429,66.264L68.07,66.58L64.37,67.585L64.486,68.453L63.562,68.619L62.868,69.105L62.719,69.528L62.283,69.624L61.223,70.627L60.547,71.416L60.135,71.444L59.739,71.304L58.377,71.17L58.157,71.079L58.148,70.978L57.667,70.703L56.876,70.633L55.878,70.91L55.082,70.148L54.259,69.151L54.316,65.271L56.855,65.286L56.751,64.865L56.932,64.409L56.718,63.837L56.857,63.245L56.728,62.867L57.149,62.897L57.218,63.276L57.79,63.247L58.564,63.359L58.972,63.913L59.948,64.083L60.694,63.698L60.967,64.337L61.902,64.508L62.351,65.027L62.852,65.698L63.785,65.708L63.683,64.393L63.348,64.615L62.496,64.141L62.166,63.924L62.317,62.7L62.534,61.256L62.261,60.718L62.608,59.94L62.935,59.794L64.573,59.588L65.053,59.712L65.563,60.023L66.049,60.227L66.824,60.432L67.516,60.798ZM65.604,76.676L64.956,76.554L64.545,76.7L63.955,76.493L63.459,76.48L62.681,75.929L61.738,75.742L61.38,74.969L61.377,74.539L60.855,74.408L59.475,73.068L59.091,72.363L58.846,72.145L58.377,71.17L59.739,71.304L60.135,71.444L60.547,71.416L61.223,70.627L62.283,69.624L62.719,69.528L62.868,69.105L63.562,68.619L64.486,68.453L64.564,68.907L65.581,68.883L66.147,69.14L66.409,69.442L66.99,69.531L67.623,69.923L67.626,71.466L67.388,72.311L67.336,73.222L67.532,73.583L67.394,74.301L67.21,74.412L66.889,75.292L65.604,76.676Z"/>
</svg>
