<?xml version="1.0" encoding="UTF-8"?>
<svg xmlns="http://www.w3.org/2000/svg" viewBox="0 0 96 96">
  <path fill="#334155" fill-rule="evenodd" d="M81.16,26.171L82.484,26.546L83.384,27.372L83.692,28.445L84.847,28.446L85.507,27.998L86.763,27.661L86.364,28.684L86.068,29.095L85.808,30.309L85.296,31.367L84.374,31.175L83.721,31.556L83.921,32.47L83.812,33.709L83.423,33.737L83.428,34.262L82.937,33.651L82.635,34.231L81.461,34.673L81.579,35.21L80.922,35.173L80.561,34.854L80.039,35.574L79.201,36.114L78.582,36.753L77.519,37.041L76.959,37.501L76.14,37.768L76.544,37.314L76.385,36.93L76.987,36.262L76.586,35.736L75.923,36.091L75.065,36.783L74.596,37.42L73.85,37.467L73.463,37.924L73.863,38.58L74.486,38.738L74.511,39.169L75.113,39.448L75.965,38.764L76.64,39.138L77.131,39.163L77.254,39.663L76.178,39.929L75.823,40.438L75.084,40.909L74.693,41.561L75.512,42.069L75.81,42.969L76.273,43.799L76.789,44.489L76.777,45.15L76.3,45.391L76.482,45.862L76.929,46.134L76.812,46.845L76.619,47.532L76.194,47.609L75.639,48.538L75.023,49.652L74.317,50.654L73.272,51.423L72.214,52.119L71.357,52.213L70.893,52.579L70.63,52.312L70.2,52.72L69.137,53.131L68.333,53.256L68.073,54.115L67.652,54.163L67.452,53.573L67.632,53.258L66.612,52.996L66.253,53.129L65.488,52.917L65.126,52.584L65.246,52.109L64.551,51.959L64.184,51.648L63.536,52.089L62.797,52.184L62.191,52.18L61.783,52.381L61.389,52.501L61.503,53.438L61.098,53.415L61.03,53.224L61.007,52.886L60.449,53.124L60.12,52.973L59.555,52.666L59.777,51.982L59.295,51.822L59.114,51.058L58.311,51.196L58.403,50.205L59.123,49.501L59.153,48.802L59.131,48.148L58.799,47.943L58.545,47.436L58.1,47.5L57.28,47.371L57.537,47.008L57.181,46.466L56.639,46.833L56.001,46.619L55.125,47.173L54.433,47.815L53.819,47.922L53.487,47.691L53.085,47.67L52.542,47.47L52.131,47.689L51.628,48.327L51.564,47.651L51.1,47.832L50.214,47.748L49.354,47.55L48.737,47.171L48.146,47L47.891,46.582L47.464,46.457L46.696,45.886L46.087,45.615L45.771,45.826L44.715,45.209L43.968,44.646L43.754,43.657L44.3,43.778L44.325,43.317L44.023,42.851L44.099,42.104L43.282,41.017L42.032,40.639L41.807,39.914L41.245,39.471L41.11,39.196L40.996,38.649L41.022,38.273L40.56,38.051L40.311,38.149L40.118,37.244L40.334,37.019L40.23,36.787L40.955,36.318L41.481,36.122L42.285,36.256L42.573,35.615L43.548,35.495L43.819,35.093L45.017,34.54L45.124,34.308L45.063,33.719L45.585,33.448L44.901,31.61L46.407,31.18L46.796,30.939L47.345,28.963L48.853,29.331L49.276,28.825L49.312,27.687L49.944,27.579L50.522,26.81L50.82,26.714L51.019,27.522L51.658,28.128L52.743,28.554L53.268,29.457L52.975,30.743L53.248,31.213L54.152,31.398L55.176,31.548L56.094,32.214L56.564,32.332L56.911,33.303L57.357,33.92L58.195,33.896L59.764,34.128L60.776,33.984L61.526,34.138L62.651,34.762L63.571,34.761L63.907,35.078L64.793,34.53L66.021,34.173L67.16,34.133L68.049,33.77L68.594,33.211L69.127,32.859L69.004,32.51L68.761,32.102L69.16,31.412L69.588,31.509L70.369,31.727L71.127,31.155L72.286,30.735L72.843,30.01L73.378,29.696L74.483,29.549L75.083,29.674L75.166,29.279L74.477,28.494L73.867,28.131L73.282,28.549L72.532,28.373L72.102,28.517L71.906,28.053L72.443,26.903L72.813,26.02L73.726,26.464L74.798,25.719L74.791,25.195L75.477,23.91L75.9,23.516L75.89,22.831L75.473,22.533L76.101,21.904L77.046,21.675L78.054,21.64L79.192,22.019L79.86,22.484L80.329,23.738L80.614,24.264L80.879,25.007ZM43.282,41.017L44.099,42.104L44.023,42.851L44.325,43.317L44.3,43.778L43.754,43.657L43.968,44.646L44.715,45.209L45.771,45.826L45.289,46.224L44.994,47.039L45.73,47.367L46.447,47.79L47.439,48.272L48.481,48.382L48.919,48.816L49.507,48.897L50.422,49.095L51.055,49.081L51.142,48.745L51.042,48.202L51.1,47.832L51.564,47.651L51.628,48.327L51.644,48.499L52.335,48.822L52.813,48.689L53.455,48.746L54.076,48.721L54.129,48.196L53.819,47.922L54.433,47.815L55.125,47.173L56.001,46.619L56.639,46.833L57.181,46.466L57.537,47.008L57.28,47.371L58.1,47.5L58.158,47.827L57.891,47.985L57.953,48.512L57.41,48.357L56.426,48.946L56.449,49.432L56.029,50.139L55.991,50.547L55.652,51.235L55.058,51.045L55.028,51.904L54.856,52.185L54.937,52.534L54.562,52.729L54.161,51.42L53.951,51.423L53.827,51.952L53.411,51.523L53.645,51.05L53.986,51.002L54.336,50.295L53.898,50.151L53.193,50.164L52.469,50.048L52.402,49.462L52.039,49.42L51.437,49.054L51.168,49.629L51.717,50.075L51.242,50.387L51.073,50.692L51.541,50.916L51.412,51.417L51.675,52.039L51.793,52.717L51.685,53.016L51.167,53.006L50.23,53.176L50.274,53.789L49.868,54.269L48.774,54.813L47.923,55.758L47.351,56.262L46.594,56.784L46.592,57.149L46.213,57.344L45.529,57.628L45.173,57.67L44.946,58.272L45.104,59.293L45.144,59.941L44.822,60.681L44.818,61.998L44.425,62.036L44.079,62.624L44.31,62.878L43.617,63.097L43.361,63.62L43.056,63.84L42.336,63.123L41.984,62.043L41.692,61.262L41.426,60.895L41.022,60.148L40.834,59.17L40.702,58.68L40.01,57.597L39.696,56.057L39.468,55.031L39.471,54.052L39.323,53.29L38.217,53.777L37.681,53.68L36.688,52.689L37.053,52.392L36.829,52.069L35.937,51.367L36.443,50.811L38.117,50.813L37.966,50.094L37.539,49.667L37.452,49.016L36.954,48.633L37.792,47.735L38.675,47.801L39.47,46.894L39.947,46.008L40.685,45.123L40.673,44.488L41.322,43.97L40.708,43.524L40.444,42.91L40.175,42.108L40.547,41.71L41.701,41.935L42.548,41.798ZM38.055,34.394L37.619,34.584L36.616,35.294L36.284,36.015L36,36.022L35.792,35.545L34.825,35.512L34.67,34.68L34.3,34.673L34.357,33.638L33.447,32.874L32.143,32.956L31.251,33.109L30.525,32.157L29.903,31.753L28.724,30.982L28.582,30.887L26.625,31.526L26.655,35.371L26.265,35.42L25.733,34.622L25.219,34.335L24.356,34.548L24.02,34.888L23.977,34.639L24.164,34.211L24.019,33.851L23.138,33.497L22.795,32.555L22.375,32.287L22.35,31.94L23.089,32.041L23.119,31.257L23.765,31.081L24.429,31.242L24.566,30.179L24.431,29.496L23.67,29.55L23.024,29.278L22.143,29.767L21.434,29.998L21.048,29.82L21.125,29.248L20.64,28.497L20.076,28.529L19.431,27.757L19.87,26.883L19.648,26.645L20.254,25.348L21.036,26.037L21.131,25.168L22.7,23.85L23.888,23.818L25.564,24.662L26.464,25.148L27.271,24.641L28.476,24.616L29.448,25.24L29.669,24.884L30.737,24.935L30.928,24.363L29.696,23.521L30.425,22.916L30.283,22.575L31.013,22.248L30.464,21.376L30.813,20.936L33.658,20.484L34.029,20.161L35.931,19.674L36.615,19.122L37.981,19.41L38.221,20.772L39.014,20.455L39.991,20.899L39.928,21.601L40.657,21.528L42.563,20.306L42.285,20.715L43.254,21.71L44.953,24.856L45.359,24.222L46.406,24.92L47.499,24.61L47.918,24.827L48.284,25.519L48.816,25.75L49.139,26.251L50.119,26.093L50.522,26.81L49.944,27.579L49.312,27.687L49.276,28.825L48.853,29.331L47.345,28.963L46.796,30.939L46.407,31.18L44.901,31.61L45.585,33.448L45.063,33.719L45.124,34.308L44.656,34.157L44.274,33.785L43.146,33.677L41.886,33.648L41.609,33.763L40.526,33.325L40.095,33.541L39.977,34.153L38.726,33.796L38.225,33.942ZM16.628,57.315L16.529,56.976L16.3,56.737L16.241,56.419L15.848,56.133L15.443,55.462L15.229,54.806L14.703,54.25L14.364,54.117L13.86,53.342L13.772,52.773L13.805,52.286L13.368,51.37L13.012,51.045L12.601,50.873L12.351,50.394L12.393,50.204L12.181,49.768L11.959,49.58L11.663,48.949L11.2,48.261L10.812,47.671L10.433,47.675L10.552,47.201L10.585,46.898L10.679,46.55L11.526,46.689L11.854,46.42L12.036,46.105L12.616,45.984L12.741,45.689L12.993,45.54L12.235,44.653L13.758,44.204L13.903,44.069L14.818,44.312L15.951,44.936L18.095,46.705L19.509,46.775L20.186,46.859L20.375,47.272L20.913,47.249L21.211,47.993L21.585,48.189L21.715,48.489L22.233,48.848L22.279,49.198L22.204,49.48L22.3,49.764L22.518,50L22.62,50.275L22.733,50.481L22.963,50.647L23.174,50.587L23.318,50.906L23.347,51.099L23.639,51.939L25.924,52.354L26.077,52.18L26.426,52.763L25.919,54.392L23.638,55.198L21.446,55.506L20.736,55.867L20.191,56.704L19.836,56.837L19.646,56.572L19.355,56.611L18.62,56.532L18.481,56.452L17.603,56.47L17.397,56.542L17.085,56.335L16.883,56.727L16.961,57.062ZM25.099,39.408L25.767,39.223L26.308,38.674L26.816,38.702L27.15,38.522L27.691,38.611L28.531,39.098L29.139,39.203L30.008,40.046L30.574,40.08L30.641,40.871L30.331,42.028L30.122,42.696L30.453,42.831L30.128,43.329L30.377,44.049L30.437,44.617L31.012,44.767L31.075,45.339L30.385,46.137L30.762,46.597L31.068,47.122L31.794,47.502L31.815,48.259L32.179,48.398L32.242,48.791L31.145,49.229L30.859,50.209L29.429,49.956L28.6,49.762L27.742,49.652L27.417,48.612L27.053,48.461L26.469,48.613L25.702,49.025L24.773,48.743L24.006,48.086L23.274,47.841L22.766,47.022L22.205,45.857L21.796,46L21.312,45.708L21.029,46.051L20.608,45.589L20.6,45.118L20.358,45.118L20.482,44.473L20.091,43.791L19.159,43.296L18.633,42.429L18.809,41.711L19.192,41.391L19.134,40.846L18.636,40.564L18.143,39.435L17.727,38.666L17.876,38.367L17.639,37.247L18.159,36.966L18.28,37.338L18.664,37.791L19.185,37.92L19.461,37.892L20.357,37.168L20.642,37.096L20.867,37.384L20.605,37.869L21.079,38.378L21.268,38.329L21.509,39.04L22.23,39.24L22.758,39.718L23.839,39.882L25.026,39.631ZM50.82,26.714L51.621,26.511L53.072,25.495L54.229,24.932L54.89,25.3L55.683,25.317L56.191,25.873L56.95,25.915L58.049,26.212L58.788,25.387L58.479,24.68L59.267,23.413L60.119,23.922L60.809,24.065L61.703,24.378L61.848,25.281L62.928,25.782L63.646,25.562L64.608,25.406L65.37,25.563L66.115,26.132L66.576,26.731L67.281,26.719L68.239,26.908L68.938,26.62L69.939,26.426L71.052,25.594L71.508,25.722L71.906,26.119L72.813,26.02L72.443,26.903L71.906,28.053L72.102,28.517L72.532,28.373L73.282,28.549L73.867,28.131L74.477,28.494L75.166,29.279L75.083,29.674L74.483,29.549L73.378,29.696L72.843,30.01L72.286,30.735L71.127,31.155L70.369,31.727L69.588,31.509L69.16,31.412L68.761,32.102L69.004,32.51L69.127,32.859L68.594,33.211L68.049,33.77L67.16,34.133L66.021,34.173L64.793,34.53L63.907,35.078L63.571,34.761L62.651,34.762L61.526,34.138L60.776,33.984L59.764,34.128L58.195,33.896L57.357,33.92L56.911,33.303L56.564,32.332L56.094,32.214L55.176,31.548L54.152,31.398L53.248,31.213L52.975,30.743L53.268,29.457L52.743,28.554L51.658,28.128L51.019,27.522ZM41.245,39.471L41.807,39.914L42.032,40.639L43.282,41.017L42.548,41.798L41.701,41.935L40.547,41.71L40.175,42.108L40.444,42.91L40.708,43.524L41.322,43.97L40.673,44.488L40.685,45.123L39.947,46.008L39.47,46.894L38.675,47.801L37.792,47.735L36.954,48.633L37.452,49.016L37.539,49.667L37.966,50.094L38.117,50.813L36.443,50.811L35.937,51.367L35.38,51.156L35.153,50.557L34.566,49.918L33.165,50.076L31.93,50.092L30.859,50.209L31.145,49.229L32.242,48.791L32.179,48.398L31.815,48.259L31.794,47.502L31.068,47.122L30.762,46.597L30.385,46.137L31.659,46.583L32.42,46.453L32.874,46.564L33.028,46.373L33.558,46.449L34.546,46.086L34.572,45.336L34.996,44.834L35.562,44.835L35.645,44.586L36.226,44.47L36.507,44.553L36.805,44.301L36.763,43.762L37.086,43.216L37.569,42.986L37.271,42.381L37.994,42.41L38.203,42.079L38.171,41.724L38.55,41.335L38.463,40.871L38.283,40.473L38.727,40.062L39.544,39.863L40.416,39.753L40.803,39.578ZM12.167,35.344L13.258,35.734L14.144,35.579L14.798,35.668L15.696,35.14L16.506,35.092L17.238,35.589L17.368,35.943L17.294,36.43L17.86,36.677L18.159,36.966L17.639,37.247L17.876,38.367L17.727,38.666L18.143,39.435L17.779,39.596L17.512,39.353L16.627,39.23L16.301,39.378L15.436,39.527L15.026,39.51L14.151,39.867L13.526,39.87L13.121,39.691L12.284,39.955L12.035,39.771L11.994,40.299L11.791,40.505L11.587,40.711L11.307,40.284L11.595,39.929L11.132,40.01L10.496,39.792L9.973,40.336L8.819,40.442L8.204,39.935L7.384,39.903L7.209,40.296L6.683,40.407L5.948,39.904L5.118,39.921L4.668,38.973L4.112,38.438L4.482,37.681L4,37.212L4.843,36.264L6.014,36.224L6.334,35.46L7.783,35.594L8.697,34.936L9.583,34.648L10.84,34.626ZM59.785,54.24L59.342,54.591L58.805,54.627L58.458,55.498L58.137,55.643L58.505,56.345L58.987,56.926L59.299,57.449L59.02,58.136L58.758,58.282L58.939,58.676L59.447,59.299L59.533,59.736L59.521,60.099L59.819,60.808L59.401,61.531L59.033,62.326L58.959,61.752L59.193,61.159L58.938,60.699L58.999,59.851L58.691,59.446L58.443,58.507L58.306,57.51L57.977,56.854L57.476,57.252L56.612,57.816L56.185,57.745L55.714,57.56L55.976,56.576L55.818,55.829L55.222,54.903L55.315,54.612L54.87,54.509L54.33,53.848L54.281,53.192L54.546,53.316L54.562,52.729L54.937,52.534L54.856,52.185L55.028,51.904L55.058,51.045L55.652,51.235L55.991,50.547L56.029,50.139L56.449,49.432L56.426,48.946L57.41,48.357L57.953,48.512L57.891,47.985L58.158,47.827L58.1,47.5L58.545,47.436L58.799,47.943L59.131,48.148L59.153,48.802L59.123,49.501L58.403,50.205L58.311,51.196L59.114,51.058L59.295,51.822L59.777,51.982L59.555,52.666L60.12,52.973L60.449,53.124L61.007,52.886L61.03,53.224L60.383,53.754L60.221,54.053ZM30.641,40.871L31.416,41.226L31.99,41.101L32.148,40.677L32.749,40.536L33.177,40.249L33.329,39.491L33.97,39.306L34.089,38.965L34.448,39.222L34.677,39.251L35.1,39.258L35.674,39.459L35.906,39.575L36.456,39.269L36.712,39.453L36.958,39.015L37.412,39.035L37.529,38.894L37.61,38.505L37.937,38.168L38.348,38.389L38.266,38.684L38.496,38.73L38.425,39.535L38.726,39.846L38.991,39.647L39.328,39.552L39.802,39.124L40.326,39.195L41.11,39.196L41.245,39.471L40.803,39.578L40.416,39.753L39.544,39.863L38.727,40.062L38.283,40.473L38.463,40.871L38.55,41.335L38.171,41.724L38.203,42.079L37.994,42.41L37.271,42.381L37.569,42.986L37.086,43.216L36.763,43.762L36.805,44.301L36.507,44.553L36.226,44.47L35.645,44.586L35.562,44.835L34.996,44.834L34.572,45.336L34.546,46.086L33.558,46.449L33.028,46.373L32.874,46.564L32.42,46.453L31.659,46.583L30.385,46.137L31.075,45.339L31.012,44.767L30.437,44.617L30.377,44.049L30.128,43.329L30.453,42.831L30.122,42.696L30.331,42.028ZM73.723,68.526L74.576,69.23L73.675,69.32L73.421,69.838L73.454,70.527L72.723,71.047L72.703,71.805L72.41,72.969L72.298,72.698L71.434,73.041L71.133,72.576L70.591,72.532L70.212,72.288L69.308,72.562L69.031,72.194L68.533,72.236L67.906,72.148L67.789,71.127L67.41,70.916L67.045,70.265L66.939,69.6L67.028,68.896L67.479,68.39L67.606,68.899L68.126,69.328L68.617,69.174L69.102,69.228L69.545,68.844L69.91,68.777L70.629,68.99L71.249,68.828L71.639,67.77L71.932,67.505L72.195,66.639L73.069,66.639L73.728,66.768L73.296,67.456L73.855,68.176ZM62.098,60.58L61.415,60.223L60.765,60.237L60.876,59.624L60.207,59.629L60.147,60.486L59.736,61.62L59.489,62.303L59.541,62.861L60.037,62.885L60.345,63.587L60.482,64.251L60.906,64.69L61.367,64.779L61.76,65.176L61.512,65.491L61.01,65.582L60.95,65.189L60.33,64.854L60.198,64.991L59.897,64.697L59.767,64.318L59.363,63.884L58.995,63.52L58.87,63.972L58.726,63.545L58.809,63.065L59.033,62.326L59.401,61.531L59.819,60.808L59.521,60.099L59.533,59.736L59.447,59.299L58.939,58.676L58.758,58.282L59.02,58.136L59.299,57.449L58.987,56.926L58.505,56.345L58.137,55.643L58.458,55.498L58.805,54.627L59.342,54.591L59.785,54.24L60.221,54.053L60.55,54.303L60.593,54.789L61.107,54.826L60.92,55.673L60.938,56.389L61.739,55.913L61.967,56.054L62.412,56.03L62.566,55.752L63.141,55.807L63.719,56.456L63.766,57.24L64.382,57.93L64.348,58.596L64.1,58.95L63.388,58.838L62.405,58.987L61.918,59.638ZM30.641,40.871L30.574,40.08L30.008,40.046L29.139,39.203L28.531,39.098L27.691,38.611L27.15,38.522L26.816,38.702L26.308,38.674L25.767,39.223L25.099,39.408L24.958,38.73L25.068,37.714L24.475,37.383L24.67,36.707L24.166,36.649L24.334,35.807L25.051,36.053L25.719,35.732L25.165,35.125L24.947,34.541L24.335,34.802L24.257,35.546L24.02,34.888L24.356,34.548L25.219,34.335L25.733,34.622L26.265,35.42L26.655,35.371L27.513,35.357L27.388,34.845L28.038,34.492L28.678,33.894L29.702,34.438L29.784,35.253L30.075,35.46L30.897,35.413L31.152,35.597L31.526,36.629L32.395,37.311L32.891,37.773L33.686,38.249L34.697,38.663L34.677,39.251L34.448,39.222L34.089,38.965L33.97,39.306L33.329,39.491L33.177,40.249L32.749,40.536L32.148,40.677L31.99,41.101L31.416,41.226ZM34.677,39.251L34.697,38.663L33.686,38.249L32.891,37.773L32.395,37.311L31.526,36.629L31.152,35.597L30.897,35.413L30.075,35.46L29.784,35.253L29.702,34.438L28.678,33.894L28.038,34.492L27.388,34.845L27.513,35.357L26.655,35.371L26.625,31.526L28.582,30.887L28.724,30.982L29.903,31.753L30.525,32.157L31.251,33.109L32.143,32.956L33.447,32.874L34.357,33.638L34.3,34.673L34.67,34.68L34.825,35.512L35.792,35.545L36,36.022L36.284,36.015L36.616,35.294L37.619,34.584L38.055,34.394L38.281,34.495L37.643,35.156L38.204,35.537L38.745,35.285L39.646,35.817L38.673,36.537L38.095,36.439L37.781,36.465L37.672,36.188L37.83,35.722L36.814,35.956L36.572,36.597L36.211,37.144L35.576,37.097L35.379,37.53L35.937,37.764L36.101,38.487L35.674,39.459L35.1,39.258ZM24.481,57.074L23.931,57.287L23.784,57.639L23.766,57.908L23.009,58.241L21.794,58.608L21.113,59.162L20.778,59.205L20.55,59.159L20.106,59.484L19.621,59.634L18.983,59.675L18.791,59.719L18.625,59.925L18.426,59.982L18.308,60.181L17.932,60.163L17.689,60.269L17.162,60.229L16.965,59.774L16.986,59.346L16.862,59.115L16.713,58.535L16.495,58.211L16.647,58.173L16.569,57.812L16.661,57.66L16.628,57.315L16.961,57.062L16.883,56.727L17.085,56.335L17.397,56.542L17.603,56.47L18.481,56.452L18.62,56.532L19.355,56.611L19.646,56.572L19.836,56.837L20.191,56.704L20.736,55.867L21.446,55.506L23.638,55.198L24.233,56.519ZM64.556,74.373L63.714,74.389L63.074,73.751L62.097,73.128L61.772,72.666L61.196,72.046L60.819,71.475L60.24,70.411L59.573,69.777L59.349,69.123L59.069,68.529L58.384,68.05L57.986,67.399L57.414,66.972L56.621,66.132L56.554,65.743L57.043,65.774L58.22,65.922L58.893,66.668L59.481,67.185L59.9,67.501L60.62,68.32L61.393,68.332L62.032,68.853L62.472,69.489L63.051,69.837L62.746,70.457L63.182,70.721L63.455,70.741L63.584,71.271L63.849,71.696L64.407,71.763L64.777,72.245L64.586,73.193ZM18.636,40.564L19.134,40.846L19.192,41.391L18.809,41.711L18.633,42.429L19.159,43.296L20.091,43.791L20.482,44.473L20.358,45.118L20.6,45.118L20.608,45.589L21.029,46.051L20.577,46.008L20.067,45.935L19.509,46.775L18.095,46.705L15.951,44.936L14.818,44.312L13.903,44.069L13.596,42.967L15.279,42.014L15.567,40.892L15.495,40.205L15.911,39.972L16.301,39.378L16.627,39.23L17.512,39.353L17.779,39.596L18.143,39.435ZM86.092,70.792L86.304,72.022L87.091,72.478L87.726,71.671L88.599,71.211L89.275,71.211L89.925,71.476L90.489,71.748L91.305,71.894L91.318,74.379L91.331,76.878L90.654,76.247L89.881,76.092L89.694,76.311L88.731,76.335L89.054,75.71L89.532,75.497L89.334,74.664L88.969,74.023L87.495,73.376L86.868,73.313L85.726,72.608L85.502,72.979L85.21,73.046L85.038,72.766L85.035,72.435L84.454,72.061L85.273,71.787L85.816,71.802L85.752,71.6L84.639,71.599L84.338,71.146L83.658,71.005L83.337,70.629L84.361,70.445L84.751,70.197L85.972,70.509ZM66.253,53.129L65.238,53.826L64.604,54.592L64.437,55.151L65.019,55.997L65.73,57.037L66.42,57.527L66.882,58.161L67.23,59.614L67.127,60.984L66.493,61.494L65.623,61.993L65.002,62.636L64.054,63.353L63.778,62.859L63.992,62.337L63.428,61.898L64.086,61.587L64.884,61.531L64.55,61.061L65.828,60.463L65.922,59.528L65.746,59.006L65.884,58.22L65.692,57.662L65.117,57.111L64.638,56.411L64.006,55.466L63.095,54.985L63.313,54.695L63.799,54.483L63.504,53.776L62.568,53.77L62.227,53.029L61.783,52.381L62.191,52.18L62.797,52.184L63.536,52.089L64.184,51.648L64.551,51.959L65.246,52.109L65.126,52.584L65.488,52.917ZM28.855,53.487L28.571,54.044L28.226,54.001L28.068,54.195L27.946,54.605L28.039,55.144L27.967,55.243L27.618,55.24L27.143,55.54L27.069,55.93L26.895,56.099L26.422,56.092L26.124,56.293L26.128,56.615L25.76,56.836L25.341,56.761L24.832,57.029L24.481,57.074L24.233,56.519L23.638,55.198L25.919,54.392L26.426,52.763L26.077,52.18L26.097,51.848L26.319,51.505L26.321,51.166L26.665,51.002L26.53,50.886L26.593,50.341L26.981,50.338L27.322,50.909L27.746,51.212L28.304,51.32L28.754,51.471L29.097,51.946L29.302,52.22L29.574,52.324L29.573,52.508L29.296,52.996L29.175,53.226ZM91.287,39.462L91.001,40.219L91.133,40.691L90.737,41.349L89.766,41.785L88.429,41.842L87.346,42.889L86.835,42.538L86.803,41.851L85.481,42.054L84.581,42.487L83.691,42.504L84.462,43.175L83.955,44.704L83.463,45.079L83.095,44.733L83.282,43.926L82.801,43.664L82.492,43.043L83.211,42.762L83.609,42.186L84.374,41.709L84.932,41.074L86.445,40.795L87.258,40.986L88.054,39.306L88.561,39.762L89.676,38.805L90.108,38.43L90.586,37.237L90.456,36.121L90.777,35.486L91.585,35.3L92,36.69L91.977,37.49L91.274,38.471ZM64.1,58.95L64.348,58.596L64.382,57.93L63.766,57.24L63.719,56.456L63.141,55.807L62.566,55.752L62.412,56.03L61.967,56.054L61.739,55.913L60.938,56.389L60.92,55.673L61.107,54.826L60.593,54.789L60.55,54.303L60.221,54.053L60.383,53.754L61.03,53.224L61.098,53.415L61.503,53.438L61.389,52.501L61.783,52.381L62.227,53.029L62.568,53.77L63.504,53.776L63.799,54.483L63.313,54.695L63.095,54.985L64.006,55.466L64.638,56.411L65.117,57.111L65.692,57.662L65.884,58.22L65.746,59.006L65.072,58.717L64.728,59.258ZM74.288,66.508L73.728,66.768L73.069,66.639L72.195,66.639L71.932,67.505L71.639,67.77L71.249,68.828L70.629,68.99L69.91,68.777L69.545,68.844L69.102,69.228L68.617,69.174L68.126,69.328L67.606,68.899L67.479,68.39L68.037,68.651L68.624,68.509L68.777,67.865L69.102,67.721L70.013,67.556L70.558,66.954L70.932,66.471L71.278,66.867L71.438,66.607L71.801,66.631L71.845,66.144L71.88,65.768L72.465,65.236L72.849,64.638L73.156,64.636L73.547,65.023L73.582,65.355L74.082,65.569L74.717,65.798L74.662,66.097L74.152,66.135ZM38.055,34.394L38.225,33.942L38.726,33.796L39.977,34.153L40.095,33.541L40.526,33.325L41.609,33.763L41.886,33.648L43.146,33.677L44.274,33.785L44.656,34.157L45.124,34.308L45.017,34.54L43.819,35.093L43.548,35.495L42.573,35.615L42.285,36.256L41.481,36.122L40.955,36.318L40.23,36.787L40.334,37.019L40.118,37.244L38.68,37.394L37.741,37.074L36.917,37.15L36.989,36.58L37.816,36.746L38.095,36.439L38.673,36.537L39.646,35.817L38.745,35.285L38.204,35.537L37.643,35.156L38.281,34.495Z"/>
</svg>
