<?xml version="1.0" encoding="UTF-8"?>
<svg xmlns="http://www.w3.org/2000/svg" viewBox="0 0 96 96">
  <path fill="#334155" fill-rule="evenodd" d="M70.855,61.019L71.365,61.108L71.71,60.602L72.125,60.714L73.541,60.498L74.414,61.756L74.072,62.202L74.186,62.881L75.275,62.987L75.76,63.928L75.731,64.352L77.465,65.105L78.513,64.767L79.356,65.765L80.154,65.742L82.167,66.43L82.183,67.047L81.629,68.138L81.93,69.275L81.716,69.956L80.394,70.105L79.69,70.672L79.647,71.567L78.556,71.727L77.648,72.373L76.369,72.478L75.193,73.217L75.273,74.439L75.941,74.91L77.334,74.793L77.067,75.486L75.572,75.82L73.718,76.931L72.959,76.542L73.26,75.637L71.767,75.07L72.009,74.697L73.316,74.047L72.921,73.597L70.798,73.098L70.704,72.358L69.438,72.603L68.931,73.692L67.874,75.137L67.254,74.803L66.612,75.116L66.003,74.757L66.347,74.546L66.585,73.874L66.959,73.246L66.863,72.891L67.148,72.733L67.283,73.008L68.088,73.066L68.449,72.919L68.195,72.718L68.291,72.422L67.814,71.915L67.617,71.075L67.119,70.745L67.217,70.058L66.6,69.509L66.038,69.432L65.032,68.792L64.124,68.996L63.798,69.299L63.222,69.298L62.879,69.776L61.87,69.972L61.404,70.284L60.77,69.787L59.894,69.779L59.049,69.553L58.46,69.99L58.365,69.443L57.606,68.885L57.873,68.052L58.252,67.51L58.55,67.632L58.198,66.691L59.438,64.928L60.115,64.679L60.262,64.076L59.575,62.175L60.228,62.089L60.976,61.492L62.034,61.442L63.414,61.616L64.938,62.145L66.014,62.189L66.527,62.506L67.04,62.123L67.398,62.636L68.63,62.531L69.174,62.743L69.262,61.637L69.682,61.15ZM32.343,64.777L33.297,65.782L33.997,65.617L35.192,66.581L35.498,66.763L35.892,66.719L36.536,67.268L38.504,67.652L37.814,69.068L37.641,70.522L37.266,70.867L36.643,70.681L36.687,71.194L35.688,72.319L35.668,73.218L36.32,72.908L36.79,73.773L36.733,74.327L37.135,75.059L36.662,75.649L37.013,77.135L37.754,77.376L37.598,78.199L36.36,79.261L33.667,78.754L31.677,79.362L31.521,80.482L29.938,80.722L28.401,79.883L27.905,80.285L25.39,79.439L24.846,78.71L25.552,77.576L25.812,73.727L24.403,71.643L23.396,70.623L21.309,69.842L21.171,68.344L22.942,67.893L25.235,68.426L24.802,66.06L26.092,66.963L29.271,65.315L29.681,63.554L30.876,63.116L31.074,63.878L31.708,63.914ZM15.104,81.574L15.172,80.26L14.615,79.453L16.547,78.096L18.218,78.437L20.052,78.425L21.505,78.746L22.639,78.648L24.846,78.71L25.39,79.439L27.905,80.285L28.401,79.883L29.938,80.722L31.521,80.482L31.594,81.553L30.3,82.769L28.55,83.152L28.428,83.759L27.589,84.753L27.062,86.199L27.595,87.203L26.805,87.982L26.51,89.108L25.478,89.451L24.511,90.767L22.778,90.793L21.476,90.761L20.621,91.361L20.099,92L19.431,91.86L18.925,91.288L18.538,90.309L17.263,90.044L17.149,89.476L17.655,88.829L17.843,88.358L17.372,87.841L17.749,86.692L17.202,85.633L17.792,85.487L17.847,84.645L18.068,84.383L18.086,82.977L18.717,82.485L18.335,81.569L17.539,81.505L17.306,81.736L16.499,81.738L16.156,80.838L15.599,81.107ZM57.74,24.42L56.415,26.707L56.629,28.665L54.456,31.172L51.819,33.775L50.824,37.879L51.796,39.863L53.102,41.395L51.848,44.433L50.427,45.05L49.906,49.363L49.131,51.686L47.474,51.449L46.701,53.377L45.12,53.487L44.686,51.188L43.542,48.352L42.504,44.691L43.106,43.156L44.242,41.296L44.694,38.015L43.821,36.562L43.737,32.638L44.624,29.757L45.979,29.81L46.454,28.565L45.957,27.476L48.077,22.843L49.443,19.007L50.345,16.451L51.657,16.463L52.018,14.407L54.592,15.004L54.792,12.526L55.64,12.369L57.46,14.222L59.592,16.735L59.628,22.157L60.089,23.474ZM40.994,54.393L41.018,55.308L42.398,55.856L42.383,56.684L43.772,56.247L44.54,55.605L46.082,56.529L46.727,57.268L47.046,58.436L46.665,59.043L47.161,59.849L47.499,61.045L47.393,61.808L47.952,63.207L47.343,63.433L46.983,63.184L46.64,63.597L45.659,64.016L45.152,64.552L44.16,65.018L44.399,65.651L44.544,66.543L45.24,67.048L46.012,67.944L45.53,68.897L45.039,69.158L45.233,70.487L45.106,70.831L44.68,70.417L44.025,70.354L43.049,70.718L41.844,70.631L41.65,71.164L40.958,70.603L40.546,70.715L39.083,70.095L38.802,70.536L37.641,70.522L37.814,69.068L38.504,67.652L36.536,67.268L35.892,66.719L35.969,65.793L35.696,65.313L35.851,63.864L35.622,61.573L36.442,61.572L36.789,60.736L37.129,58.673L36.874,57.9L37.14,57.413L38.282,57.288L38.535,57.796L39.463,56.656L39.15,55.781L39.088,54.441L40.12,54.754ZM66.492,12.527L66.293,15.162L68.385,17.595L67.124,20.266L68.713,24.146L67.793,26.956L69.023,29.324L68.464,31.346L70.486,33.422L69.972,34.936L68.704,36.62L65.78,40.233L63.301,40.454L60.899,41.462L58.677,42.038L57.887,40.542L56.564,39.63L56.868,36.836L56.205,34.198L56.856,32.452L58.094,30.529L61.219,27.106L62.13,26.43L61.988,25.046L60.089,23.474L59.628,22.157L59.592,16.735L57.46,14.222L55.64,12.369L56.458,11.351L57.976,13.376L59.759,13.188L61.226,14.1L62.528,12.423L63.198,9.569L65.318,8.216L67.071,9.801ZM65.91,4L70.182,7.042L68.423,8.127L69.919,10.62L67.595,12.175L66.492,12.527L67.071,9.801L65.318,8.216L63.198,9.569L62.528,12.423L61.226,14.1L59.759,13.188L57.976,13.376L56.458,11.351L55.64,12.369L54.792,12.526L54.592,15.004L52.018,14.407L51.657,16.463L50.345,16.451L49.443,19.007L48.077,22.843L45.957,27.476L46.454,28.565L45.979,29.81L44.624,29.757L43.737,32.638L43.821,36.562L44.694,38.015L44.242,41.296L43.106,43.156L42.504,44.691L41.587,43.056L38.891,46.113L37.07,46.721L35.181,45.396L34.693,42.534L34.261,36.067L35.518,34.177L39.125,31.648L41.821,28.436L44.321,23.9L47.603,17.189L49.89,14.423L53.644,9.6L56.641,7.849L58.888,8.063L60.967,4.654L63.458,4.839ZM47.952,63.207L47.393,61.808L47.499,61.045L47.161,59.849L46.665,59.043L47.046,58.436L46.727,57.268L47.66,56.587L49.791,55.505L51.511,54.705L52.874,55.105L52.977,55.68L54.294,55.709L55.977,55.976L58.488,55.941L59.188,56.191L59.516,56.908L59.576,57.928L59.955,58.797L59.947,59.699L59.128,60.158L59.549,61.192L59.575,62.175L60.262,64.076L60.115,64.679L59.438,64.928L58.198,66.691L58.55,67.632L58.252,67.51L56.954,66.705L55.971,67.002L55.326,66.787L54.519,67.236L53.83,66.492L53.269,66.777L53.192,66.651L52.563,65.61L51.548,65.482L51.418,64.813L50.481,64.574L50.278,65.126L49.536,64.684L49.621,64.092L48.6,63.905ZM44.346,72.236L46.299,72.75L46.151,73.723L46.478,74.557L45.391,74.272L44.281,74.965L44.356,75.926L44.189,76.473L44.637,77.446L45.917,78.399L46.604,79.948L48.124,81.437L49.194,81.426L49.527,81.831L49.144,82.195L50.367,82.853L51.37,83.4L52.541,84.339L52.682,84.673L52.427,85.311L51.669,84.478L50.483,84.183L49.908,85.339L50.895,85.996L50.733,86.915L50.162,87.019L49.433,88.514L48.863,88.648L48.869,88.117L49.147,87.181L49.444,86.807L48.911,85.785L48.494,84.888L47.927,84.666L47.524,83.892L46.646,83.564L46.055,82.837L45.045,82.719L43.978,81.897L42.728,80.7L41.8,79.63L41.374,77.771L40.694,77.55L39.583,76.922L38.954,77.18L38.165,78.061L37.598,78.199L37.754,77.376L37.013,77.135L36.662,75.649L37.135,75.059L36.733,74.327L36.79,73.773L37.377,74.194L38.036,74.1L38.801,73.434L39.038,73.746L39.689,73.683L39.984,72.887L40.995,73.135L41.597,72.801L41.705,71.985L42.532,72.268L42.691,71.889L44.041,71.54ZM58.46,69.99L59.049,69.553L59.894,69.779L60.77,69.787L61.404,70.284L61.87,69.972L62.879,69.776L63.222,69.298L63.798,69.299L64.215,69.498L64.638,70.103L65.071,70.957L65.859,72.151L65.903,73.023L65.758,73.865L66.003,74.757L66.612,75.116L67.254,74.803L67.874,75.137L67.905,75.636L67.243,76.051L66.828,75.871L66.446,78.173L65.643,77.975L64.649,77.285L63.041,77.727L62.364,78.209L60.358,78.11L59.309,77.815L58.78,77.953L58.387,77.172L58.137,76.84L58.453,76.517L58.116,76.278L57.688,76.707L56.891,76.15L56.784,75.354L55.952,74.897L55.799,74.276L55.059,73.505L56.154,73.133L56.979,71.783L57.626,70.417ZM23.339,45.273L21.879,48.069L23.27,47.72L24.767,47.733L24.411,49.792L23.183,52.005L24.595,52.161L24.704,52.416L25.92,55.241L26.855,55.62L27.696,58.26L28.085,59.16L29.739,59.59L29.573,61.022L28.878,61.672L29.423,62.808L28.194,63.946L26.367,63.926L24.042,64.518L23.405,64.094L22.502,65.099L21.239,64.857L20.279,65.671L19.554,65.246L21.556,62.982L22.779,62.51L22.768,62.508L20.635,62.142L20.249,61.264L21.676,60.574L20.928,59.363L21.188,57.871L23.217,58.078L23.22,58.079L23.421,56.739L22.506,55.298L22.485,55.265L20.827,54.849L20.501,54.206L20.998,53.134L20.549,52.467L19.813,53.609L19.733,51.267L19.044,50.004L19.539,47.39L20.6,45.286L21.691,45.494ZM59.516,56.908L60.836,56.923L62.319,56.046L62.636,54.716L63.756,53.954L63.628,52.877L64.458,52.469L65.925,51.527L67.363,52.14L67.557,52.743L68.274,52.454L69.609,53.032L69.743,54.158L69.45,54.8L70.306,56.339L70.862,56.764L70.78,57.182L71.701,57.588L72.094,58.2L71.563,58.699L70.461,58.62L70.198,58.833L70.519,59.584L70.855,61.019L69.682,61.15L69.262,61.637L69.174,62.743L68.63,62.531L67.398,62.636L67.04,62.123L66.527,62.506L66.014,62.189L64.938,62.145L63.414,61.616L62.034,61.442L60.976,61.492L60.228,62.089L59.575,62.175L59.549,61.192L59.128,60.158L59.947,59.699L59.955,58.797L59.576,57.928ZM63.778,82.157L63.355,83.294L63.03,83.496L62.198,83.445L61.485,83.274L59.831,83.743L60.778,84.751L60.084,85.042L59.324,85.044L58.601,84.123L58.345,84.516L58.65,85.58L59.333,86.41L58.818,86.796L59.579,87.603L60.255,88.108L60.276,89.086L59.012,88.628L59.415,89.508L58.548,89.689L59.066,91.195L58.159,91.216L57.039,90.476L56.527,89.104L56.288,87.951L55.755,87.148L55.055,86.145L54.963,85.641L55.598,84.778L55.68,84.196L56.124,83.936L56.151,83.463L57.044,83.303L57.565,82.907L58.305,82.942L58.53,82.626L58.79,82.565L59.8,82.618L60.894,82.117L61.856,82.753L63.097,82.582L63.112,81.672ZM58.387,77.172L58.78,77.953L59.309,77.815L60.358,78.11L62.364,78.209L63.041,77.727L64.649,77.285L65.643,77.975L66.446,78.173L65.737,78.953L65.239,80.288L65.68,81.341L64.504,81.094L63.112,81.672L63.097,82.582L61.856,82.753L60.894,82.117L59.8,82.618L58.79,82.565L58.693,81.356L58.009,80.765L58.234,80.504L58.086,80.283L58.315,79.692L58.836,79.107L58.173,78.296L58.05,77.604ZM15.104,81.574L15.599,81.107L16.156,80.838L16.499,81.738L17.306,81.736L17.539,81.505L18.335,81.569L18.717,82.485L18.086,82.977L18.068,84.383L17.847,84.645L17.792,85.487L17.202,85.633L17.749,86.692L17.372,87.841L17.843,88.358L17.655,88.829L17.149,89.476L17.263,90.044L16.714,90.488L15.994,90.247L15.289,90.435L15.498,89.093L15.37,88.027L14.758,87.867L14.432,87.205L14.541,86.054L15.085,85.41L15.182,84.69L15.467,83.611L15.437,82.844L15.164,82.191ZM49.571,72.067L50.025,70.773L49.76,70.334L50.529,70.33L50.633,69.498L51.328,70.02L51.831,70.242L52.978,69.993L53.088,69.583L53.63,69.522L54.295,69.204L54.443,69.336L55.084,69.079L55.405,68.595L55.852,68.469L57.315,69.095L57.606,68.885L58.365,69.443L58.46,69.99L57.626,70.417L56.979,71.783L56.154,73.133L55.059,73.505L54.206,73.418L53.16,73.935L52.649,74.228L51.521,73.851L50.5,73.005L50.066,72.761L49.801,72.089ZM50.633,69.498L50.529,70.33L49.76,70.334L50.025,70.773L49.571,72.067L49.311,72.403L48.116,72.453L47.427,72.904L46.299,72.75L44.346,72.236L44.041,71.54L42.691,71.889L42.532,72.268L41.705,71.985L41.008,71.93L40.39,71.566L40.599,71.073L40.546,70.715L40.958,70.603L41.65,71.164L41.844,70.631L43.049,70.718L44.025,70.354L44.68,70.417L45.106,70.831L45.233,70.487L45.039,69.158L45.53,68.897L46.012,67.944L47.026,68.61L47.795,67.763L48.275,67.607L49.335,68.241L49.977,68.134L50.606,68.524L50.497,68.786ZM50.606,68.524L49.977,68.134L49.335,68.241L48.275,67.607L47.795,67.763L47.026,68.61L46.012,67.944L45.24,67.048L44.544,66.543L44.399,65.651L44.16,65.018L45.152,64.552L45.659,64.016L46.64,63.597L46.983,63.184L47.343,63.433L47.952,63.207L48.6,63.905L49.621,64.092L49.536,64.684L50.278,65.126L50.481,64.574L51.418,64.813L51.548,65.482L52.563,65.61L53.192,66.651L52.784,66.653L52.573,67.031L52.259,67.122L52.17,67.597L51.908,67.696L51.871,67.89L51.405,68.104L50.8,68.069ZM55.952,74.897L56.784,75.354L56.891,76.15L57.688,76.707L58.116,76.278L58.453,76.517L58.137,76.84L58.387,77.172L58.05,77.604L58.173,78.296L58.836,79.107L58.315,79.692L58.086,80.283L58.234,80.504L58.009,80.765L57.376,80.795L56.911,80.903L56.866,80.765L57.029,80.545L57.182,80.093L56.988,80.104L56.723,79.759L56.498,79.671L56.32,79.374L56.064,79.257L55.87,78.993L55.625,79.097L55.436,79.717L55.11,79.851L55.222,79.692L54.701,79.304L54.253,79.102L54.053,78.842L53.691,78.52L54.012,78.436L54.211,77.546L53.553,76.813L53.895,75.969L53.4,75.974L53.925,75.247L53.492,74.693L53.16,73.935L54.206,73.418L55.059,73.505L55.799,74.276ZM56.2,51.865L56.247,50.007L56.918,48.428L58.206,47.558L59.29,49.451L60.386,49.402L60.648,47.455L61.812,47.001L62.41,47.317L63.586,48.264L64.712,48.269L65.37,48.852L65.486,50.068L65.925,51.527L64.458,52.469L63.628,52.877L62.315,51.696L61.588,51.538L61.396,51.027L60.055,51.27L57.764,51.112ZM58.488,55.941L58.379,55.341L58.524,54.693L57.921,54.316L56.49,53.898L56.2,51.865L57.764,51.112L60.055,51.27L61.396,51.027L61.588,51.538L62.315,51.696L63.628,52.877L63.756,53.954L62.636,54.716L62.319,56.046L60.836,56.923L59.516,56.908L59.188,56.191ZM18.978,57.012L19.203,58.653L18.171,60.666L15.75,61.975L13.817,61.642L14.924,59.308L14.211,56.98L16.069,55.148L17.101,54.039L17.383,55.31L17.101,56.565L17.946,56.533Z"/>
</svg>
