<?xml version="1.0" encoding="UTF-8"?>
<svg xmlns="http://www.w3.org/2000/svg" viewBox="0 0 96 96">
  <path fill="#334155" fill-rule="evenodd" d="M63.115,18.657L63.112,20.831L64.13,19.174L65.041,20.539L64.814,22.065L65.552,23.41L66.347,21.967L66.903,20.184L66.945,17.813L68.028,17.983L69.155,18.306L70.178,19.382L70.224,20.433L69.657,21.537L70.194,22.62L70.097,23.583L68.605,24.934L67.545,25.227L66.756,24.653L66.529,25.606L65.795,27.164L65.572,27.952L64.688,29.147L63.597,29.263L62.996,29.993L62.945,31.095L62.059,31.304L61.126,32.639L60.299,34.435L60.004,35.656L59.962,37.402L61.082,37.647L61.425,39.006L61.781,40.081L62.848,39.803L64.264,40.41L65.026,40.938L65.572,41.586L66.526,41.959L67.334,42.526L68.592,42.604L69.421,42.733L69.297,43.875L69.534,45.172L70.086,46.58L71.22,47.747L71.807,47.35L72.219,46.076L71.821,44.059L71.284,43.37L72.504,42.748L73.367,41.806L73.79,40.851L73.727,39.919L73.21,38.71L72.284,37.614L73.183,36.048L72.851,34.656L72.597,32.157L73.127,31.777L74.434,32.225L75.217,32.384L75.849,31.953L76.558,32.508L77.497,33.444L77.728,34.06L79.087,34.18L79.065,35.486L79.318,37.389L80.014,37.62L80.566,38.479L81.67,37.669L82.399,36.021L82.903,35.31L83.497,36.667L84.49,38.544L85.332,40.249L85.026,41.12L86.04,41.889L86.725,42.658L87.94,43.002L88.429,43.424L88.731,44.527L89.325,44.698L89.631,45.181L89.687,46.594L89.133,47.059L88.586,47.49L87.331,47.922L86.372,48.91L85.083,49.103L83.453,48.853L82.309,48.844L81.52,48.927L80.882,49.775L79.91,50.293L78.811,51.812L77.933,52.85L78.581,52.666L79.804,51.18L81.403,50.217L82.543,50.101L83.218,50.671L82.498,51.442L82.74,52.659L82.988,53.496L83.978,54.044L85.238,53.885L86.002,52.642L86.055,53.447L86.547,53.845L85.604,54.559L83.916,55.2L83.16,55.632L82.308,56.394L81.73,56.317L81.701,55.419L83.024,54.53L81.804,54.565L80.957,54.697L80.459,54.083L80.459,52.577L80.121,52.253L79.61,52.444L79.357,52.148L78.775,52.993L78.543,53.851L78.272,54.348L77.948,54.515L77.704,54.57L77.628,54.837L76.224,54.837L75.066,54.845L74.722,55.043L73.916,55.812L73.821,55.894L73.577,56.306L72.878,56.306L72.129,56.31L71.785,56.477L71.908,56.683L71.977,57.001L71.962,57.107L70.965,57.622L70.18,57.784L69.295,58.331L69.103,58.331L68.845,58.17L68.759,58.023L68.776,57.916L68.943,57.556L69.302,56.986L69.524,56.367L69.372,55.446L69.209,54.47L68.415,53.959L68.509,53.764L68.398,53.63L68.188,53.63L68.035,53.455L67.997,53.193L67.848,53.308L67.644,53.274L67.691,53.164L67.511,53.055L67.437,52.762L66.846,52.404L66.229,52.029L65.483,51.591L64.768,51.176L64.086,51.5L63.837,51.511L62.9,51.214L62.282,51.363L61.543,51.008L60.765,50.824L60.233,50.754L59.996,50.558L59.86,49.919L59.602,49.924L59.6,50.372L58.023,50.371L55.415,50.372L52.825,50.372L50.537,50.372L48.251,50.372L46.003,50.372L43.679,50.372L42.93,50.372L40.668,50.372L38.503,50.372L38.401,50.369L36.925,49.217L36.381,48.703L35.001,48.205L34.576,47.127L34.684,46.366L33.709,45.833L33.576,44.808L32.654,43.868L32.637,43.191L33.061,42.55L33.04,41.699L31.744,40.826L30.965,39.225L30.489,38.191L29.791,37.531L29.277,36.924L28.873,36.147L28.108,36.635L27.366,37.466L26.689,36.487L26.157,35.824L25.415,35.4L24.664,35.355L24.668,25.711L24.673,18.188L26.095,18.715L27.295,19.749L28.089,19.944L28.758,19.053L29.681,18.374L30.814,18.64L31.955,17.674L33.203,17.117L33.726,18.04L34.295,17.522L34.465,16.46L34.992,16.703L36.28,18.694L37.295,17.197L37.398,18.87L38.335,18.513L38.622,17.872L39.545,17.999L40.711,18.917L42.495,19.704L43.544,20.064L44.29,19.927L45.318,20.989L44.246,22.005L45.624,22.438L47.681,22.2L48.33,21.846L49.143,23.05L49.972,22.036L49.194,21.169L49.686,20.458L50.614,20.361L51.223,20.151L51.839,20.652L52.604,21.771L53.456,21.608L54.802,22.521L55.985,22.201L57.097,22.25L57.009,20.979L57.687,20.615L58.868,21.318L58.863,23.224L59.348,21.623L59.961,21.678L60.306,19.581L59.49,18.246L58.6,17.351L58.661,14.809L59.562,13.06L60.567,13.453L61.339,14.515L62.374,17.123L61.698,18.215ZM59.86,49.919L59.996,50.558L60.233,50.754L60.765,50.824L61.543,51.008L62.282,51.363L62.9,51.214L63.837,51.511L64.086,51.5L64.768,51.176L65.483,51.591L66.229,52.029L66.846,52.404L67.437,52.762L67.511,53.055L67.691,53.164L67.644,53.274L67.848,53.308L67.997,53.193L68.035,53.455L68.188,53.63L68.398,53.63L68.509,53.764L68.415,53.959L69.209,54.47L69.372,55.446L69.524,56.367L69.302,56.986L68.943,57.556L68.776,57.916L68.759,58.023L68.845,58.17L69.103,58.331L69.295,58.331L70.18,57.784L70.965,57.622L71.962,57.107L71.977,57.001L71.908,56.683L71.785,56.477L72.129,56.31L72.878,56.306L73.577,56.306L73.821,55.894L73.916,55.812L74.722,55.043L75.066,54.845L76.224,54.837L77.628,54.837L77.704,54.57L77.948,54.515L78.272,54.348L78.543,53.851L78.775,52.993L79.357,52.148L79.61,52.444L80.121,52.253L80.459,52.577L80.459,54.083L80.957,54.697L81.089,55.05L80.275,55.568L79.492,55.935L78.687,56.248L78.283,56.871L78.154,57.105L78.146,57.654L78.398,58.198L78.714,58.224L78.634,57.85L78.863,58.078L78.802,58.37L78.287,58.535L77.921,58.515L77.358,58.692L77.026,58.743L76.583,58.793L75.948,59.086L77.067,58.895L77.293,59.087L76.226,59.389L75.74,59.391L75.763,59.267L75.531,59.546L75.755,59.592L75.591,60.307L75.036,61.065L74.979,60.813L74.812,60.762L74.562,60.516L74.721,61.045L74.91,61.22L74.921,61.588L74.677,61.965L74.248,62.734L74.178,62.696L74.414,62.041L74.025,61.671L73.936,60.859L73.789,61.283L73.951,61.9L73.448,61.748L73.972,62.059L74.005,62.973L74.224,63.039L74.303,63.368L74.41,64.311L73.925,65.003L73.137,65.278L72.636,65.818L72.255,65.877L71.87,66.214L71.761,66.52L70.924,67.109L70.494,67.538L70.135,68.069L70.018,68.701L70.152,69.315L70.407,70.065L70.745,70.681L70.75,71.055L71.111,72.051L71.087,72.625L71.053,72.955L70.863,73.471L70.635,73.577L70.26,73.475L70.14,73.105L69.85,72.91L69.446,72.179L69.092,71.524L68.978,71.187L69.134,70.613L68.921,70.135L68.326,69.402L68.029,69.267L67.26,69.666L67.124,69.622L66.754,69.212L66.276,68.993L65.414,69.104L64.738,69.007L64.157,69.068L63.842,69.205L63.979,69.439L63.967,69.795L64.128,69.968L63.983,70.083L63.7,69.954L63.414,70.119L62.861,70.092L62.292,69.63L61.627,69.739L61.073,69.536L60.599,69.598L59.958,69.803L59.264,70.449L58.506,70.823L58.09,71.236L57.915,71.623L57.907,72.213L57.946,72.622L58.09,72.91L57.793,72.936L57.252,72.749L56.658,72.486L56.444,72.085L56.276,71.485L55.827,70.994L55.563,70.486L55.181,69.889L54.644,69.54L54.02,69.557L53.54,70.248L52.908,69.986L52.514,69.722L52.324,69.239L52.071,68.778L51.619,68.387L51.229,68.105L50.951,67.788L49.63,67.788L49.629,68.157L49.025,68.157L47.509,68.163L45.77,67.532L44.619,67.094L44.691,66.917L43.723,67.015L42.857,67.085L42.728,66.622L42.235,66.097L41.879,65.988L41.796,65.724L41.368,65.678L41.095,65.429L40.387,65.338L40.193,65.189L40.1,64.679L39.361,63.737L38.726,62.412L38.753,62.189L38.417,61.87L37.827,61.054L37.722,60.25L37.316,59.706L37.483,58.873L37.456,57.999L37.213,57.208L37.511,56.222L37.603,55.258L37.696,54.279L37.558,52.802L37.317,51.84L37.095,51.312L37.188,51.088L38.29,51.477L38.696,52.543L38.884,52.247L38.762,51.317L38.503,50.372L40.668,50.372L42.93,50.372L43.679,50.372L46.003,50.372L48.251,50.372L50.537,50.372L52.825,50.372L55.415,50.372L58.023,50.371L59.6,50.372L59.602,49.924ZM58.09,72.91L57.795,73.651L57.661,74.255L57.606,75.369L57.532,75.772L57.664,76.221L57.901,76.621L58.053,77.254L58.559,77.859L58.737,78.321L59.035,78.718L59.844,78.931L60.159,79.267L60.828,79.043L61.409,78.962L61.979,78.817L62.459,78.679L62.944,78.35L63.125,77.878L63.188,77.196L63.32,76.957L63.836,76.743L64.642,76.554L65.317,76.582L65.779,76.513L65.962,76.686L65.936,77.08L65.526,77.564L65.345,78.057L65.486,78.198L65.372,78.547L65.181,79.175L64.987,78.969L64.828,78.982L64.683,78.992L64.41,79.477L64.272,79.382L64.179,79.419L64.185,79.537L63.48,79.528L62.769,79.529L62.768,79.979L62.424,79.981L62.708,80.247L62.99,80.431L63.074,80.604L63.198,80.652L63.178,80.922L62.2,80.924L61.833,81.57L61.941,81.717L61.853,81.902L61.834,82.132L60.972,81.282L60.579,81.025L59.956,80.818L59.531,80.875L58.919,81.174L58.534,81.252L57.996,81.043L57.425,80.892L56.713,80.528L56.141,80.416L55.278,80.046L54.641,79.664L54.448,79.45L54.022,79.403L53.242,79.149L52.925,78.782L52.106,78.324L51.724,77.814L51.542,77.418L51.797,77.339L51.718,77.107L51.894,76.895L51.897,76.612L51.64,76.244L51.571,75.917L51.316,75.5L50.644,74.676L49.878,74.023L49.507,73.499L48.853,73.155L48.713,72.948L48.829,72.424L48.44,72.225L47.991,71.81L47.801,71.21L47.391,71.14L46.948,70.684L46.591,70.262L46.558,69.989L46.148,69.328L45.878,68.651L45.889,68.309L45.338,67.955L45.084,67.994L44.649,67.748L44.527,68.111L44.653,68.538L44.727,69.203L44.988,69.565L45.554,70.168L45.679,70.373L45.795,70.435L45.896,70.733L46.031,70.721L46.184,71.279L46.416,71.498L46.578,71.801L47.057,72.236L47.31,73.027L47.536,73.396L47.748,73.791L47.79,74.233L48.157,74.26L48.463,74.639L48.739,75.011L48.721,75.159L48.4,75.463L48.265,75.459L48.064,74.956L47.565,74.481L47.016,74.077L46.626,73.864L46.651,73.248L46.536,72.79L46.172,72.527L45.648,72.146L45.548,72.256L45.356,72.034L44.886,71.827L44.436,71.328L44.492,71.263L44.806,71.312L45.089,70.99L45.117,70.599L44.53,69.978L44.083,69.736L43.802,69.187L43.519,68.607L43.166,67.894L42.857,67.085L43.723,67.015L44.691,66.917L44.619,67.094L45.77,67.532L47.509,68.163L49.025,68.157L49.629,68.157L49.63,67.788L50.951,67.788L51.229,68.105L51.619,68.387L52.071,68.778L52.324,69.239L52.514,69.722L52.908,69.986L53.54,70.248L54.02,69.557L54.644,69.54L55.181,69.889L55.563,70.486L55.827,70.994L56.276,71.485L56.444,72.085L56.658,72.486L57.252,72.749L57.793,72.936ZM13.941,14.92L14.492,15.973L14.831,15.524L16.119,15.664L16.073,16.194L17.239,16.583L18.016,16.355L19.622,17.072L21.088,17.283L21.675,17.573L22.689,17.21L23.845,17.88L24.673,18.188L24.668,25.711L24.664,35.355L25.415,35.4L26.157,35.824L26.689,36.487L27.366,37.466L28.108,36.635L28.873,36.147L29.277,36.924L29.791,37.531L30.489,38.191L30.965,39.225L31.744,40.826L33.04,41.699L33.061,42.55L32.637,43.192L32.218,42.692L31.547,42.264L31.331,41.078L30.349,39.952L29.938,38.608L29.206,38.514L27.994,38.479L27.101,38.061L25.525,36.524L24.796,36.238L23.462,35.695L22.407,35.825L20.908,35.12L20.002,34.457L19.156,34.788L19.314,35.857L18.892,35.955L18.01,36.271L17.339,36.778L16.495,37.095L16.386,36.211L16.729,34.706L17.539,34.224L17.33,33.827L16.358,34.703L15.838,35.73L14.74,36.805L15.297,37.526L14.577,38.574L13.758,39.175L12.995,39.608L12.806,40.231L11.616,40.949L11.376,41.592L10.484,42.172L9.961,42.068L9.249,42.443L8.476,42.898L7.842,43.341L6.534,43.716L6.415,43.495L7.248,42.878L7.994,42.466L8.806,41.727L9.752,41.573L10.128,41.011L11.184,40.18L11.354,39.899L11.917,39.4L12.049,38.31L12.436,37.446L11.557,37.891L11.312,37.639L10.899,38.171L10.401,37.427L10.196,37.955L9.911,37.221L9.149,37.811L8.681,37.81L8.615,36.929L8.753,36.38L8.262,35.84L7.271,36.131L6.628,35.415L6.107,35.045L6.103,34.16L5.516,33.484L5.811,32.557L6.432,31.64L6.704,30.782L7.321,30.658L7.844,30.928L8.459,30.11L9.012,30.257L9.593,29.725L9.451,28.931L9.024,28.614L9.589,27.929L9.121,27.949L8.312,28.337L8.08,28.728L7.479,28.338L6.401,28.536L5.284,28.111L4.965,27.389L4,26.326L5.071,25.545L6.771,24.618L7.398,24.618L7.294,25.566L8.903,25.493L8.284,24.313L7.346,23.572L6.804,22.582L6.073,21.721L5.026,21.072L5.453,19.976L6.805,19.907L7.767,18.932L7.948,17.866L8.727,16.802L9.469,16.542L10.914,15.52L11.615,15.676L12.787,14.422ZM66.152,9.917L66.753,11.528L67.457,9.434L69.389,8.329L70.696,11.063L70.583,12.712L72.091,11.988L72.812,10.978L74.503,12.26L75.552,13.436L75.651,14.486L77.066,13.945L77.861,15.454L79.7,16.366L80.364,17.278L81.085,19.33L79.686,20.319L81.481,21.671L82.691,22.117L83.786,23.939L84.985,24.068L84.748,25.41L83.41,27.552L82.473,26.775L81.274,24.978L80.288,25.216L80.192,26.289L80.993,27.353L82.028,28.179L82.342,28.65L82.838,30.364L82.575,31.572L81.614,31.12L79.703,29.76L80.78,31.223L81.574,32.222L81.698,32.791L79.631,32.14L77.995,31.178L77.072,30.356L77.338,29.873L76.2,28.981L75.091,28.125L75.103,28.639L72.899,28.919L72.254,28.313L72.756,26.988L74.188,26.956L75.757,26.722L75.503,26.063L75.769,25.126L76.755,23.241L76.545,22.36L76.251,21.666L75.084,20.665L73.54,19.951L74.028,19.412L73.221,18.062L72.549,17.936L71.948,17.178L71.541,17.836L70.159,18.12L67.385,17.625L65.773,16.968L64.537,16.627L63.903,15.821L64.7,14.754L63.617,14.743L63.376,12.281L63.962,9.991L64.745,8.905L66.713,8.184ZM45.113,10.012L44.733,11.226L46.429,10.446L47.489,11.74L48.35,10.431L49.046,11.275L49.67,13.718L50.053,12.703L49.511,10.096L50.182,9.71L50.939,10.131L51.793,11.175L52.271,13.603L52.508,15.284L53.788,16.428L55.163,17.497L55.08,18.468L53.829,18.643L54.315,19.473L54.058,20.25L52.679,19.919L51.368,19.343L50.482,19.473L49.051,20.193L47.12,20.508L45.764,20.705L45.351,19.712L44.311,19.128L43.634,19.369L42.695,17.64L43.202,17.402L44.378,17.019L45.453,17.12L46.448,16.727L44.974,16.194L43.345,16.376L42.264,16.331L41.862,15.479L43.63,14.538L42.454,14.571L41.123,13.941L41.763,12.099L42.294,11.09L44.334,9.502ZM66.8,84.829L66.536,84.584L66.18,84.27L66.012,84.008L65.691,83.762L65.309,83.41L65.394,83.289L65.52,83.406L65.577,83.351L65.814,83.319L65.91,83.14L66.021,83.133L66.005,82.748L66.184,82.729L66.343,82.735L66.507,82.525L66.732,82.684L66.81,82.587L66.951,82.493L67.217,82.277L67.23,82.115L67.303,82.122L67.4,81.933L67.48,81.91L67.61,82.031L67.763,82.066L67.931,81.966L68.124,81.966L68.388,81.863L68.494,81.755L68.755,81.771L68.689,81.847L68.651,82.023L68.728,82.311L68.553,82.579L68.471,82.895L68.446,83.24L68.487,83.441L68.506,83.793L68.39,83.87L68.319,84.203L68.371,84.409L68.215,84.608L68.251,84.818L68.368,84.945L68.185,85.11L67.96,85.058L67.834,84.898L67.592,84.833L67.417,84.935L66.915,84.729ZM89.343,48.378L88.839,49.421L89.336,49.02L89.848,49.275L89.581,49.686L90.257,50.007L90.609,49.722L91.369,50.082L91.133,50.931L91.666,50.734L91.763,51.343L92,52.049L91.679,53.034L91.334,53.076L90.833,52.866L90.999,51.948L90.786,51.804L89.902,52.779L89.447,52.74L89.986,52.214L89.254,51.94L88.435,52.007L86.956,51.973L86.839,51.637L87.314,51.235L86.982,50.924L87.622,50.226L88.41,48.341L88.882,47.651L89.544,47.23L89.897,47.283L89.75,47.615ZM69.425,75.157L70.083,75.216L70.682,75.225L71.398,75.507L71.701,75.809L72.413,75.716L72.683,75.91L73.329,76.419L73.803,76.788L74.054,76.777L74.509,76.944L74.453,77.173L75.015,77.207L75.591,77.54L75.501,77.73L74.994,77.833L74.481,77.873L73.956,77.809L72.864,77.888L73.375,77.435L73.065,77.224L72.573,77.169L72.31,76.934L72.129,76.468L71.699,76.5L70.988,76.28L70.759,76.108L69.766,75.98L69.5,75.819L69.786,75.613L69.038,75.571L68.49,75.999L68.175,76.011L68.065,76.212L67.688,76.301L67.362,76.224L67.764,75.969L67.93,75.672L68.274,75.488L68.663,75.327L69.24,75.248ZM65.577,83.351L65.446,83.106L65.214,83.038L65.267,82.724L65.164,82.639L65.007,82.583L64.672,82.677L64.644,82.571L64.414,82.445L64.25,82.288L64.025,82.222L64.183,82.022L64.123,81.867L64.176,81.716L64.538,81.495L64.885,81.193L64.964,81.224L65.131,81.085L65.349,81.073L65.42,81.138L65.538,81.099L65.892,81.17L66.245,81.149L66.49,81.062L66.579,80.973L66.822,81.014L67.005,81.068L67.204,81.049L67.355,80.98L67.703,81.09L67.824,81.108L68.057,81.256L68.277,81.433L68.554,81.554L68.755,81.771L68.494,81.755L68.388,81.863L68.124,81.966L67.931,81.966L67.763,82.066L67.61,82.031L67.48,81.91L67.4,81.933L67.303,82.122L67.23,82.115L67.217,82.277L66.951,82.493L66.81,82.587L66.732,82.684L66.507,82.525L66.343,82.735L66.184,82.729L66.005,82.748L66.021,83.133L65.91,83.14L65.814,83.319ZM63.459,82.763L63.068,82.626L62.593,82.612L62.244,82.456L61.834,82.132L61.853,81.902L61.941,81.717L61.833,81.57L62.2,80.924L63.178,80.922L63.198,80.652L63.074,80.604L62.99,80.431L62.708,80.247L62.424,79.981L62.768,79.979L62.769,79.529L63.48,79.528L64.185,79.537L64.179,80.17L64.12,81.067L64.347,81.067L64.596,81.21L64.661,81.092L64.885,81.193L64.538,81.495L64.176,81.716L64.123,81.867L64.183,82.022L64.025,82.222L63.847,82.27L63.887,82.363L63.744,82.45L63.483,82.648ZM72.768,87.813L72.514,87.591L72.351,87.176L72.539,86.97L72.346,86.918L72.204,86.663L71.824,86.449L71.491,86.498L71.336,86.766L71.028,86.96L70.862,86.986L70.787,87.147L71.151,87.564L70.943,87.662L70.833,87.776L70.478,87.816L70.346,87.356L70.247,87.487L69.996,87.442L69.842,87.132L69.529,87.081L69.331,86.991L69.004,86.992L68.981,87.159L68.893,87.043L68.933,86.89L68.997,86.734L68.967,86.594L69.081,86.503L68.923,86.388L68.918,86.077L69.213,86.008L69.487,86.285L69.471,86.449L69.775,86.484L69.847,86.421L70.057,86.61L70.432,86.555L70.756,86.36L71.219,86.204L71.479,85.973L71.9,86.019L71.871,86.095L72.296,86.121L72.635,86.254L72.884,86.487L73.171,86.7L73.078,86.812L73.255,87.266L73.112,87.495L72.866,87.439ZM68.893,87.043L68.48,86.872L68.325,86.71L68.413,86.576L68.385,86.406L68.174,86.221L67.874,86.069L67.611,85.97L67.561,85.744L67.361,85.606L67.41,85.831L67.258,86.015L67.084,85.801L66.839,85.724L66.735,85.568L66.74,85.333L66.84,85.088L66.625,84.979L66.8,84.829L66.915,84.729L67.417,84.935L67.592,84.833L67.834,84.898L67.96,85.058L68.185,85.11L68.368,84.945L68.561,85.367L68.855,85.678L69.213,86.008L68.918,86.077L68.923,86.388L69.081,86.503L68.967,86.594L68.997,86.734L68.933,86.89ZM77.47,78.002L77.565,77.864L78.16,77.868L78.612,78.076L78.813,78.056L78.951,78.343L79.368,78.327L79.344,78.567L79.683,78.596L80.057,78.892L79.774,79.219L79.412,79.044L79.062,79.078L78.811,79.04L78.674,79.186L78.381,79.235L78.265,79.041L78.013,79.156L77.708,79.705L77.512,79.577L77.473,79.347L77.489,79.129L77.293,78.888L77.479,78.752L77.537,78.442ZM67.22,26.349L67.361,27.155L67.751,26.874L68.195,27.351L69.029,27.968L69.902,28.522L69.97,29.355L70.531,29.22L71.075,29.794L70.398,30.333L69.212,29.922L68.784,29.142L68.029,30.062L66.944,30.94L66.682,29.946L65.649,30.111L66.312,29.258L66.409,27.868L66.669,26.198ZM37.992,50.939L37.609,51.099L36.358,50.575L36.129,50.163L35.447,49.753L35.31,49.418L34.525,49.205L34.232,48.556L34.297,48.277L35.097,48.54L35.565,48.721L36.281,48.848L36.541,49.258L36.917,49.817L37.678,50.3ZM76.344,77.839L76.809,77.875L77.47,78.002L77.537,78.442L77.479,78.752L77.293,78.888L77.489,79.129L77.473,79.347L76.967,79.211L76.607,79.266L76.142,79.208L75.786,79.358L75.378,79.108L75.445,78.849L76.146,78.961L76.721,79.025L76.996,78.846L76.648,78.498L76.653,78.189L76.172,78.063ZM64.185,79.537L64.179,79.419L64.272,79.382L64.41,79.477L64.683,78.992L64.828,78.982L64.831,79.1L64.975,79.103L64.962,79.322L64.839,79.668L64.906,79.792L64.826,80.077L64.874,80.154L64.786,80.556L64.636,80.767L64.498,80.792L64.347,81.067L64.12,81.067L64.179,80.17ZM65.214,83.038L65.13,83.223L64.688,83.211L64.414,83.136L64.099,82.98L63.675,82.932L63.459,82.763L63.483,82.648L63.744,82.45L63.887,82.363L63.847,82.27L64.025,82.222L64.25,82.288L64.414,82.445L64.644,82.571L64.672,82.677L65.007,82.583L65.164,82.639L65.267,82.724ZM59.228,19.498L58.754,20.242L57.727,19.6L57.106,19.832L56.065,18.869L56.736,18.193L57.269,17.23L58.077,17.862L58.534,18.259L58.763,18.674ZM73.006,78.99L73.519,79.062L73.924,79.254L74.05,79.474L73.514,79.489L73.283,79.622L72.856,79.494L72.421,79.202L72.512,79.018L72.832,78.962ZM15.512,40.041L14.751,40.573L14.361,40.214L14.243,39.554L14.935,39.048L15.342,38.829L15.848,38.926L16.171,39.37Z"/>
</svg>
