<?xml version="1.0" encoding="UTF-8"?>
<svg xmlns="http://www.w3.org/2000/svg" viewBox="0 0 96 96">
  <path fill="#334155" fill-rule="evenodd" d="M43.898,29.809L44.373,30.878L45.22,30.364L45.657,30.941L46.291,31.474L46.155,32.08L46.437,33.257L46.637,33.944L46.97,34.113L47.328,35.295L47.2,36.014L47.628,36.959L49.058,37.69L49.991,38.356L50.876,38.968L50.704,39.31L51.459,40.196L51.972,41.734L52.499,41.421L53.034,42.04L53.357,41.82L53.584,43.339L54.521,44.225L55.134,44.777L56.166,45.955L56.537,47.133L56.571,47.973L56.48,48.889L57.109,50.156L57.033,51.486L56.805,52.187L56.448,53.545L56.475,54.425L56.214,55.532L55.631,56.95L54.653,57.721L54.171,58.947L53.731,59.734L53.339,61.121L52.83,61.928L52.496,63.15L52.326,64.285L52.393,64.81L51.636,65.389L50.159,65.449L48.94,66.137L48.334,66.789L47.536,67.517L46.443,66.768L45.634,66.47L45.839,65.595L45.117,65.912L43.961,67.133L42.82,66.674L42.071,66.407L41.316,66.287L40.039,65.801L39.185,64.773L38.94,63.517L38.633,62.689L37.985,62.027L36.715,61.832L37.149,61.046L36.829,59.853L36.185,60.965L35.01,61.262L35.7,60.37L35.9,59.447L36.41,58.668L36.305,57.499L35.231,58.846L34.406,59.39L33.901,60.664L32.87,60.004L32.911,59.156L32.085,58.007L31.388,57.417L31.636,57.055L29.943,56.108L29.015,56.064L27.745,55.308L25.382,55.455L23.672,56.011L22.17,56.531L20.91,56.427L19.511,57.23L18.366,57.592L18.112,58.42L17.624,59.064L16.504,59.103L15.675,59.245L14.508,58.955L13.559,59.128L12.653,59.201L11.868,60.053L11.483,59.98L10.821,60.434L10.186,60.945L9.223,60.882L8.338,60.882L6.938,59.856L6.228,59.552L6.257,58.641L6.912,58.425L7.136,58.065L7.09,57.499L7.251,56.41L7.103,55.489L6.405,53.93L6.189,53.057L6.246,52.191L5.72,51.207L5.687,50.765L5.102,50.168L4.937,49L4.183,47.828L4,47.199L4.58,47.836L4.135,46.473L4.789,46.898L5.18,47.467L5.158,46.714L4.505,45.564L4.378,45.106L4.072,44.671L4.215,43.835L4.486,43.48L4.666,42.761L4.525,41.924L5.07,40.899L5.17,41.984L5.728,41.004L6.8,40.529L7.443,39.924L8.452,39.406L9.053,39.296L9.416,39.47L10.456,38.944L11.257,38.788L11.457,38.48L11.807,38.352L12.536,38.385L13.924,37.974L14.641,37.352L14.978,36.606L15.753,35.9L15.812,35.346L15.846,34.593L16.77,33.421L17.326,34.612L17.888,34.337L17.418,33.685L17.832,33.017L18.415,33.315L18.575,32.27L19.296,31.597L19.615,31.058L20.278,30.826L20.299,30.445L20.879,30.604L20.903,30.261L21.483,30.067L22.121,29.883L23.096,30.508L23.829,31.316L24.655,31.325L25.495,31.453L25.215,30.704L25.847,29.613L26.443,29.258L26.237,28.919L26.81,28.146L27.61,27.669L28.285,27.829L29.394,27.575L29.37,26.886L28.403,26.442L29.106,26.247L29.981,26.58L30.682,27.133L31.794,27.478L32.171,27.342L32.989,27.757L33.76,27.37L34.256,27.488L34.565,27.228L35.171,27.896L34.82,28.62L34.318,29.168L33.865,29.213L34.018,29.756L33.63,30.436L33.161,31.106L33.255,31.491L34.305,32.247L35.321,32.687L36.002,33.16L36.956,33.976L37.328,33.974L38.019,34.328L38.219,34.755L39.48,35.224L40.351,34.751L40.61,34.009L40.877,33.399L41.041,32.645L41.443,31.556L41.259,30.895L41.355,30.499L41.202,29.72L41.375,28.698L41.628,28.423L41.423,27.972L41.742,27.256L41.992,26.515L42.025,26.131L42.516,25.628L42.888,26.286L42.98,27.131L43.309,27.294L43.365,27.861L43.845,28.549L43.944,29.316ZM48.69,21.243L49.868,22.117L50.726,23.533L51.482,23.488L51.429,24.081L52.448,24.308L52.052,24.561L53.455,25.125L53.308,25.513L52.434,25.607L52.109,25.259L50.975,25.108L49.642,24.906L48.615,24.051L47.866,23.316L47.18,22.148L45.458,21.565L44.34,21.945L43.534,22.385L43.702,23.37L42.665,23.83L41.926,23.606L40.56,23.55L40.538,19.211L40.516,14.896L42.806,15.807L45.247,16.564L46.157,17.242L46.892,17.908L47.092,18.689L49.292,19.509L49.613,20.213L48.398,20.356ZM82.786,70.761L83.086,71.485L84.024,70.775L84.406,71.515L84.407,72.258L83.916,73.08L83.053,74.402L82.378,75.13L82.865,76.007L81.846,76.03L80.717,76.722L80.363,77.935L79.613,79.837L78.576,80.689L77.917,81.236L76.702,81.195L75.847,80.563L74.412,80.429L74.191,79.731L74.9,78.334L76.56,76.504L77.412,76.158L78.36,75.463L79.492,74.513L80.284,73.58L80.871,72.253L81.371,71.806L81.567,70.826L82.493,70.021ZM84.887,62.718L85.844,64.451L85.872,63.324L86.467,63.773L86.665,65.026L87.727,65.57L88.619,65.704L89.373,65.067L90.042,65.26L89.722,66.749L89.321,67.739L88.313,67.704L87.96,68.222L88.083,68.96L87.889,69.28L87.39,70.214L86.736,71.41L85.716,72.113L85.489,71.65L84.939,71.397L85.7,69.961L85.268,69.01L83.847,68.323L83.884,67.705L84.838,67.113L85.061,65.815L84.999,64.736L84.465,63.628L84.5,63.338L83.869,62.662L82.831,61.224L82.279,60.084L82.769,59.959L83.487,60.851L84.514,61.27ZM46.321,70.54L47.597,71.144L48.316,70.904L49.346,70.568L50.138,70.685L50.232,72.776L49.779,73.391L49.643,74.838L49.182,74.344L48.265,75.607L47.992,75.509L47.18,75.453L46.366,73.905L46.186,72.725L45.424,71.187L45.458,70.386ZM55.014,18.705L54.323,18.814L54.115,19.186L53.393,19.509L52.715,19.82L52.014,19.818L50.931,19.432L50.177,19.062L50.287,18.652L51.47,18.845L52.193,18.742L52.392,18.106L52.581,18.073L52.709,18.777L53.463,18.676L53.835,18.222L54.572,17.75L54.427,16.969L55.217,16.944L55.484,17.162L55.458,17.896ZM73.228,39.94L74.31,40.819L74.997,41.474L74.495,41.816L73.769,41.431L72.825,40.79L71.974,40.039L71.1,39.044L70.917,38.566L71.485,38.587L72.225,39.065L72.806,39.545ZM56.542,17.409L56.129,17.762L55.88,16.98L55.573,16.469L54.975,16.036L54.224,15.472L53.271,15.083L53.638,14.764L54.35,15.134L54.799,15.425L55.354,15.742L55.882,16.297L56.383,16.721ZM89.853,34.711L90.308,35.11L90.089,35.834L89.271,36.025L88.543,35.854L88.416,35.243L88.925,34.768L89.526,34.939ZM60.159,20.487L59.789,20.62L59.218,20.11L58.64,19.266L58.356,18.256L58.538,18.128L58.68,18.522L59.08,18.823L59.72,19.664L60.344,20.115ZM91.161,33.967L90.317,34.258L90.148,33.744L90.807,33.461L91.226,33.385L92,32.957L92,33.628ZM65.433,22.508L65.489,22.776L64.454,22.21L63.731,21.731L63.236,21.288L63.433,21.152L64.04,21.472L65.123,22.085ZM66.723,24.561L66.208,24.591L65.399,24.455L65.123,24.249L65.206,23.718L66.077,23.928L66.507,24.209ZM67.816,24.195L67.617,24.442L66.638,23.283L66.363,22.485L66.812,22.485L67.288,23.553Z"/>
</svg>
