<?xml version="1.0" encoding="UTF-8"?>
<svg xmlns="http://www.w3.org/2000/svg" viewBox="0 0 96 96">
  <path fill="#334155" fill-rule="evenodd" d="M48.511,54.778L50.042,52.98L51.337,51.714L52.107,51.186L53.073,50.475L53.096,49.451L52.521,48.715L51.953,48.959L52.178,48.226L52.333,47.478L52.334,46.786L51.921,46.558L51.491,46.761L51.063,46.706L50.929,46.223L50.822,45.08L50.607,44.709L49.832,44.374L49.364,44.616L48.153,44.378L48.229,42.706L47.89,42.025L48.249,41.772L48.138,41.078L48.453,40.545L48.656,39.592L48.385,38.843L47.759,38.505L47.636,38.032L47.804,37.34L45.605,37.291L45.163,35.903L45.498,35.884L45.483,35.372L45.259,35.026L45.209,34.342L44.542,33.992L43.821,34.003L43.346,33.661L42.57,33.428L42.119,32.988L40.834,32.794L39.588,31.743L39.681,30.959L39.54,30.51L39.662,29.637L38.16,29.834L37.556,30.272L36.553,30.744L36.297,31.098L35.706,31.123L34.853,31.024L34.206,31.226L33.684,31.092L33.761,29.32L32.819,30.007L31.807,29.976L31.373,29.355L30.611,29.288L30.854,28.789L30.216,28.083L29.739,27.039L30.042,26.828L30.04,26.339L30.734,26.006L30.62,25.382L30.912,24.98L30.996,24.442L32.308,23.659L33.248,23.437L33.402,23.264L34.435,23.318L34.951,20.168L34.978,19.671L34.799,19.014L34.29,18.595L34.296,17.761L34.942,17.572L35.171,17.691L35.21,17.252L34.538,17.133L34.523,16.415L36.759,16.44L37.138,16.045L37.457,16.409L37.681,17.086L37.897,16.944L38.529,17.551L39.421,17.477L39.643,17.126L40.496,16.858L40.968,16.67L41.102,16.183L41.921,15.857L41.859,15.616L40.887,15.517L40.728,14.793L40.774,14.023L40.261,13.725L40.476,13.619L41.325,13.766L42.238,14.053L42.569,13.782L43.394,13.603L44.677,13.172L45.097,12.733L44.945,12.408L45.541,12.357L45.808,12.623L45.659,13.128L46.053,13.302L46.316,13.837L45.998,14.242L45.816,15.22L46.109,15.801L46.192,16.332L46.898,16.871L47.461,16.928L47.588,16.703L47.951,16.653L48.47,16.452L48.843,16.147L49.477,16.244L49.757,16.203L50.38,16.297L50.484,16.062L50.291,15.834L50.406,15.501L50.869,15.604L51.411,15.486L52.068,15.729L52.569,15.966L52.924,15.655L53.181,15.703L53.337,16.026L53.886,15.944L54.326,15.508L54.678,14.662L55.357,13.61L55.748,13.556L56.032,14.192L56.675,16.2L57.289,16.39L57.32,17.182L56.457,18.127L56.814,18.473L58.842,18.653L58.883,19.803L59.755,19.05L61.198,19.462L63.104,20.163L63.664,20.836L63.476,21.471L64.81,21.117L67.042,21.725L68.756,21.68L70.452,22.631L71.918,23.92L72.801,24.252L73.783,24.298L74.198,24.662L74.588,26.131L74.778,26.83L74.321,28.747L73.738,29.506L72.12,31.128L71.389,32.453L70.54,33.472L70.253,33.495L69.933,34.363L70.014,36.585L69.694,38.429L69.573,39.222L69.21,39.699L69.006,41.32L67.843,42.916L67.648,44.189L66.719,44.726L66.451,45.471L65.204,45.468L63.4,45.948L62.592,46.505L61.307,46.872L59.956,47.875L58.985,49.135L58.818,50.09L59.009,50.8L58.795,52.109L58.534,52.746L57.733,53.467L56.46,55.802L55.451,56.868L54.671,57.5L54.148,58.798L53.389,59.584L53.071,58.805L53.577,58.156L52.913,57.232L52.013,56.486L50.833,55.627L50.406,55.666L49.256,54.636ZM40.09,44.361L40.765,45.257L41.212,44.259L42.521,44.31L42.706,44.575L44.815,46.61L45.753,46.801L47.155,47.732L48.336,48.226L48.501,48.787L47.372,50.733L48.529,51.084L49.817,51.282L50.724,51.074L51.765,50.088L51.953,48.959L52.521,48.715L53.096,49.451L53.073,50.475L52.107,51.186L51.337,51.714L50.042,52.98L48.511,54.778L48.224,55.845L47.917,57.228L47.929,58.584L47.68,58.889L47.591,59.779L47.512,60.503L48.969,61.7L48.812,62.674L49.529,63.293L49.471,63.992L48.369,65.847L46.668,66.633L44.367,66.939L43.106,66.791L43.347,67.673L43.113,68.791L43.324,69.551L42.636,70.085L41.46,70.295L40.357,69.741L39.914,70.139L40.074,71.662L40.849,72.129L41.477,71.64L41.819,72.446L40.763,72.931L39.841,73.909L39.673,75.514L39.401,76.379L38.318,76.383L37.418,77.219L37.089,78.456L38.218,79.68L39.314,80.021L38.92,81.55L37.565,82.525L36.819,84.587L35.772,85.292L35.302,86.137L35.672,88.041L36.436,89.121L35.952,89.026L34.889,88.733L32.117,88.483L31.641,87.403L31.663,86.036L30.899,86.153L30.495,85.498L30.395,83.611L31.275,82.841L31.639,81.741L31.506,80.874L32.114,79.429L32.533,77.233L32.41,76.276L32.911,75.97L32.788,75.363L32.256,75.042L32.634,74.372L32.116,73.772L31.848,71.967L32.309,71.652L32.116,69.786L32.385,68.245L32.692,66.921L33.379,66.387L33.03,64.965L33.026,63.643L33.895,62.713L33.868,61.534L34.523,60.172L34.526,58.904L34.228,58.653L33.7,56.312L34.406,54.937L34.298,53.656L34.708,52.465L35.459,51.246L36.269,50.444L35.926,49.94L36.165,49.528L36.129,47.412L37.378,46.792L37.772,45.492L37.633,45.18L38.589,44.059ZM34.783,38.876L34.476,39.494L33.886,39.802L32.736,39.109L32.636,38.615L30.362,37.412L28.304,36.108L27.419,35.376L26.944,34.398L27.132,34.058L26.161,32.513L25.029,30.354L23.946,28.039L23.476,27.511L23.115,26.658L22.224,25.904L21.407,25.437L21.778,24.922L21.222,23.823L21.579,23.017L22.493,22.291L22.63,22.77L22.302,23.044L22.333,23.465L22.807,23.373L23.271,23.498L23.752,24.079L24.401,23.606L24.618,22.829L25.321,21.829L26.701,21.376L27.952,20.174L28.309,19.428L28.149,18.557L28.455,18.448L29.218,18.992L29.584,19.533L30.115,19.829L30.791,21.032L31.645,21.176L32.277,20.872L32.692,21.071L33.38,20.972L34.259,21.51L33.519,22.68L33.861,22.707L34.435,23.318L33.402,23.264L33.248,23.437L32.308,23.659L30.996,24.442L30.912,24.98L30.62,25.382L30.734,26.006L30.04,26.339L30.042,26.828L29.739,27.039L30.216,28.083L30.854,28.789L30.611,29.288L31.373,29.355L31.807,29.976L32.819,30.007L33.761,29.32L33.684,31.092L34.206,31.226L34.853,31.024L35.845,32.911L35.598,33.309L35.542,34.137L35.519,35.144L35.071,35.736L35.277,36.177L35.014,36.577L35.507,37.581ZM28.149,18.557L27.658,18.285L27.094,17.905L26.768,18.088L25.795,17.929L25.515,17.435L25.301,17.453L24.154,16.798L23.998,16.442L24.426,16.356L24.376,15.781L24.645,15.365L25.214,15.288L25.697,14.566L26.136,13.963L25.713,13.689L25.93,13.021L25.671,11.967L25.917,11.665L25.736,10.688L25.271,10.073L25.418,9.51L25.788,9.593L26.004,9.249L25.738,8.566L25.877,8.397L26.47,8.434L27.331,7.623L27.803,7.499L27.814,7.114L28.026,6.129L28.684,5.587L29.407,5.565L29.498,5.321L30.396,5.419L31.299,4.828L31.746,4.565L32.301,4L32.707,4.072L33.008,4.381L32.786,4.776L32.049,4.972L31.758,5.557L31.314,5.892L30.98,6.326L30.84,7.158L30.522,7.838L31.114,7.915L31.261,8.449L31.514,8.705L31.605,9.171L31.469,9.6L31.509,9.841L31.791,9.938L32.065,10.341L33.54,10.23L34.206,10.377L35.014,11.371L35.478,11.248L36.304,11.309L36.958,11.178L37.364,11.376L37.157,11.997L36.901,12.384L36.811,13.21L37.042,13.974L37.368,14.316L37.407,14.573L36.826,15.145L37.242,15.398L37.547,15.8L37.897,16.944L37.681,17.086L37.457,16.409L37.138,16.045L36.759,16.44L34.523,16.415L34.538,17.133L35.21,17.252L35.171,17.691L34.942,17.572L34.296,17.761L34.29,18.595L34.799,19.014L34.978,19.671L34.951,20.168L34.435,23.318L33.861,22.707L33.519,22.68L34.259,21.51L33.38,20.972L32.692,21.071L32.277,20.872L31.645,21.176L30.791,21.032L30.115,19.829L29.584,19.533L29.218,18.992L28.455,18.448ZM42.521,44.31L41.212,44.259L40.765,45.257L40.09,44.361L38.589,44.059L37.633,45.18L36.805,45.35L36.356,43.642L35.739,42.264L36.101,41.084L35.499,40.57L35.346,39.696L34.783,38.876L35.507,37.581L35.014,36.577L35.277,36.177L35.071,35.736L35.519,35.144L35.542,34.137L35.598,33.309L35.845,32.911L34.853,31.024L35.706,31.123L36.297,31.098L36.553,30.744L37.556,30.272L38.16,29.834L39.662,29.637L39.54,30.51L39.681,30.959L39.588,31.743L40.834,32.794L42.119,32.988L42.57,33.428L43.346,33.661L43.821,34.003L44.542,33.992L45.209,34.342L45.259,35.026L45.483,35.372L45.498,35.884L45.163,35.903L45.605,37.291L47.804,37.34L47.636,38.032L47.759,38.505L48.385,38.843L48.656,39.592L48.453,40.545L48.138,41.078L48.249,41.772L47.89,42.025L47.87,41.648L46.802,41.025L45.736,41.008L43.737,41.362L43.187,42.437L43.158,43.097L42.706,44.575ZM32.786,4.776L32.753,5.052L32.08,5.189L32.454,5.72L32.44,6.33L31.934,7.007L32.368,7.93L32.863,7.855L33.12,7.014L32.765,6.604L32.707,5.72L34.135,5.245L33.976,4.693L34.379,4.323L34.79,5.147L35.595,5.166L36.34,5.818L36.385,6.204L37.415,6.215L38.641,6.095L39.298,6.617L40.176,6.761L40.819,6.397L40.832,6.103L42.253,6.033L43.628,6.016L42.654,6.361L43.046,6.911L43.964,6.999L44.833,7.571L45.016,8.502L45.614,8.475L46.064,8.749L45.155,9.43L45.054,9.852L45.447,10.281L45.162,10.497L44.456,10.683L44.479,11.216L44.168,11.533L44.945,12.408L45.097,12.733L44.677,13.172L43.394,13.603L42.569,13.782L42.238,14.053L41.325,13.766L40.476,13.619L40.261,13.725L40.774,14.023L40.728,14.793L40.887,15.517L41.859,15.616L41.921,15.857L41.102,16.183L40.968,16.67L40.496,16.858L39.643,17.126L39.421,17.477L38.529,17.551L37.897,16.944L37.547,15.8L37.242,15.398L36.826,15.145L37.407,14.573L37.368,14.316L37.042,13.974L36.811,13.21L36.901,12.384L37.157,11.997L37.364,11.376L36.958,11.178L36.304,11.309L35.478,11.248L35.014,11.371L34.206,10.377L33.54,10.23L32.065,10.341L31.791,9.938L31.509,9.841L31.469,9.6L31.605,9.171L31.514,8.705L31.261,8.449L31.114,7.915L30.522,7.838L30.84,7.158L30.98,6.326L31.314,5.892L31.758,5.557L32.049,4.972ZM36.356,43.642L36.805,45.35L37.633,45.18L37.772,45.492L37.378,46.792L36.129,47.412L36.165,49.528L35.926,49.94L36.269,50.444L35.459,51.246L34.708,52.465L34.298,53.656L34.406,54.937L33.7,56.312L34.228,58.653L34.526,58.904L34.523,60.172L33.868,61.534L33.895,62.713L33.026,63.643L33.03,64.965L33.379,66.387L32.692,66.921L32.385,68.245L32.116,69.786L32.309,71.652L31.848,71.967L32.116,73.772L32.634,74.372L32.256,75.042L32.788,75.363L32.911,75.97L32.41,76.276L32.533,77.233L32.114,79.429L31.506,80.874L31.639,81.741L31.275,82.841L30.395,83.611L30.495,85.498L30.899,86.153L31.663,86.036L31.641,87.403L32.117,88.483L34.889,88.733L35.952,89.026L34.932,89.012L34.379,89.475L33.344,90.159L33.159,91.955L32.673,92L31.379,91.37L30.065,90.037L30.065,90.037L28.638,88.957L28.279,87.778L28.604,86.702L28.027,85.497L27.879,82.484L28.367,80.829L29.579,79.521L27.838,79.032L28.93,77.567L29.321,74.875L30.596,75.439L31.195,72.166L30.425,71.754L30.067,73.704L29.343,73.482L29.704,71.256L30.095,68.445L30.622,67.428L30.292,65.992L30.197,64.358L30.68,64.311L31.384,62.011L32.178,59.778L32.663,57.736L32.399,55.716L32.742,54.618L32.604,52.991L33.275,51.401L33.482,48.917L33.85,46.294L34.209,43.518L34.125,41.512L33.886,39.802L34.476,39.494L34.783,38.876L35.346,39.696L35.499,40.57L36.101,41.084L35.739,42.264ZM42.706,44.575L43.158,43.097L43.187,42.437L43.737,41.362L45.736,41.008L46.802,41.025L47.87,41.648L47.89,42.025L48.229,42.706L48.153,44.378L49.364,44.616L49.832,44.374L50.607,44.709L50.822,45.08L50.929,46.223L51.063,46.706L51.491,46.761L51.921,46.558L52.334,46.786L52.333,47.478L52.178,48.226L51.953,48.959L51.765,50.088L50.724,51.074L49.817,51.282L48.529,51.084L47.372,50.733L48.501,48.787L48.336,48.226L47.155,47.732L45.753,46.801L44.815,46.61ZM22.493,22.291L23.104,21.433L22.856,20.931L22.418,21.464L21.73,20.961L21.963,20.637L21.769,19.596L22.171,19.423L22.382,18.708L22.817,17.969L22.737,17.501L23.365,17.255L24.154,16.798L25.301,17.453L25.515,17.435L25.795,17.929L26.768,18.088L27.094,17.905L27.658,18.285L28.149,18.557L28.309,19.428L27.952,20.174L26.701,21.376L25.321,21.829L24.618,22.829L24.401,23.606L23.752,24.079L23.271,23.498L22.807,23.373L22.333,23.465L22.302,23.044L22.63,22.77ZM46.064,8.749L46.817,9.175L47.527,9.929L47.559,10.525L47.991,10.552L48.606,11.115L49.059,11.517L48.876,12.554L48.179,12.855L48.241,13.126L48.03,13.72L48.538,14.555L48.905,14.556L49.056,15.205L49.757,16.203L49.477,16.244L48.843,16.147L48.47,16.452L47.951,16.653L47.588,16.703L47.461,16.928L46.898,16.871L46.192,16.332L46.109,15.801L45.816,15.22L45.998,14.242L46.316,13.837L46.053,13.302L45.659,13.128L45.808,12.623L45.541,12.357L44.945,12.408L44.168,11.533L44.479,11.216L44.456,10.683L45.162,10.497L45.447,10.281L45.054,9.852L45.155,9.43ZM48.511,54.778L49.256,54.636L50.406,55.666L50.833,55.627L52.013,56.486L52.913,57.232L53.577,58.156L53.071,58.805L53.389,59.584L52.892,60.455L51.596,61.23L50.749,60.95L50.128,61.1L49.068,60.501L48.29,60.546L47.591,59.779L47.68,58.889L47.929,58.584L47.917,57.228L48.224,55.845ZM49.059,11.517L50.434,11.748L50.557,11.54L51.485,11.457L52.718,11.767L52.121,12.758L52.212,13.545L52.662,14.227L52.461,14.721L52.361,15.246L52.068,15.729L51.411,15.486L50.869,15.604L50.406,15.501L50.291,15.834L50.484,16.062L50.38,16.297L49.757,16.203L49.056,15.205L48.905,14.556L48.538,14.555L48.03,13.72L48.241,13.126L48.179,12.855L48.876,12.554Z"/>
</svg>
