<svg xmlns="http://www.w3.org/2000/svg" width="1200" height="630" viewBox="0 0 1200 630" role="img" aria-label="Polanco destination guide">
  <defs>
    <linearGradient id="bg" x1="0" y1="0" x2="1" y2="1">
      <stop offset="0%" stop-color="#e9f1ee"/>
      <stop offset="48%" stop-color="#ffffff"/>
      <stop offset="100%" stop-color="#2563eb" stop-opacity="0.13"/>
    </linearGradient>
  </defs>
  <rect width="1200" height="630" fill="#e9f1ee"/>
  <rect width="1200" height="630" fill="url(#bg)"/>
  <rect x="90" y="80" width="1020" height="470" rx="44" fill="none" stroke="#14213d" stroke-opacity="0.09" stroke-width="2"/>
  <path d="M180 274 C310 162 410 318 532 206 C662 86 764 330 910 160 C962 100 1004 122 1032 98" fill="none" stroke="#14213d" stroke-width="7" stroke-linecap="round" stroke-dasharray="2 22" opacity="0.62"/>
  <path d="M198 138 C318 206 368 104 492 168 C632 240 706 112 840 178 C914 214 966 196 1020 254" fill="none" stroke="#2563eb" stroke-width="5" stroke-linecap="round" opacity="0.38"/>
  <circle cx="603" cy="402" r="52" fill="#c2410c"/>
  <circle cx="603" cy="402" r="42" fill="none" stroke="#ffffff" stroke-width="10"/>
  <circle cx="603" cy="402" r="15" fill="#ffffff"/>
  <text x="132" y="130" fill="#52636d" font-family="Arial, Helvetica, sans-serif" font-size="26" font-weight="700" letter-spacing="5">RGUIDE</text>
  <text x="300" y="130" fill="#c2410c" font-family="Arial, Helvetica, sans-serif" font-size="26" font-weight="700" letter-spacing="5">DESTINATION GUIDE</text>
  <text x="132" y="522" fill="#14213d" font-family="Arial, Helvetica, sans-serif" font-size="92" font-weight="800">Polanco</text>
</svg>
