<?xml version="1.0" encoding="UTF-8"?>
<svg xmlns="http://www.w3.org/2000/svg" viewBox="0 0 128 128" fill="none" aria-hidden="true">
  <path d="M29.223,123.685L33.466,123.034L33.542,122.51L34.603,123.349L33.921,123.937L33.163,123.601L31.799,123.643L30.284,124ZM31.951,4.332L31.951,4L43.316,4.133L48.089,4.133L60.212,4.421L67.258,4.465L70.061,4.421L82.108,4.509L86.73,4.62L87.866,11.713L89.609,21.462L90.973,29.769L91.958,36.19L93.094,42.962L95.594,58.41L96.276,59.101L95.973,59.877L96.958,60.848L97.337,64.059L98.095,65.609L99.383,67.094L99.61,68.857L100.292,69.63L99.534,72.142L100.898,72.743L101.807,73.601L101.05,74.716L100.216,74.716L100.368,75.23L99.307,75.68L98.322,76.794L98.549,77.993L98.398,79.833L97.867,81.671L96.807,83.209L96.579,84.17L97.034,86.816L96.882,87.753L98.322,89.607L98.549,92.161L98.019,93.373L98.17,94.287L97.564,95.987L97.64,97.664L97.11,98.109L97.489,99.191L97.261,100.336L98.777,102.264L99.307,103.619L99.459,104.91L94.382,104.91L89.003,105.016L80.669,105.101L67.485,105.101L57.257,104.952L44.68,104.995L44.907,105.799L43.922,108.229L44.074,108.715L45.816,110.383L46.043,111.248L48.771,112.936L48.998,114.39L47.862,116.538L48.089,117.696L49.604,118.769L48.241,119.505L47.635,121.228L46.953,121.543L47.483,122.047L46.347,122.594L43.467,123.328L40.437,123.832L36.194,123.916L37.558,123.055L38.467,123.601L41.119,123.034L41.346,122.321L40.209,121.312L39.679,120.409L38.164,119.421L37.633,117.527L38.315,115.97L38.088,114.369L37.558,113.357L36.042,112.683L34.906,113.652L35.057,114.453L34.375,115.654L34.451,116.517L33.997,117.191L33.921,120.219L33.315,121.606L32.178,121.69L32.254,120.934L30.739,120.093L29.602,120.43L29.223,119.946L27.86,120.409L27.632,115.738L27.405,108.208L26.95,99.255L26.193,82.804L26.875,76.751L28.466,61.495L28.845,56.92L31.345,32.588L31.799,29.09L33.239,14.975L34.148,6.987L32.936,6.213Z" fill="currentColor"/>
</svg>
