<?xml version="1.0" encoding="UTF-8"?>
<svg xmlns="http://www.w3.org/2000/svg" viewBox="0 0 128 128" fill="none" aria-hidden="true">
  <path d="M4.46,52.81L16.1,45.67L18.58,45.86L17.05,48.77L18.07,49.72L24.09,50.01L25.2,48.16L26.73,48.38L23.87,47.53L21.64,43.51L22.58,42.81L24.92,46.79L25.79,46.15L23.96,44.6L25.2,42.67L18.39,41.56L16.7,37.19L8.48,31.37L10.15,30.31L10.43,26.73L16.56,26.28L18.8,24.44L20.44,18.46L23.97,13.73L27.29,13.3L32.41,8.61L36.8,8.6L40.55,4L43.68,5.82L42.52,8.97L45.34,6L48.03,9.62L50.94,8.16L54.11,9.09L53.49,11.13L57.15,13.34L62.73,11.97L76.81,17.14L82.11,15.37L89.13,19.97L89.14,89.69L95.11,89.36L94.76,91.04L99.74,96.28L99.99,98.32L102.94,96.76L103.65,94.1L107.08,93.47L112.93,101.2L117.75,111.82L123.16,114.55L122.68,120.78L120.53,121.66L119.69,115.29L119.85,119.64L117.73,118.21L118.21,115.81L116.67,117.49L117.41,114.12L116.08,116.04L114.99,113.98L116.58,112.63L114.58,109.08L112.5,108.52L112.08,105.42L113.61,106.08L110.85,103.37L110.96,101.34L109.02,102.27L106.23,95.79L107.7,102.61L105.04,101.48L104.25,97.9L103.98,99.25L101.88,98.08L104.62,101.48L102.57,102.44L92.72,94.48L93.71,91.34L91.31,93.52L87.82,92.37L87.43,90.54L87.28,91.84L83.18,91.04L77.94,92.88L79.62,91.34L76.94,90.22L77.01,88.74L75.87,89.66L73.66,88.67L74.27,87.88L71.51,90.08L71.69,88.52L74.16,87.87L72.74,87.69L73.33,86.7L71.45,87.24L73,86.13L71.04,86.52L72.64,84.48L70.5,85.69L70.17,84.28L69.23,86.05L68.67,84.74L66.87,86.61L68.11,83.55L65.88,86.62L67.7,91.66L66.5,92.03L66.22,90.74L62.99,92.63L62.85,90.84L62.52,93.43L61.86,91.93L59.84,95.68L60.06,94.03L55.62,96.81L55.16,95.19L57.98,92.95L55.22,92.99L56.65,87.06L59.88,85.01L64.16,86.35L60.82,84.26L62.25,82.07L55.45,86.15L52.47,90.15L52.61,92.14L48.19,95.53L48.07,97.65L50.9,98.63L47.91,102.93L40.65,107.65L40.58,109.64L34.82,112.64L34.7,115.24L25.98,118.76L25.06,117.25L23.43,120.31L21.64,119.05L21.82,120.87L19.88,120.22L20.28,122.55L14.71,123.86L15.83,121.14L19.47,121.36L24.19,115.8L27.25,115.05L27.32,116.66L28.92,116.5L28.72,113.63L33.97,110.71L34.85,108.18L37.37,106.73L37.56,101.28L39.42,97.92L35.64,100.08L34.42,97.77L33.28,101.42L28.84,97.33L24.36,100.46L23.06,99.88L24.31,99.12L23.42,96.11L24.52,94.76L22.43,90.56L17.56,92.83L14.32,88.21L13.09,88.42L14.38,84.82L12.38,84.55L10.84,79.94L12.22,79.74L16.02,70.5L20.3,71.56L22.64,68.23L26.29,68.47L27.44,66.14L25.13,61.93L27.38,59.79L26.11,58.29L21.12,62.64L19.92,60.36L19.92,62.1L18.6,60.91L14.17,61.85L10.36,60.77L8.3,56.69L10.02,55.66L4.46,52.81Z" fill="currentColor"/>
</svg>
