<?xml version="1.0" encoding="UTF-8"?>
<svg xmlns="http://www.w3.org/2000/svg" viewBox="0 0 128 128" fill="none" aria-hidden="true">
  <path d="M15.184,95.391L15.498,94.837L17.005,95.07L18.574,94.605L18.449,93.89L19.579,92.764L19.642,91.35L18.7,88.914L17.695,88.771L17.256,89.004L16.44,88.556L16.251,88.86L15.372,87.641L15.812,86.439L15.937,83.889L14.996,83.152L15.561,81.982L15.058,81.065L16.251,80.903L18.009,78.417L18.574,77.984L18.323,77.154L18.574,75.169L19.077,74.952L18.951,73.615L18.512,72.458L18.574,71.535L18.951,71.427L18.826,70.431L18.386,70.069L20.144,67.967L20.144,66.715L20.646,66.207L22.09,65.681L22.718,64.954L23.786,64.573L23.848,64.228L25.418,63.046L25.355,62.155L24.665,61.172L23.786,60.826L21.839,59.005L21.023,58.878L21.149,57.82L19.516,53.456L18.072,52.304L17.633,51.042L16.628,49.998L16.691,47.303L17.068,45.56L16.44,45.156L17.758,44.366L17.758,43.042L17.193,39.766L16.816,38.568L16.126,37.701L15.875,36.631L16.251,35.966L16.251,34.063L15.686,33.36L15.875,32.639L15.435,32.065L15.623,31.121L15.31,30.028L15.561,28.99L16.126,28.545L15.498,27.97L14.744,26.17L14.996,25.371L14.556,23.884L16.126,23.308L16.691,22.768L17.005,23.028L17.758,22.563L18.826,22.582L18.951,23.047L20.458,22.694L21.274,22.749L22.404,24.07L22.279,24.591L23.597,25.538L25.104,25.334L26.611,21.93L26.925,21.651L26.988,17.363L26.862,12.278L26.862,4.075L39.419,4.075L53.358,4.075L73.01,4.056L79.1,4.038L89.146,4L89.522,4.132L104.277,4.132L114.448,4.113L114.448,35.633L114.386,40.005L114.448,40.558L114.448,57.51L114.386,68.565L114.448,71.191L114.386,73.235L114.386,124L110.367,123.965L97.747,123.982L89.711,124L78.912,124L56.372,115.608L43.061,110.848L36.657,108.438L13.552,100.065L13.865,98.889L13.552,98.586L13.614,97.515L14.117,97.23Z" fill="currentColor"/>
</svg>
