<?xml version="1.0" encoding="UTF-8"?>
<svg xmlns="http://www.w3.org/2000/svg" viewBox="0 0 128 128" fill="none" aria-hidden="true">
  <path d="M4,12.562L22.221,12.587L41.484,12.613L53.718,12.613L81.744,12.639L112.026,12.613L112.46,14.447L112.2,14.834L114.108,15.969L113.675,19.398L112.894,19.578L112.633,20.685L111.245,21.406L109.944,22.769L109.944,23.361L107.948,24.852L106.56,27.677L122.091,27.523L122.438,28.498L124,29.755L124,30.909L121.918,30.319L121.137,31.575L122.872,32.498L121.918,33.343L120.963,33.369L120.182,34.7L118.707,35.263L117.926,34.725L116.625,35.774L117.145,37.513L117.926,37.948L118.967,37.36L119.228,38.331L116.972,39.404L117.059,40.757L117.839,41.012L117.579,42.033L115.67,40.604L114.889,40.834L114.456,42.314L115.236,43.385L114.282,45.297L113.588,43.053L111.592,44.762L111.332,45.933L112.373,46.086L112.547,44.991L113.848,45.883L113.067,47.079L113.067,48.225L111.679,48.479L112.026,49.675L113.328,49.853L113.848,50.59L112.807,51.683L114.108,53.156L113.241,53.791L112.2,53.258L111.419,53.918L110.638,56.455L108.469,56.126L108.208,57.368L109.683,58.762L109.683,59.902L108.121,61.016L105.432,62.129L105.085,60.636L104.13,60.586L103.957,61.32L104.651,62.433L104.217,63.065L104.738,64.886L103.523,65.366L103.089,64.507L103.262,63.065L102.395,63.748L102.568,64.633L101.961,64.987L102.482,65.997L104.217,66.048L104.39,66.831L103.176,68.093L102.221,67.639L102.308,66.401L101.44,66.932L101.44,68.547L102.482,70.086L102.568,70.767L101.44,72.052L101.961,74.143L99.792,75.577L99.792,77.162L98.924,77.137L99.184,75.779L97.536,75.804L97.102,76.483L97.796,77.615L97.189,78.369L95.54,78.746L95.193,80.529L93.805,79.449L93.024,80.178L94.239,81.257L95.974,81.232L96.148,81.86L95.02,82.562L93.631,81.734L92.59,82.537L93.371,83.817L94.325,83.741L94.586,84.343L93.892,85.872L91.809,86.022L92.416,87.15L91.462,87.55L91.028,86.473L89.64,87.049L89.38,87.776L91.289,88.627L89.727,90.578L90.334,91.953L91.722,92.603L90.855,93.453L90.161,93.003L88.078,93.053L87.991,94.527L88.859,95.176L89.987,94.826L90.681,96.074L89.64,96.523L88.252,95.974L87.644,95.101L86.169,95.5L85.996,96.199L88.165,97.471L88.338,98.294L85.909,99.316L87.037,100.886L85.822,102.877L87.384,102.479L87.297,101.209L88.512,101.882L88.165,103.226L86.69,103.475L86.43,103.947L87.297,104.544L88.772,104.196L89.64,102.38L90.074,103.176L88.078,105.414L88.078,107.005L89.119,108.694L89.38,107.651L90.247,107.328L90.421,107.899L89.293,109.191L89.466,111.052L89.206,111.622L87.991,111.821L87.037,111.473L86.603,112.44L88.599,113.977L87.471,115.438L68.469,115.339L55.106,115.216L41.484,115.042L34.022,115.042L17.97,114.993L17.97,99.889L17.883,99.615L17.883,99.615L16.495,99.067L15.974,99.59L15.54,98.843L14.499,98.419L13.544,99.565L11.722,98.892L11.462,99.615L10.768,99.167L10.334,99.839L9.466,99.615L9.64,98.718L8.859,98.867L7.905,98.244L7.905,96.897L7.21,97.097L7.644,81.031L7.818,70.54L7.991,66.25L8.078,60.307L8.338,53.69L8.512,45.577L7.21,35.698L6.863,33.599L5.649,24.492L5.128,21.226L4.521,15.918Z" fill="currentColor"/>
</svg>
