<?xml version="1.0" encoding="UTF-8"?>
<svg xmlns="http://www.w3.org/2000/svg" viewBox="0 0 128 128" fill="none" aria-hidden="true">
  <path d="M70.73,112.682L71.307,112.734L72.317,113.282L73.075,113.51L73.111,113.769L73.688,114.399L73.508,114.844L73.039,114.585L72.101,114.513L71.884,114.151L71.884,113.386L71.163,113.22ZM70.693,118.063L71.018,118.021L71.812,119.226L73.255,120.563L72.895,120.522L72.498,120.748L71.884,120.296L71.415,119.555L70.91,118.33ZM66.147,112.527L66.436,112.454L66.472,112.879L66.075,112.806ZM62.394,106.024L62.683,106.201L63.08,106.055L63.08,106.368L62.466,106.409L62.142,106.191ZM60.915,115.081L61.42,115.009L62.142,115.371L62.43,115.691L61.961,115.846L61.24,115.629ZM57.487,105.44L58.136,105.513L58.606,105.742L59.147,105.69L59.832,106.138L60.518,106.18L60.771,105.774L61.492,105.982L61.095,106.43L60.085,106.545L59.472,106.868L57.956,106.618L57.92,105.982ZM54.203,106.357L54.997,106.274L55.322,106.055L55.791,106.138L56.26,105.941L56.26,106.441L56.91,106.576L56.946,107.076L55.466,107.638L54.889,107.253ZM52.183,105.92L52.76,105.742L52.977,105.451L53.193,105.815L53.662,106.086L52.904,106.149ZM14.331,4.151L19.924,4.198L20.249,4.128L23.027,4.139L25.048,4L26.058,4.093L30.208,4.07L31.543,4.012L34.971,4.023L36.595,4.081L42.152,4.174L46.265,4.221L53.373,4.221L56.693,4.198L56.693,4.209L56.693,20.874L56.729,21.262L56.729,29.835L56.693,34.259L56.657,34.405L56.657,39.522L56.621,40.883L56.693,43.81L57.631,44.665L61.781,48.322L65.894,52.03L68.168,54.032L71.74,57.302L76.25,61.421L78.487,63.447L83.07,67.725L94.364,78.378L102.808,86.475L105.334,88.958L110.638,94.159L110.602,95.708L111.179,96.307L111.432,97.033L112.262,97.695L113.2,100.203L113.128,100.811L113.597,100.884L114.715,101.931L115.22,102.13L115.617,102.694L115.653,103.206L114.751,103.885L114.715,104.084L114.102,104.303L113.741,104.72L112.911,105.023L112.622,105.315L112.622,106.034L111.612,107.242L111.865,107.451L111.937,108.023L111.72,108.085L111.684,108.615L111.937,109.28L112.009,110.049L111.72,110.173L111.576,111.314L111.72,111.791L111.396,112.04L110.385,113.469L109.7,113.562L109.988,114.089L109.664,114.761L110.205,115.185L110.133,116.65L109.88,117.341L110.385,118.042L110.493,117.867L110.963,118.124L111.215,117.991L111.792,118.073L112.334,119.473L112.298,120.285L111.648,120.933L111.72,121.344L110.818,121.611L109.952,121.477L109.772,121.795L94.761,123.088L85.596,124L85.488,122.996L85.163,122.36L84.874,122.155L84.369,122.391L84.261,121.713L84.297,120.984L84.008,120.563L84.333,119.936L84.008,118.279L83.539,116.97L83.214,116.413L81.771,114.42L80.869,113.789L80.508,113.262L79.967,112.879L79.642,112.899L78.957,111.916L78.018,111.304L77.513,111.149L76.792,110.557L75.889,109.644L75.023,109.239L74.951,109.727L74.194,109.966L73.544,109.82L73.183,109.561L72.642,109.499L72.498,109.104L72.822,108.75L72.858,108.303L72.353,107.097L71.956,106.43L71.343,105.909L70.08,105.899L69.286,105.982L68.709,106.357L68.204,105.961L67.193,105.795L65.858,105.179L65.425,105.159L64.559,104.606L63.946,103.133L63.585,103.029L62.972,102.475L62.827,102.506L62.106,101.826L61.348,101.565L61.131,101.355L59.977,101.313L59.399,101.565L58.75,101.303L57.956,101.408L56.621,100.779L55.791,100.779L55.25,100.622L53.662,100.696L51.93,100.926L51.894,100.601L51.425,99.91L50.848,99.595L50.415,99.637L50.198,99.301L50.667,97.8L50.27,97.17L50.559,95.918L49.946,95.35L50.27,94.138L50.306,92.661L49.657,92.069L49.152,91.995L49.043,92.217L48.069,91.636L47.672,91.129L48.033,89.742L47.961,89.213L47.564,88.651L46.59,88.503L45.616,87.42L44.966,86.348L44.1,86.082L43.487,85.38L43.306,84.518L42.729,84.018L42.476,83.624L41.971,83.251L41.755,82.195L41.574,81.821L40.853,81.512L40.311,80.401L39.409,79.395L38.218,78.71L37.822,78.228L37.533,77.37L37.569,76.92L37.172,75.836L37.244,74.847L36.847,74.675L37.208,73.879L37.858,74.288L38.182,73.965L38.435,73.308L38.724,71.789L37.966,70.18L37.533,69.716L37.172,69.597L36.847,69.899L35.512,69.878L34.502,69.143L33.708,68.039L33.203,67.844L33.131,67.508L32.517,66.858L32.373,66.185L32.553,64.785L32.12,63.817L32.048,63.251L31.615,63.099L31.399,62.74L31.363,62.043L31.543,61.748L31.615,60.909L31.399,59.446L31.904,59.14L32.481,59.052L32.698,59.315L32.95,60.276L32.626,60.374L33.022,61.541L32.95,61.836L33.925,62.086L34.899,62.958L35.187,62.903L35.693,63.589L36.126,63.556L35.909,63.121L35.476,62.914L35.115,61.966L34.863,60.778L34.105,60.188L34.033,59.686L33.239,59.402L33.564,58.593L33.311,57.849L32.77,57.86L32.265,57.115L32.553,57.214L32.878,56.929L32.878,56.491L33.564,56.513L33.925,56.085L33.564,55.306L32.626,54.823L32.156,55.153L31.651,55.218L31.723,55.734L31.543,56.239L32.084,56.798L31.651,57.072L31.507,57.553L32.192,58.166L31.94,58.32L31.543,58.002L31.796,58.779L31.254,58.954L30.93,58.538L29.991,57.871L29.522,58.002L28.692,57.269L28.332,56.688L27.718,56.326L27.141,56.239L26.419,56.6L26.924,55.207L27.033,54.68L26.6,53.669L26.852,53.45L26.275,52.679L25.878,52.79L25.842,52.052L25.228,50.884L24.507,50.321L24.002,50.111L23.208,49.405L21.873,47.459L21.367,47.138L21.079,46.684L19.96,45.686L19.094,44.399L19.599,43.532L19.563,43.065L19.058,41.663L18.481,40.292L18.228,39.12L18.336,38.013L18.806,36.536L18.625,35.953L18.625,35.224L18.12,34.191L17.976,32.978L17.398,32.573L17.182,31.954L15.919,30.455L15.666,30.387L15.666,29.902L15.378,29.417L14.584,29.056L12.816,27.348L12.96,26.635L12.816,25.842L12.347,25.003L12.671,23.89L13.177,22.651L14.692,19.631L15.089,18.545L15.342,17.184L14.909,16.76L14.872,15.649L15.017,15.626L15.414,14.49L15.847,11.683L15.666,10.231L15.125,8.752L14.836,7.642L14.512,7.688L13.898,7.063L14.259,6.206L14.439,4.929Z" fill="currentColor"/>
</svg>
