<?xml version="1.0" encoding="UTF-8"?>
<svg xmlns="http://www.w3.org/2000/svg" viewBox="0 0 128 128" fill="none" aria-hidden="true">
  <path d="M4.184,19.908L19.038,19.908L28.491,19.869L48.563,19.869L52.614,19.966L61.023,19.986L75.877,19.966L76.307,19.928L89.627,19.889L106.936,19.869L115.223,19.869L123.816,19.869L123.816,42.34L123.877,49.629L123.877,57.891L123.939,61.551L123.939,85.422L124,87.976L124,108.131L112.767,108.076L111.417,107.984L107.611,107.965L95.09,108.021L84.716,108.113L73.422,108.113L71.335,108.076L52.859,108.094L41.442,108.131L41.32,107.965L31.99,107.984L17.872,108.002L4.246,108.002L4.246,97.242L4.307,96.576L4.307,82.845L4,80.433L4,70.729L4.123,66.656L4.123,31.194L4.184,30.306Z" fill="currentColor"/>
</svg>
