<?xml version="1.0" encoding="UTF-8"?>
<svg xmlns="http://www.w3.org/2000/svg" viewBox="0 0 128 128" fill="none" aria-hidden="true">
  <path d="M74.539,76.022L75.417,75.081L75.769,75.431L75.066,76.416ZM69.27,35.135L69.709,34.694L69.796,35.774ZM66.635,23.189L67.864,22.017L67.864,20.712L68.83,20.712L68.83,22.172L68.04,22.459L67.162,23.675ZM66.108,98.17L66.459,97.56L66.635,95.36L67.425,95.622L69.182,94.162L69.621,94.641L68.391,96.384L68.743,97.756L67.601,97.604L67.601,99.193L66.547,98.802ZM64.878,4.866L65.405,4L66.371,4.622L66.283,5.754L65.581,6.264L64.966,5.71ZM64.79,66.763L66.547,66.72L66.81,67.508L65.142,67.683ZM63.561,101.109L63.912,100.13L65.054,98.954L65.493,100.13L65.142,100.652L65.757,101.522L65.581,102.85L64.79,103.481ZM52.231,123.653L53.197,122.548L55.042,121.789L56.359,121.984L56.184,122.743L55.13,123.025L54.427,123.87L53.461,124L53.022,123.501Z" fill="currentColor"/>
</svg>
