<?xml version="1.0" encoding="UTF-8"?>
<svg xmlns="http://www.w3.org/2000/svg" viewBox="0 0 128 128" fill="none" aria-hidden="true">
  <path d="M18.889,19.993L22.222,19.922L48.444,20.925L60.444,21.139L60.222,24.361L63.333,23.931L64,21.139L73.333,21.569L78.222,21.283L123.111,22.213L123.333,23.502L123.333,31.155L124,46.999L124,57.678L123.333,72.522L120.667,73.089L121.333,78.476L119.556,80.53L118,79.184L114.222,79.042L109.556,80.742L105.556,80.53L102.667,82.229L99.111,80.247L97.778,82.866L86.889,85.343L86.222,83.928L82.889,83.928L76.889,86.263L75.556,84.777L69.778,84.706L68.222,86.546L64.222,84.919L55.333,86.829L54.667,82.583L52.667,83.786L48.444,89.587L45.778,89.587L40.889,94.745L38,93.121L32.667,97.217L31.111,96.299L26,98.276L27.111,99.828L24.889,102.086L18.444,102.862L13.556,106.669L11.556,105.612L8.222,108.078L8.444,105.753L4,98.558L19.111,89.375L14.889,82.512L15.778,71.103L16.889,50.134Z" fill="currentColor"/>
</svg>
