<?xml version="1.0" encoding="UTF-8"?>
<svg xmlns="http://www.w3.org/2000/svg" viewBox="0 0 128 128" fill="none" aria-hidden="true">
  <path d="M54.61,22.208L54.851,24.303L54.61,22.208ZM39.202,14.197L44.017,8.051L47.629,5.501L53.407,4L58.703,4.45L64.241,7.226L61.352,10.375L60.148,14.946L57.981,17.343L56.537,16.819L51.24,22.881L51.721,25.798L54.37,28.116L54.61,31.777L52.684,33.868L52.684,36.929L56.055,40.809L57.74,45.133L62.796,49.753L65.204,54.815L65.926,59.13L64.722,61.732L65.204,71.09L69.056,74.652L70.741,77.84L71.223,83.324L79.408,93.463L83.261,95.607L85.668,93.832L86.631,96.494L87.835,106.02L88.798,124L63.518,123.926L45.702,123.264L45.221,117.964L39.202,20.637Z" fill="currentColor"/>
</svg>
