<?xml version="1.0" encoding="UTF-8"?>
<svg xmlns="http://www.w3.org/2000/svg" viewBox="0 0 128 128" fill="none" aria-hidden="true">
  <path d="M112.669,115.94L113.462,115.043L113.745,115.537L112.952,116.194ZM111.082,116.882L111.592,116.299L112.215,116.239L111.932,116.732ZM106.776,118.554L109.722,117.21L110.062,117.658L107.513,118.853ZM95.898,120.956L96.975,119.375L98.108,118.688L99.524,118.046L99.694,117.703L101.734,116.717L103.887,117.718L104.113,118.494L104.907,119.136L104.68,119.3L102.414,120.016L102.244,119.614L100.714,119.688L100.544,120.046L97.938,121.135L95.898,121.358ZM92.725,121.403L94.935,121.045L94.368,121.686L93.405,121.895L92.669,121.776ZM90.346,121.06L90.686,120.538L91.365,120.688L91.082,121.299ZM88.759,83.667L89.042,83.94L90.119,87.14L90.572,87.564L91.535,87.958L91.932,87.7L92.725,88.019L91.932,88.488L91.422,88.503L90.232,87.746L89.836,87.322L89.099,85.579L88.759,84.426ZM78.221,119.852L79.071,119.658L79.297,120.001L78.164,120.151ZM50.799,28.179L52.442,27.444L52.442,27.897L51.535,28.475L50.912,28.569ZM45.53,6.105L45.87,7.354L46.493,8.176L46.606,9.487L46.946,10.671L47.739,11.428L55.445,11.823L70.232,12.705L81.904,13.509L89.552,14.045L89.269,14.265L89.382,15.162L89.779,15.572L89.609,16.688L90.232,17.883L92.329,17.679L92.329,16.5L92.669,15.76L92.839,13.887L92.159,12.453L92.385,11.507L92.329,10.734L92.782,10.482L92.555,10.103L93.235,10.229L93.745,9.298L94.595,9.408L94.992,9.929L95.955,9.977L96.975,10.419L97.371,10.813L99.241,11.113L100.204,11.397L100.997,11.16L101.734,11.46L101.96,11.665L101.734,13.446L101.904,14.895L101.677,15.241L102.244,15.634L102.47,17.129L102.527,18.904L103.83,25.004L104.567,27.022L104.567,27.819L106.153,32.533L107.966,37.017L109.609,40.575L113.292,46.958L115.445,50.05L115.671,51.022L116.238,52.303L115.218,53.182L114.992,54.014L114.935,55.354L115.218,57.355L115.558,58.832L116.465,61.059L118.448,65.185L119.297,67.727L119.581,69.011L119.864,69.455L120.487,71.594L121.45,73.914L121.96,74.92L122.3,76.353L123.037,78.013L124,81.936L123.943,85.503L123.547,88.155L123.263,91.333L123.093,91.892L122.64,96.211L122.64,98.759L122.47,99.964L122.074,101.183L122.074,101.846L121.734,101.499L121.904,100.732L121.62,100.431L120.714,100.807L120.147,102.342L119.807,102.598L119.751,103.56L119.297,104.161L119.184,105.333L119.467,105.829L119.354,106.519L119.694,106.759L119.241,107.555L118.788,107.75L118.731,108.485L119.921,107.9L121.337,104.987L121.734,104.372L121.734,104.987L121.28,106.234L119.354,109.564L118.844,110.793L117.428,112.186L115.501,114.266L114.142,115.253L113.972,115.073L115.898,113.248L116.691,112.65L117.088,111.856L117.258,110.643L117.541,110.164L117.201,109.819L116.691,109.984L116.295,109.594L115.955,109.864L114.028,110.194L113.235,110.808L112.725,110.898L111.705,110.224L110.686,110.418L110.289,111.033L108.759,111.302L107.456,111.392L106.493,110.613L106.04,109.594L106.153,108.41L106.493,107.51L106.833,107.555L106.72,106.819L106.04,105.363L105.416,104.657L105.53,104.146L105.076,103.214L104.453,102.733L104.17,101.454L103.83,101.183L103.207,101.409L102.697,99.889L101.337,99.422L101.28,99.181L100.091,98.608L98.901,97.78L98.278,97.975L97.824,98.563L96.918,96.664L96.068,94.43L95.785,91.817L95.388,90.168L94.992,89.306L93.405,87.594L92.782,87.458L92.725,86.67L92.045,86.322L92.045,87.291L91.252,87.458L91.195,86.458L90.742,84.744L90.062,83.971L90.232,83.606L90.969,83.652L91.479,84.244L92.102,81.83L91.989,80.523L91.535,80.31L91.535,79.701L91.989,79.549L91.762,79.078L91.082,79.139L90.799,79.641L90.176,79.808L90.629,82.057L90.119,82.361L88.986,82.528L88.703,83.287L88.703,82.149L88.363,81.389L87.399,79.96L85.926,77.267L85.416,75.835L84.34,73.7L82.81,71.426L82.017,70.571L81.79,69.684L81.224,68.751L81.79,69.042L81.847,69.501L82.697,69.042L83.263,67.941L83.943,67.512L84.68,66.012L85.416,65.491L85.303,65.139L86.096,64.741L86.72,63.453L86.436,62.302L85.19,61.98L85.473,63.714L84.227,63.253L84.567,62.732L84.51,61.735L84.227,61.136L82.074,60.045L82.13,61.044L81.507,61.474L82.13,62.042L83.037,62.134L83.66,63.821L83.093,64.465L83.093,65.415L82.867,65.828L81.677,65.92L81.507,66.41L81.904,66.992L81.394,67.451L81.167,66.839L81.28,65.568L80.487,64.265L79.977,63.867L79.524,62.977L79.864,60.184L79.581,59.17L79.354,56.648L79.864,56.632L79.864,58.063L80.091,59.431L80.601,59.538L80.374,57.186L80.884,56.617L80.941,55.986L81.394,55.308L81.394,54.723L81.79,53.952L81.79,53.351L82.3,52.627L82.357,51.223L82.64,49.941L82.3,48.922L82.414,48.056L81.677,47.608L81.904,46.958L81.394,45.272L82.074,44.281L80.884,42.576L81.054,42.095L80.601,41.242L80.034,41.196L80.317,40.683L80.261,39.923L79.864,39.721L77.201,39.364L76.691,40.156L76.295,40.218L75.785,38.665L75.955,37.965L75.161,37.468L74.482,37.328L74.368,36.348L73.972,35.446L73.348,34.745L72.499,34.652L72.215,33.967L70.856,33.219L70.856,31.488L70.629,30.443L69.949,30.334L69.382,29.741L68.646,29.475L67.909,28.522L67.909,27.866L67.399,27.319L67.116,26.522L66.323,25.833L64.737,24.863L62.47,23.735L60.997,22.56L60.374,22.592L58.901,23.109L57.144,22.654L57.088,23.203L55.615,24.284L56.125,25.833L55.955,26.271L55.388,26.381L54.538,26.146L54.255,25.739L52.895,26.084L51.139,27.225L47.456,29.288L47.116,29.256L47.513,28.569L46.946,28.382L46.55,28.991L45.7,29.631L43.66,29.616L44.397,30.381L44.51,30.973L45.416,31.317L47.116,30.49L48.759,29.865L50.289,28.554L50.459,28.757L49.099,30.037L47.513,30.708L45.53,31.738L44.85,31.956L44.283,31.441L43.377,31.098L42.074,30.302L40.997,30.193L40.034,30.63L39.297,29.163L39.014,27.303L39.467,26.647L39.467,28.288L39.807,29.709L40.204,30.053L40.771,29.444L40.827,27.929L39.864,26.287L38.844,25.348L37.881,25.145L37.031,24.518L36.125,23.406L34.595,22.67L33.348,21.588L31.025,20.098L28.363,18.904L25.076,17.805L23.32,17.49L19.807,17.207L17.938,17.286L15.275,17.679L11.592,18.449L9.779,18.684L9.382,18.527L5.813,19.328L6.663,18.92L6.266,18.543L6.776,18.307L7.229,17.019L8.249,16.468L7.116,15.666L6.946,14.8L7.796,13.194L7.626,12.106L5.586,10.845L5.416,10.198L4.113,8.95L4,8.587L4.737,6.769L4.567,6.168L13.972,6.137L21.62,6.247L31.479,6.247L37.711,6.184L41.734,6.105Z" fill="currentColor"/>
</svg>
