<?xml version="1.0" encoding="UTF-8"?>
<svg xmlns="http://www.w3.org/2000/svg" viewBox="0 0 128 128" fill="none" aria-hidden="true">
  <path d="M12.202,4.433L15.247,4.479L25.864,4.342L40.15,4.319L55.452,4.365L55.373,4.228L66.537,4L66.303,5.642L63.883,7.191L61.853,9.581L61.931,10.4L61.307,10.991L61.541,12.446L63.883,14.309L65.21,14.467L67.006,16.827L68.801,17.983L70.987,17.621L71.612,17.893L72.236,19.343L72.47,20.792L73.407,21.471L73.641,22.602L74.5,23.778L74.5,24.93L75.047,26.466L75.983,27.008L76.608,28.52L77.701,29.602L78.56,31.878L79.262,31.901L80.746,33.522L83.01,34.692L85.274,36.895L85.586,38.266L86.288,39.186L86.366,40.084L87.381,40.937L88.318,40.982L89.645,41.811L91.051,43.896L92.222,44.478L92.534,45.016L91.987,45.978L92.3,46.851L91.987,47.567L94.173,49.4L93.861,50.071L94.876,51.009L95.735,50.897L95.579,51.813L96.203,52.817L98.311,54.044L99.013,54.022L100.263,55.315L101.746,56.273L101.356,57.766L102.292,59.19L102.448,60.28L103.151,60.614L103.151,62.503L103.463,63.214L103.073,64.214L103.541,64.391L103.854,65.457L103.463,66.367L104.4,67.431L106.352,68.008L106.352,68.517L108.147,70.312L107.835,71.065L109.006,73.388L109.318,73.3L109.787,74.98L109.006,75.952L109.865,77.432L109.553,78.006L109.943,79.374L111.582,80.124L112.441,79.749L114.159,81.314L114.861,81.403L115.798,81.667L115.408,83.077L114.315,83.716L113.534,83.386L113.066,84.442L113.846,84.618L112.597,85.939L110.958,85.433L110.724,86.665L111.582,86.906L110.88,88.203L109.553,89.39L108.226,89.104L107.991,89.456L108.928,90.181L109.553,90.071L109.475,91.915L108.928,93.275L106.742,93.845L106.742,94.327L108.069,94.108L108.538,94.634L106.742,97.504L106.274,99.495L106.82,99.779L106.43,100.435L106.04,102.555L105.025,103.036L104.4,104.324L103.698,104.39L103.698,105.939L103.151,107.444L102.605,107.4L101.668,108.359L102.683,108.882L103.541,108.359L103.62,110.124L102.37,113.627L102.761,115.149L101.746,114.736L100.653,115.062L99.326,114.671L96.75,114.258L96.203,113.714L94.798,113.106L93.471,113.04L92.924,112.322L91.753,112.17L91.051,113.454L90.114,113.28L90.426,113.801L89.801,114.149L89.88,115.214L89.567,116.518L90.504,118.494L90.27,121.075L89.801,122.094L89.801,123.718L86.913,124L86.054,122.354L86.288,120.815L85.742,120.251L85.586,119.015L85.976,118.711L75.437,117.973L59.355,116.865L38.979,115.649L28.362,115.106L27.269,114.062L26.801,112.431L26.644,110.625L25.786,109.492L25.317,107.771L25.161,106.441L24.615,105.044L23.053,103.058L23.288,101.878L22.897,100.763L23.444,100.304L23.366,98.576L23.99,96.825L23.834,95.883L24.38,94.634L24.146,92.003L22.663,90.093L22.819,89.126L22.351,86.401L22.585,85.411L23.678,83.826L24.224,81.932L24.38,80.036L24.146,78.8L25.161,77.653L26.254,77.189L26.098,76.659L26.957,76.659L27.737,75.51L26.801,74.626L25.395,74.007L26.176,71.419L25.473,70.622L25.239,68.805L23.912,67.276L23.131,65.679L22.741,62.37L21.726,61.37L22.038,60.569L21.336,59.858L18.76,43.941L17.589,36.963L16.574,30.346L15.168,21.788L13.373,11.742Z" fill="currentColor"/>
</svg>
