<?xml version="1.0" encoding="UTF-8"?>
<svg xmlns="http://www.w3.org/2000/svg" viewBox="0 0 128 128" fill="none" aria-hidden="true">
  <path d="M96.454,83.758L96.612,82.872L98.116,81.342L99.066,81.201L100.095,79.327L101.361,78.279L101.599,77.11L100.253,75.214L99.937,74.306L99.858,72.186L100.491,71.439L101.916,71.621L103.34,72.267L103.578,72.913L105.319,73.801L106.507,74.75L107.456,74.629L109.435,75.274L112.522,76.827L113.551,77.211L115.293,78.44L116.559,79.589L117.905,81.12L117.668,82.067L117.747,83.879L118.38,84.08L119.646,83.838L120.201,84.986L120.121,86.132L121.863,87.781L123.604,88.566L124,88.988L123.683,89.872L122.654,90.897L121.309,91.841L120.201,92.965L118.38,93.728L116.797,94.672L115.214,95.033L113.947,94.732L113.235,94.913L111.81,96.237L110.544,96.738L109.515,97.701L108.406,98.022L107.456,99.205L107.536,99.866L106.902,100.608L106.507,101.79L104.923,103.052L103.736,101.83L101.995,100.788L100.253,100.207L99.462,98.303L99.858,96.036L100.174,93.006L99.383,90.877L99.462,89.952L98.749,89.711L98.354,87.42L97.799,86.092L97.087,85.931ZM82.285,56.058L82.681,54.658L83.551,53.522L84.66,53.4L85.689,54.07L86.48,55.652L87.272,56.666L89.172,56.078L90.596,55.368L92.654,55.794L92.654,56.119L94,57.153L94.792,57.457L95.187,58.268L97.641,59.018L98.037,59.666L98.037,60.72L97.404,61.591L96.375,62.401L95.9,62.34L94.554,63.069L93.446,62.866L91.071,63.939L89.409,64.121L88.063,63.595L87.509,59.342L86.955,58.937L85.847,59.423L83.789,58.41L82.76,57.234ZM82.206,65.214L82.76,64.627L84.976,63.473L85.768,64.081L85.451,64.971L85.847,65.315L84.818,65.699L84.422,65.396L82.997,65.861ZM74.29,56.443L74.844,55.896L75.873,55.794L77.931,56.18L79.277,57.396L79.91,58.43L79.198,59.747L77.694,60.335L76.348,60.436L75.794,59.22L75.557,57.741L74.449,57.092ZM68.828,51.776L69.303,50.72L70.016,50.131L69.858,48.952L71.203,48.993L71.441,49.277L75.715,49.866L76.507,49.176L76.823,50.029L78.565,50.293L80.702,49.927L82.047,50.435L81.414,51.552L79.989,52.588L78.406,53.014L75.636,52.365L73.578,51.735L72.391,52.019L70.095,52.121ZM47.456,40.487L50.86,40.304L51.889,39.305L52.206,38.592L53.235,37.613L54.343,37.308L54.818,37.858L55.293,39.285L56.876,40.996L57.193,42.056L56.876,42.361L57.113,43.318L58.538,44.437L58.776,43.277L59.726,43.318L59.409,44.62L60.042,45.109L59.963,45.699L61.309,47.122L60.359,47.875L59.488,47.509L57.826,48.098L57.351,47.57L56.005,46.939L54.026,46.716L51.652,47.122L51.098,47.041L50.544,45.333L49.673,44.641L49.594,44.01L48.485,42.646L48.485,41.404ZM14.211,29.754L14.29,28.937L15.161,28.16L15.478,27.158L18.09,25.685L18.723,25.153L20.544,25.521L20.781,25.009L22.047,25.234L22.681,24.948L23.868,25.357L24.66,26.114L25.055,27.035L25.055,27.976L24.185,29.264L24.264,31.43L23.947,32.002L21.731,33.594L21.098,33.288L18.248,33.043L16.823,31.593L14.923,31.001ZM4.079,34.064L4.396,33.186L5.346,32.287L6.85,31.368L7.008,30.592L7.879,30.408L8.037,31.041L7.641,32.206L7.799,32.941L6.216,33.513L4.95,35.492L4,34.88Z" fill="currentColor"/>
</svg>
