<?xml version="1.0" encoding="UTF-8"?>
<svg xmlns="http://www.w3.org/2000/svg" viewBox="0 0 128 128" fill="none" aria-hidden="true">
  <path d="M30.804,57.271L30.331,55.893L30.03,55.73L30.761,54.35L30.245,53.756L30.245,52.819L29.902,52.016L29.042,50.884L29.343,50.168L29.343,31.382L29.3,30.59L29.3,19.837L29.386,15.419L29.386,8.566L29.429,4.031L36.777,4.016L41.203,4L41.203,16.518L41.16,18.202L41.203,22.499L42.879,24.831L43.524,25.153L43.868,26.5L44.211,26.408L44.512,27.127L45.071,27.494L44.985,28.456L45.5,29.295L44.942,29.783L44.856,30.301L45.329,30.377L45.543,31.245L46.231,31.352L46.102,31.686L45.157,31.808L44.641,32.355L45.114,32.325L47.133,33.647L47.434,34.466L48.809,35.148L49.841,35.3L50.227,35.921L50.141,36.496L50.614,36.602L50.829,37.162L51.345,37.358L52.075,38.175L52.892,39.412L53.15,40.317L53.708,40.302L54.568,41.206L54.396,42.275L55.083,43.162L56.544,44.033L56.286,44.858L56.544,45.113L57.189,44.798L57.361,44.348L57.962,44.483L58.263,44.933L58.005,45.518L58.349,46.102L59.166,46.027L60.111,46.252L60.283,45.937L61.4,45.593L61.744,45.743L61.873,46.611L61.443,48.451L60.927,48.496L61.228,49.526L60.67,50.496L60.627,52.224L60.068,52.581L60.326,53.028L60.369,54.202L59.552,54.306L59.466,55.033L60.197,55.523L59.81,56.382L59.982,57.182L60.799,57.582L60.541,58.307L61.099,59.105L60.799,59.755L59.724,59.77L58.951,61.083L59.767,62.174L59.724,62.88L58.951,63.425L59.295,63.954L59.123,64.733L60.197,64.733L60.756,65.614L61.357,65.937L61.572,66.465L62.603,65.849L62.732,64.997L63.291,65.174L64.107,64.792L64.924,63.587L65.568,63.072L65.483,62.468L65.869,62.277L66.514,62.66L66.944,63.307L66.858,63.689L67.373,63.66L68.018,64.028L67.717,65.423L68.534,65.423L68.577,66.098L68.319,66.538L68.577,67.374L68.92,67.652L68.834,68.676L69.436,69.466L69.479,69.978L70.51,71.044L70.811,72.108L71.542,72.327L71.456,72.706L72.272,73.274L72.444,74.162L72.358,74.961L71.756,75.15L72.229,76.559L73.432,77.328L73.604,77.907L74.722,77.27L76.097,78.11L76.87,79.688L77.085,80.411L76.698,81.105L77.601,82.274L77.386,82.764L77.644,83.528L78.288,84.104L79.062,84.45L79.534,85.083L79.921,84.766L79.663,84.004L80.308,82.966L81.038,82.634L81.769,82.952L83.187,82.981L83.66,83.326L84.004,83.038L85.035,83.586L85.379,82.937L85.465,82.057L85.851,82.057L86.238,81.552L86.926,81.653L87.441,82.158L88.043,82.043L88.387,82.36L89.289,81.928L89.719,82.115L90.277,81.754L91.223,81.639L91.782,82.548L93.071,81.971L93.2,81.697L94.231,81.884L94.618,81.653L95.993,82.029L95.348,81.105L96.036,79.688L95.821,79.211L96.68,79.167L97.024,78.414L97.755,78.936L98.958,80.628L98.872,81.249L99.903,82.101L100.161,82.808L101.064,83.139L101.021,85.155L101.064,88.988L101.064,96.354L101.106,96.723L101.106,112.1L101.064,114.38L101.064,123.779L95.993,123.82L87.57,123.862L87.355,123.792L79.105,123.82L67.846,124L65.225,123.917L60.111,123.875L58.564,123.903L56.072,123.779L53.364,123.875L49.97,123.875L37.379,123.875L29.472,123.806L29.472,94.247L29.558,93.405L30.03,93.248L30.03,92.478L30.546,91.321L30.589,90.706L30.116,90.248L30.073,89.647L30.589,89.403L31.019,88.515L30.976,88.07L30.202,87.827L30.116,87.066L29.257,87.238L28.569,86.391L27.753,86.75L27.194,86.247L27.538,85.443L26.894,84.45L27.237,83.931L27.108,82.981L27.882,82.288L28.312,81.336L28.655,79.934L29.257,78.588L30.632,77.878L30.632,77.574L31.406,76.472L31.792,75.484L31.492,74.641L31.62,73.9L32.222,73.259L32.48,72.487L33.039,71.904L33.339,70.211L33.726,69.466L33.683,68.94L34.714,66.743L35.144,66.406L35.187,65.599L36.218,64.013L35.918,63.219L35.359,62.498L35.359,61.717L34.671,61.009L33.855,60.98L33.425,60.286L32.652,60.36L31.964,59.253L31.492,58.854Z" fill="currentColor"/>
</svg>
