<?xml version="1.0" encoding="UTF-8"?>
<svg xmlns="http://www.w3.org/2000/svg" viewBox="0 0 128 128" fill="none" aria-hidden="true">
  <path d="M32.155,51.316L32.872,51.015L32.753,50.076L32.992,48.384L32.335,47.726L33.111,46.427L34.963,45.617L36.039,45.636L37.114,44.863L37.174,43.712L37.533,42.788L37.592,41.522L38.19,41.012L39.026,39.763L39.683,39.404L40.042,37.397L39.982,35.538L39.205,34.114L38.429,34L37.234,32.385L37.891,30.92L38.011,29.511L38.369,28.462L39.504,28.062L40.281,28.348L41.655,27.585L43.507,27.699L44.941,27.375L45.897,26.306L46.494,26.058L48.048,26.077L49.123,24.988L50.079,24.586L50.019,23.324L50.557,22.194L50.557,21.198L51.095,20.642L52.768,19.703L52.708,18.916L53.186,17.533L53.007,16.418L53.425,15.245L53.007,14.533L53.066,12.818L52.29,12.027L49.482,10.619L48.586,9.189L48.765,8.029L47.809,6.81L46.494,6.093L46.375,5.59L45.061,4.911L45.061,4L47.749,4.039L61.311,4.078L64.358,4.175L75.949,4.388L78.399,4.31L87.48,4.291L92.379,4.388L92.26,6.791L91.782,8.667L92.379,10.773L93.634,13.03L94.351,13.743L94.53,14.783L95.307,17.456L95.546,18.897L96.382,20.681L96.86,21.064L96.98,21.965L96.92,26.822L96.92,49.475L96.86,54.11L96.86,59.608L96.801,59.832L96.801,67.223L96.86,67.223L96.86,73.653L96.084,73.819L95.725,74.411L95.606,75.52L96.143,76.443L95.008,77.55L95.187,78.896L96.143,79.909L96.084,81.363L97.159,82.098L96.502,84.138L97.398,85.863L97.458,86.634L96.621,88.026L95.785,88.246L95.367,88.832L94.829,90.351L94.829,91.557L93.395,92.325L93.515,93.019L92.738,94.552L92.26,94.716L91.483,96.575L91.005,95.974L90.587,96.72L90.288,96.083L89.751,97.321L89.213,97.139L89.452,98.213L90.288,99.305L88.974,100.631L89.691,100.286L89.571,100.976L88.436,101.322L88.914,101.794L88.854,102.882L87.958,104.097L88.854,104.623L87.42,104.478L88.376,106.144L87.659,105.981L87.898,106.597L88.556,106.633L88.078,107.827L87.062,108.46L86.405,109.472L86.823,111.367L88.018,112.594L87.659,113.495L84.792,113.837L84.075,114.035L82.999,114.972L82.163,114.503L81.087,115.296L80.968,116.285L80.43,117.454L80.55,117.903L81.565,119.07L81.984,120.255L81.386,121.851L80.49,122.03L79.713,121.797L78.578,120.865L76.487,120.147L75.65,119.447L73.798,118.693L72.663,118.604L71.886,118.981L71.11,119.735L70.572,120.901L69.616,121.833L69.377,122.818L70.214,123.749L69.556,124L69.078,123.051L68.063,122.048L67.226,122.263L68.122,123.069L67.525,123.552L66.091,122.55L66.151,121.6L65.494,120.775L64.717,119.214L64.777,118.37L63.761,117.418L64.239,116.411L65.135,116.195L65.374,115.08L63.821,112.179L63.701,111.277L64.478,111.133L63.821,109.905L63.821,108.875L62.686,108.442L62.148,107.682L61.311,107.628L61.431,106.904L60.057,105.637L59.161,105.42L59.101,104.895L58.324,104.387L57.727,104.949L56.532,104.859L56.173,103.952L56.89,103.517L56.711,103.028L55.755,103.155L54.739,102.066L54.261,102.066L53.604,101.085L52.111,100.413L50.916,98.795L49.84,97.886L49.541,96.611L49.601,95.19L50.019,94.241L51.035,93L51.394,91.192L52.708,89.436L52.828,88.759L52.23,87.074L53.007,85.992L53.724,85.46L53.843,84.359L51.573,82.852L50.617,82.76L49.004,81.933L47.869,82.007L47.331,83.22L46.674,83.808L46.016,83.936L44.702,82.668L44.523,81.473L43.866,79.909L44.403,79.246L43.925,77.808L43.746,76.147L42.551,74.485L39.026,71.951L38.07,70.951L37.413,69.542L36.636,69.394L36.039,68.114L35.382,67.854L34.485,66.796L32.932,65.365L33.111,64.23L32.872,63.709L31.976,63.076L31.677,62.368L32.155,61.138L31.737,60.615L30.901,58.768L30.542,55.683L30.662,54.353L31.677,51.653Z" fill="currentColor"/>
</svg>
