<?xml version="1.0" encoding="UTF-8"?>
<svg xmlns="http://www.w3.org/2000/svg" viewBox="0 0 128 128" fill="none" aria-hidden="true">
  <path d="M38.986,5.623L40.231,6.713L41.226,6.182L41.807,6.58L41.309,7.644L43.549,8.255L45.955,8.228L48.278,7.564L52.592,5.57L55.164,4L62.631,4.027L79.058,4.053L94.573,4.027L101.79,4L101.79,5.995L101.873,12.421L101.873,48.673L101.625,60.02L101.625,71.408L101.459,78.554L101.459,84.653L99.882,85.805L99.716,86.316L101.044,88.131L101.21,88.922L100.297,89.893L100.546,90.837L101.956,91.015L102.288,91.653L101.21,92.826L101.707,93.947L99.882,93.871L98.555,94.457L97.808,94.329L94.904,95.933L93.743,96.926L92.167,96.671L91.337,95.577L89.18,95.755L87.852,95.577L86.857,96.417L87.189,99.595L87.686,101.399L86.359,102.414L85.778,103.53L83.289,104.392L81.713,108.47L80.137,109.456L78.975,108.849L78.145,109.178L77.648,110.771L76.32,112.59L76.403,114.786L75.988,116.551L75.325,117.156L73.417,117.61L73.085,118.517L72.006,117.056L70.181,117.03L68.024,115.644L67.941,113.272L66.199,111.58L65.535,111.63L65.618,112.489L66.696,112.792L66.613,113.423L65.535,113.474L64.871,114.206L64.207,113.625L63.461,114.357L64.207,114.786L63.71,115.846L62.216,116.072L62.05,118.441L62.465,119.398L60.557,119.625L60.391,121.21L59.478,121.939L58.898,121.336L59.312,120.052L58.483,119.801L57.653,120.43L56.824,119.876L55.828,117.635L54.418,117.685L53.256,118.995L50.85,119.675L50.02,120.43L49.606,122.869L49.025,123.548L48.112,123.623L47.449,122.065L45.955,121.738L44.13,120.304L42.305,119.197L40.645,119.046L39.484,119.977L38.322,119.499L37.825,118.265L37.161,118.114L36.58,119.776L37.493,121.386L36.414,122.392L35.502,122.316L35.75,120.908L35.336,120.153L31.851,120.933L30.939,119.625L30.192,119.524L29.362,120.531L30.192,122.819L29.196,124L27.288,123.196L26.375,123.146L26.044,122.291L27.039,122.517L25.712,120.203L27.703,120.405L26.458,119.675L27.703,117.988L27.786,116.476L27.122,115.82L28.698,115.341L28.864,114.383L27.869,114.862L29.694,113.019L28.533,111.504L28.201,110.013L28.947,110.266L29.694,108.546L30.109,109.431L30.69,108.394L31.353,109.229L32.432,106.647L33.096,106.419L34.174,104.291L34.008,103.327L35.999,102.262L35.999,100.586L36.746,98.477L37.327,97.663L38.488,97.358L39.65,95.424L39.567,94.355L38.322,91.959L39.235,89.127L37.742,88.105L37.825,86.086L36.497,84.679L36.248,82.81L37.825,81.273L37.078,79.991L37.244,78.452L37.742,77.63L38.82,77.399L38.82,68.47L38.737,68.47L38.737,58.207L38.82,57.896L38.82,50.261L38.903,43.825L38.903,12.368Z" fill="currentColor"/>
</svg>
