<?xml version="1.0" encoding="UTF-8"?>
<svg xmlns="http://www.w3.org/2000/svg" viewBox="0 0 128 128" fill="none" aria-hidden="true">
  <path d="M7.317,25.206L20.517,25.206L41.28,25.206L53.221,25.228L68.013,25.228L75.708,25.206L90.567,25.206L104.1,25.206L103.768,26.344L104.431,27.437L104.365,29.053L106.156,29.948L107.018,31.606L105.824,32.913L105.426,34.045L104.829,34.567L104.896,36.915L105.426,38.825L105.426,40.3L106.222,40.842L107.085,44.499L109.274,45.882L112.391,46.681L113.519,47.113L114.713,49.463L114.713,50.26L114.713,51.272L116.172,52.025L116.305,52.585L117.765,53.38L118.826,54.734L118.627,56.022L119.622,57.609L122.74,59.173L123.602,60.051L123.536,61.954L124,62.745L123.536,64.048L123.735,65.286L123.204,66.821L123.27,67.695L121.413,68.738L120.816,69.355L120.816,70.461L120.219,71.715L120.285,73.117L119.224,73.563L118.03,74.772L116.305,74.751L115.642,75.026L114.58,76.213L112.988,76.573L110.932,76.446L109.406,77.293L108.544,76.976L107.284,77.42L106.886,78.584L106.753,80.149L106.023,81.776L107.35,83.569L108.212,83.696L109.075,85.277L109.141,87.34L108.743,89.569L108.013,89.968L107.085,91.354L106.421,91.92L106.355,93.325L105.957,94.352L105.891,95.63L104.697,96.488L103.502,96.467L101.446,97.366L100.584,98.808L101.313,99.54L101.048,101.418L101.181,102.461L100.385,102.794L99.124,102.648L98.395,102.002L98.328,100.834L97.665,100.792L96.604,99.602L96.67,98.85L95.476,98.558L95.41,97.868L94.614,97.073L87.914,97.366L77.831,97.638L64.763,97.889L60.65,97.889L52.027,98.056L41.678,98.119L31.131,97.952L20.053,97.763L20.318,97.178L19.655,96.006L18.793,95.672L17.798,94.457L17.93,93.682L18.793,92.948L18.527,91.207L19.191,90.136L18.726,89.569L18.859,88.181L18.262,87.761L18.328,86.877L17.864,86.245L18.196,85.677L17.864,83.717L18.66,83.358L17.068,82.852L17.333,82.071L17.002,80.741L17.864,79.874L16.537,79.303L17.002,78.69L16.935,76.234L15.609,76.022L15.741,74.39L15.144,74.369L15.012,75.153L14.017,74.56L14.216,73.372L13.486,72.544L13.95,71.715L13.42,70.844L14.149,70.461L13.751,69.313L14.282,68.887L14.481,67.908L13.685,67.418L13.619,66.608L12.69,65.307L13.088,65.072L13.287,63.664L12.226,63.536L12.292,62.895L11.297,62.66L11.629,62.318L10.633,61.783L10.7,60.008L9.24,58.809L9.041,57.78L9.705,57.244L8.776,55.034L8.046,54.411L8.046,52.778L8.643,51.832L8.378,50.885L7.449,50.712L6.587,50.045L6.852,49.075L6.189,47.199L5.061,45.904L4.066,45.32L4,43.678L4.73,43.115L4.929,41.99L5.658,41.643L5.658,39.91L6.454,38.912L6.056,38.457L6.587,37.849L6.255,36.633L7.184,36.285L7.648,34.85L7.051,34.089L6.919,32.281L5.327,32.216L5.526,31.54L4.995,30.406L5.924,30.297L5.99,27.896L4.531,26.497L4.995,25.687L4.663,25.206Z" fill="currentColor"/>
</svg>
