<?xml version="1.0" encoding="UTF-8"?>
<svg xmlns="http://www.w3.org/2000/svg" viewBox="0 0 128 128" fill="none" aria-hidden="true">
  <path d="M4,33.066L18.834,33.084L24.837,33.084L40.017,33.102L55.775,33.084L65.183,33.084L81.287,33.102L96.468,33.12L104.779,33.12L112.456,33.12L113.38,34.202L114.13,34.4L114.188,35.175L114.938,35.067L115.227,35.715L116.727,35.967L117.189,35.229L118.574,35.463L118.343,35.967L118.747,36.561L119.382,36.759L119.152,37.514L118.632,37.532L118.805,38.179L119.498,37.892L119.44,38.772L118.863,38.88L118.113,38.449L117.824,39.796L116.958,40.137L116.554,40.872L116.67,41.607L115.688,42.038L115.746,42.898L116.612,43.632L116.67,44.151L117.593,44.706L118.286,45.796L119.094,45.796L119.382,46.172L118.863,46.618L119.209,48.029L120.248,48.957L120.075,49.456L120.941,49.688L121.229,50.241L122.038,50.437L122.557,50.152L122.846,50.704L124,50.758L123.711,51.488L123.711,59.373L123.654,61.496L123.654,73.754L123.596,74.666L123.596,88.26L123.538,89.944L123.538,94.813L109.166,94.795L97.853,94.813L88.098,94.813L75.515,94.813L63.509,94.83L48.618,94.795L42.672,94.795L33.784,94.743L25.183,94.813L13.12,94.882L4.173,94.934L4.173,75.98L4.115,73.579L4.115,51.132L4.058,47.69L4.058,39.921Z" fill="currentColor"/>
</svg>
