<?xml version="1.0" encoding="UTF-8"?>
<svg xmlns="http://www.w3.org/2000/svg" viewBox="0 0 128 128" fill="none" aria-hidden="true">
  <path d="M10.966,80.907L10.173,80.025L10.399,79.091L11.305,78.207L11.815,77.102L12.551,76.387L13.287,76.03L14.363,76.115L16.119,76.83L16.912,77.493L18.894,78.173L19.97,79.057L20.706,79.278L21.555,79.108L22.122,77.595L21.725,76.472L20.763,75.366L20.649,74.94L21.159,73.832L21.272,72.894L22.292,72.144L23.084,72.587L24.104,71.7L24.783,71.512L27.502,71.188L27.841,70.333L26.709,69.171L26.312,67.374L26.935,66.415L27.898,65.815L28.351,64.684L29.654,65.232L30.333,64.426L29.767,62.864L30.333,62.177L30.843,62.246L31.466,63.139L33.844,62.607L34.127,63.122L33.958,64.083L34.58,64.135L35.317,63.448L34.694,62.349L35.09,61.215L35.543,61.318L35.883,62.16L36.676,62.486L37.469,61.851L38.601,61.954L39.847,62.71L41.093,63.688L42.112,63.911L42.565,64.975L43.188,64.924L43.585,64.461L43.868,62.796L44.434,62.28L46.076,61.816L46.869,60.922L47.832,60.888L48.512,62.418L49.078,62.796L49.644,62.366L50.21,62.538L49.927,63.414L50.324,63.826L50.947,63.328L51.06,62.246L52.362,62.091L52.079,61.438L52.193,59.821L53.212,59.666L53.552,58.943L53.042,58.65L53.552,58.151L54.005,58.547L54.458,58.047L55.194,58.013L55.251,57.582L54.514,57.375L54.458,56.789L54.911,56.755L56.1,57.91L56.157,59.529L57.629,60.475L58.875,60.492L59.611,61.49L59.838,60.871L61.14,60.561L61.593,60.148L61.876,58.943L61.82,57.444L62.726,56.203L63.066,55.115L63.632,54.891L64.425,55.305L65.501,54.632L66.577,51.848L68.276,51.26L68.672,50.498L69.578,49.805L69.238,48.574L69.012,46.405L69.691,45.831L70.597,45.953L72.07,45.831L72.636,46.578L73.712,46.752L74.505,46.075L76.487,44.98L76.997,45.067L77.903,44.667L79.149,44.719L78.809,43.953L79.545,43.153L79.319,42.718L78.356,42.596L78.186,41.951L78.809,41.289L78.696,40.748L77.79,39.51L77.903,39.161L78.979,38.375L79.998,37.536L80.395,37.571L81.244,38.515L82.433,39.004L83.226,38.497L84.019,38.55L84.472,38.043L84.925,38.183L85.151,39.388L86.794,39.946L87.36,41.411L88.266,42.857L88.266,44.006L88.549,44.458L90.815,45.171L92.683,44.841L94.326,45.64L94.496,46.231L95.345,46.683L95.628,47.551L97.214,48.054L98.007,46.908L99.479,46.526L100.328,47.082L101.914,47.429L102.537,47.846L102.82,48.592L103.556,48.175L105.255,48.193L105.822,47.273L106.841,46.683L107.351,46.005L108.2,46.005L109.389,45.449L109.786,46.022L109.616,46.787L110.126,48.713L110.862,49.354L112.051,49.458L113.24,50.827L113.976,51.433L114.09,52.194L114.033,53.751L114.486,54.373L114.429,55.374L113.807,55.944L114.033,56.289L113.863,57.237L113.41,57.237L113.41,57.892L114.26,58.53L114.826,59.305L115.336,60.681L116.185,61.06L115.562,62.005L116.015,62.675L116.865,63.002L116.808,63.585L117.544,64.632L118.11,64.958L118.847,67.254L119.696,67.443L120.092,68.162L120.602,68.127L120.999,68.812L121.452,68.829L121.622,69.462L123.207,69.974L124,69.906L117.884,75.315L115.789,75.979L114.543,76.677L113.467,77.51L112.051,78.275L112.051,79.736L111.145,80.398L110.465,80.432L109.786,80.992L109.956,81.993L109.616,82.756L108.2,83.366L106.558,83.433L105.652,84.788L105.538,85.634L104.632,85.702L102.764,86.293L100.555,87.172L99.366,87.139L97.497,87.966L97.044,88.422L96.817,88.777L92.117,88.642L87.643,88.608L83.339,88.523L78.639,88.338L75.751,88.068L71.56,87.916L68.445,88.152L63.009,88.017L59.838,87.848L55.137,87.476L52.362,87.409L51.456,87.78L51.06,87.409L42.792,87.612L37.582,87.645L31.126,87.78L31.183,87.189L27.728,86.902L28.294,89.384L27.955,90.464L20.196,90.362L13.061,90.362L8.304,90.261L6.435,90.43L7.171,88.034L7.908,87.814L8.927,89.131L9.663,88.827L10.059,87.628L10.513,87.139L9.89,86.158L10.116,85.414L11.022,85.465L11.192,84.991L10.229,84.365L10.286,83.721L10.852,83.569L11.192,82.79L11.475,81.264ZM5.359,90.464L4.51,90.447L4,89.469L4.227,88.962L5.416,88.996L5.699,89.823Z" fill="currentColor"/>
</svg>
