<?xml version="1.0" encoding="UTF-8"?>
<svg xmlns="http://www.w3.org/2000/svg" viewBox="0 0 128 128" fill="none" aria-hidden="true">
  <path d="M122.516,89.144L123.588,90.58L124,92.31L123.753,94.608L122.929,96.995L122.599,96.927L123.258,94.881L123.588,92.606L123.505,91.559ZM111.885,88.985L112.791,88.119L115.429,86.271L115.593,86.591L114.522,88.028L114.687,88.666L115.758,89.418L114.522,90.557L114.275,89.486L113.451,89.714L112.049,89.486ZM105.374,102.851L106.775,102.624L106.033,103.576ZM88.148,114.095L88.725,113.486L89.797,114.953L89.137,115.269ZM83.945,114.479L87.159,115.224L85.593,115.404ZM79.577,115.472L81.637,115.043L81.802,115.427L79.659,115.878ZM50.484,101.377L51.308,100.764L52.297,100.878L52.544,100.288L54.357,100.424L56.253,101.808L56.995,101.649L57.489,102.307L56.253,103.123L56.17,104.03L55.016,104.46L50.154,101.853ZM4,9.213L19.247,9.26L26.335,9.26L39.275,9.424L51.967,9.542L70.016,9.636L69.192,10.812L68.945,11.94L69.687,12.457L70.841,11.846L70.758,10.271L71.665,10.177L72.407,11.87L72.242,12.786L70.511,14.007L70.099,14.876L70.016,16.542L72.571,17.245L72.407,17.878L71.088,18.652L70.346,19.542L70.593,20.76L71.088,21.087L72.736,20.479L73.231,19.401L73.808,20.268L73.148,21.134L71.995,21.86L73.725,23.03L74.137,23.638L73.313,23.802L71.912,22.679L71.5,22.702L71.253,24.059L73.148,25.204L73.973,24.737L74.632,25.555L73.973,26.022L73.973,27.377L75.868,27.774L76.363,26.84L76.692,27.26L75.374,29.104L74.385,28.918L74.549,30.154L74.137,31.133L72.984,30.411L72.407,31.04L70.181,31.507L70.016,33.347L72.654,33.604L72.489,32.159L73.725,32.718L72.984,34.326L71.995,34.838L71.582,35.676L70.511,34.768L70.099,35.35L71.665,35.955L71.665,37.118L70.099,37.444L69.522,38.025L69.687,39.187L67.709,40.999L68.203,41.487L67.791,42.137L67.214,41.742L67.049,40.744L66.06,40.999L65.484,43.181L67.874,43.437L67.544,43.854L65.648,43.97L64.742,44.782L64.659,47.239L63.176,47.239L62.352,46.59L61.94,47.47L62.681,48.165L64.165,47.864L64.495,48.605L63.505,49.415L61.857,49.832L61.94,51.543L63.011,53.277L63.011,53.947L62.269,54.109L61.61,53.439L61.28,52.283L60.538,53.185L61.115,53.555L61.198,54.594L62.187,55.449L62.022,56.441L60.621,56.903L59.137,56.741L59.055,57.618L60.044,58.31L60.291,59.256L59.467,60.316L59.549,60.961L60.868,62.113L60.291,63.448L59.22,63.931L77.846,63.931L88.89,63.908L102.489,63.862L103.066,64.691L102.489,65.197L102.571,66.232L101.995,66.668L101.253,69.54L100.676,70.114L101.005,70.941L100.181,72.959L100.841,73.28L101.17,75.458L101.995,76.237L102.324,77.13L103.231,77.565L104.055,78.549L104.055,79.784L105.291,81.545L105.291,83.121L105.621,84.628L106.692,85.769L107.681,85.769L106.28,86.568L105.621,86.408L104.22,87.686L104.055,88.552L103.066,88.894L103.313,89.805L101.005,89.418L100.099,90.443L100.511,91.992L101.995,92.219L103.066,91.65L102.736,92.993L103.396,93.767L104.632,94.199L105.703,93.949L106.198,93.289L106.61,90.99L106.445,90.694L108.423,89.463L108.67,88.461L110.154,89.236L111.225,89.099L111.225,89.577L109.824,90.352L109.824,91.126L111.06,91.514L111.308,92.902L112.544,92.583L113.451,90.716L114.769,91.286L114.44,92.538L113.368,92.538L112.379,93.539L114.192,93.494L113.945,94.153L111.39,94.654L112.462,96.154L113.368,95.654L112.791,96.995L112.049,96.404L110.896,96.154L109.907,97.404L109.824,99.652L109.082,99.766L108.588,97.813L107.681,97.79L107.516,99.289L108.588,100.605L107.516,99.857L106.363,99.743L105.703,100.129L104.467,99.993L105.951,100.878L105.951,101.604L104.055,100.492L104.055,101.059L105.044,101.785L104.055,102.103L104.137,102.874L105.044,103.69L106.692,103.939L106.61,104.438L107.599,104.981L107.516,105.751L108.093,106.793L108.835,106.114L109.247,106.589L111.06,106.634L112.379,107.404L112.626,106.725L114.275,108.784L115.181,107.789L117.159,110.3L117.159,111.633L117.654,111.927L119.137,111.294L119.714,112.221L117.736,112.56L117.571,113.305L118.89,113.373L118.231,114.547L117.324,114.005L116.335,116.172L116.5,117.164L114.769,116.352L114.604,115.111L113.945,114.75L111.39,117.863L110.154,118.787L110.731,117.277L111.473,116.623L111.885,115.54L112.626,115.066L112.626,113.847L113.368,113.328L113.286,112.176L112.462,111.633L112.132,113.034L110.813,113.689L109.824,113.034L108.67,111.294L105.868,110.322L105.044,109.305L100.429,108.558L99.44,108.875L95.484,112.108L91.692,114.705L91.115,114.479L91.445,113.553L90.456,113.192L90.291,112.266L90.786,112.198L89.797,109.938L88.89,109.327L88.148,109.35L88.231,109.983L87.571,110.797L87.736,109.078L86.912,107.812L85.841,109.259L84.687,108.943L84.11,109.44L83.533,108.739L83.038,109.35L83.863,110.774L82.874,110.684L82.297,111.294L81.967,112.514L81.308,112.356L80.896,113.644L80.236,113.373L78.67,114.118L78.176,115.833L76.857,115.472L77.269,114.998L76.198,113.486L74.714,112.198L73.808,112.492L71.665,112.017L70.841,111.272L68.78,111L67.462,110.435L66.143,109.078L67.132,108.762L67.709,107.449L68.368,107.721L69.357,108.898L69.934,108.4L69.852,109.938L71.088,110.322L70.758,107.97L68.863,106.521L68.863,105.57L67.956,105.412L67.214,106.34L66.143,106.634L66.308,105.706L65.484,105.865L65.731,104.981L66.473,104.347L65.648,103.44L63.258,104.573L62.434,102.76L61.61,102.942L61.115,100.265L58.973,100.242L59.467,99.493L59.549,97.563L56.912,97.2L55.841,97.427L54.192,98.29L53.615,96.995L54.275,96.063L54.934,96.132L54.769,95.086L53.451,94.904L52.297,95.404L51.555,94.949L51.39,95.859L49.412,96.677L48.258,97.45L47.764,96.722L46.28,97.086L46.28,97.813L47.022,98.494L48.505,98.676L47.764,99.357L48.423,100.787L50.071,100.31L50.484,100.719L49.412,101.037L49.907,101.49L47.269,101.626L45.126,102.738L43.478,102.942L36.72,101.513L33.835,100.56L29.137,98.267L27.242,97.54L23.863,96.632L21.143,96.518L19.989,96.836L17.022,96.677L12.242,97.245L10.841,97.54L8.698,98.744L7.297,96.609L6.555,95.927L6.72,95.359L8.121,94.335L9.192,92.652L9.769,90.876L10.923,89.988L11.83,88.825L11.088,88.392L12.077,86.796L11.335,84.993L11.747,84.103L11.665,82.893L10.346,81.704L10.841,80.013L11.912,78.846L11.5,76.763L10.923,76.214L11.17,75.297L12.324,74.61L12.489,73.051L13.478,72.478L13.725,70.803L14.467,69.357L15.209,68.599L14.879,67.151L15.126,66.278L15.868,65.772L14.879,64.507L14.962,63.747L16.033,63.264L15.868,62.021L15.209,61.307L15.703,58.956L14.137,59.232L13.643,56.626L13.148,56.672L12.159,55.587L12.654,54.363L12.407,53.231L11.747,52.884L11.83,52.145L10.676,51.312L11.17,50.688L10.923,49.878L9.852,49.739L9.11,48.998L8.615,47.818L9.192,47.169L8.945,46.126L9.522,45.153L8.863,43.854L9.027,43.065L7.791,41.789L7.049,39.861L5.566,39.141L4.659,37.467L4,37.188Z" fill="currentColor"/>
</svg>
