<?xml version="1.0" encoding="UTF-8"?>
<svg xmlns="http://www.w3.org/2000/svg" viewBox="0 0 128 128" fill="none" aria-hidden="true">
  <path d="M76.703,93.948L77.667,93.787L77.185,94.592ZM74.224,94.844L74.706,92.937L75.119,93.718L76.428,94.982L75.395,96.015L75.051,95.235ZM73.674,89.898L73.88,88.93L74.638,90.566ZM67.684,92.799L68.647,92.753L68.854,93.695ZM66.307,103.024L66.857,102.178L66.926,103.892ZM65.687,96.107L66.238,95.166L67.959,94.132L68.716,95.281L68.097,95.464L69.061,97.254L68.303,98.149L67.064,98.447L66.238,97.896L66.582,97.323L66.375,96.176ZM65.274,92.385L66.169,90.819L66.307,89.345L66.926,88.769L67.339,89.368L66.72,90.174L66.788,91.004L66.238,92.615L65.549,93.282ZM31.95,124L29.54,122.172L29.54,120.613L29.953,119.664L27.13,116.767L26.51,115.565L27.061,113.274L26.786,113.047L27.199,111.047L26.786,110.524L26.442,103.389L26.442,101.354L25.684,81.534L24.651,63.898L26.097,63.547L26.097,62.773L27.819,63.734L27.75,64.625L28.232,65.631L28.989,65.982L29.884,63.992L30.022,61.976L29.609,61.319L30.435,60.474L30.986,60.544L31.812,61.577L33.258,61.788L33.327,60.873L31.674,58.923L31.605,58.171L33.12,55.653L34.084,55.016L34.841,54.003L35.392,54.026L36.425,53.059L38.077,52.162L37.458,50.485L38.904,48.924L40.487,47.859L40.832,46.533L40.35,45.869L39.386,45.869L39.386,44.304L40.074,43.402L39.523,43.069L40.556,41.858L40.9,40.764L39.868,39.717L40.969,36.977L41.52,36.548L41.451,35.665L42.622,34.901L43.586,33.492L44.343,33.301L45.513,25.536L60.316,4L61.212,4.073L63.071,4.999L63.828,4.902L63.621,6.314L63.69,9.741L63.966,10.178L66.513,11.949L68.234,10.906L70.024,10.178L71.952,10.129L72.71,8.867L74.775,8.599L76.497,8.891L76.497,7.384L77.598,6.825L79.319,6.971L80.903,7.846L81.178,8.624L83.45,10.275L85.929,13.475L85.929,13.839L87.857,15.073L87.857,28.201L88.064,44.731L87.995,46.415L88.614,47.125L87.582,48.049L88.545,49.705L87.513,50.509L87.582,53.72L89.165,54.144L89.372,53.673L90.06,55.016L91.368,55.676L93.434,56.218L94.398,55.77L94.949,57.23L95.018,58.547L94.122,58.359L93.365,58.876L93.847,60.474L94.949,61.953L94.329,63.664L93.64,64.625L95.224,67.339L95.224,67.876L96.463,68.811L97.358,68.157L97.427,67.082L98.667,67.783L99.975,67.853L100.87,69.161L101.283,70.352L100.732,70.678L101.421,71.425L102.247,73.708L103.28,74.592L103.349,77.336L102.522,78.497L101.834,78.45L101.558,79.193L99.355,81.812L97.703,82.391L97.978,82.901L96.945,83.086L97.358,82.113L97.083,80.144L95.224,80.839L96.05,82.183L95.224,83.178L94.467,82.877L93.572,84.219L92.677,83.803L91.988,84.081L92.126,84.89L93.227,85.814L91.713,87.13L90.818,86.068L90.404,84.751L89.509,84.982L89.303,85.86L88.752,85.791L88.27,84.427L87.788,85.86L87.168,86.184L86.618,87.892L86.136,87.454L85.723,88.561L85.447,87.592L84.07,88.769L83.726,88.146L82.9,90.267L81.798,89.368L81.798,88.538L81.11,89.022L80.352,88.815L80.49,90.336L79.388,91.97L80.146,92.73L77.736,93.098L76.152,92.362L75.051,89.898L75.464,89.23L76.978,88.607L76.359,87.569L75.464,88.376L75.601,87.361L74.913,87.431L74.982,88.999L74.638,88.999L74.638,87.523L72.985,88.815L73.329,89.621L72.916,90.612L73.88,92.155L73.674,93.19L72.09,94.959L72.71,95.212L71.883,95.924L72.641,97.209L72.297,98.79L71.195,99.019L70.988,97.071L71.402,96.979L71.195,95.717L70.024,94.684L69.749,93.213L70.782,92.039L69.474,91.119L69.887,90.52L69.198,90.29L67.959,90.773L68.028,88.169L68.785,87.154L68.854,85.999L68.372,85.676L67.89,86.738L66.926,87.661L66.169,86.9L65.687,87.638L64.654,87.731L65.618,89.598L65.411,90.704L64.585,91.234L63.897,92.868L63.621,94.523L62.726,96.314L64.034,97.002L63.139,97.644L63.828,98.951L63.139,99.821L61.28,99.729L60.385,101.377L59.353,101.4L59.215,102.726L58.457,102.932L58.457,101.743L58.939,100.897L58.32,100.554L58.113,101.24L57.287,101.537L57.631,100.05L56.392,100.256L56.461,101.446L55.359,102.292L55.015,103.435L54.189,102.269L54.051,103.343L53.018,104.074L52.192,103.481L51.985,104.988L51.09,103.823L50.195,105.923L48.612,106.539L48.267,106.972L47.923,105.079L46.822,104.965L45.789,105.923L45.445,106.812L44.068,106.721L43.586,107.838L42.209,107.747L41.52,108.863L41.313,110.001L41.658,110.661L41.107,111.388L40.212,110.729L38.697,111.434L38.077,112.479L38.491,114L37.94,114.976L37.251,115.316L37.458,116.064L36.494,116.608L35.53,116.517L34.841,117.084L34.084,119.302L34.428,119.732L33.464,121.54L33.533,122.037L32.569,123.707Z" fill="currentColor"/>
</svg>
