<?xml version="1.0" encoding="UTF-8"?>
<svg xmlns="http://www.w3.org/2000/svg" viewBox="0 0 128 128" fill="none" aria-hidden="true">
  <path d="M98.466,94.111L97.107,94.111L97.01,91.988L97.786,91.162L98.854,92.342ZM95.748,88.21L95.942,85.876L97.01,85.491L97.689,86.378L98.175,89.864L96.718,89.244L97.107,88.447ZM87.592,65.898L88.078,65.302L88.563,66.673ZM4.291,32.712L33.903,32.651L56.816,32.742L71.476,32.742L82.932,32.712L104,32.682L104,35.278L106.427,74.526L106.621,76.664L113.806,76.931L124,76.961L123.903,78.236L123.029,81.348L122.544,81.792L120.602,88.033L118.854,91.575L108.466,92.696L107.883,94.317L107.301,94.2L106.039,93.315L104.194,93.433L102.058,95.319L101.184,95.349L101.087,93.374L101.767,91.31L103.417,90.484L101.767,90.425L101.961,89.096L103.029,87.915L100.99,87.649L99.825,88.624L99.437,87.797L99.922,86.083L102.447,85.284L101.864,84.131L100.99,84.515L100.602,83.45L102.058,80.133L100.602,80.844L99.922,82.237L99.922,84.012L99.146,84.042L98.078,81.763L99.146,81.496L99.049,79.926L98.272,79.63L97.883,81.081L97.01,82.059L97.592,82.858L96.718,84.693L96.33,83.835L94.68,84.515L93.806,84.16L92.252,81.703L91.379,81.318L91.573,80.044L89.243,75.566L91.184,75.15L91.67,73.992L90.893,74.2L90.019,72.684L90.796,71.495L91.961,70.841L92.544,71.584L93.709,70.811L93.806,71.882L95.942,72.149L97.204,73.308L97.592,73.011L96.039,70.96L94.388,70.543L93.612,69.293L92.932,69.383L91.379,67.09L90.893,67.924L89.728,67.328L89.631,69.085L88.951,68.847L89.243,65.839L90.99,63.095L92.35,64.437L93.126,64.139L92.835,60.438L92.058,59.93L90.408,61.334L89.243,61.214L89.34,62.647L88.175,63.155L88.563,60.05L90.117,57.03L90.796,58.555L92.835,58.884L93.903,57.958L93.32,56.342L94.388,54.696L92.835,54.966L92.544,56.522L92.932,57.449L91.767,56.941L92.058,55.056L91.476,53.289L90.796,52.869L92.35,48.791L93.515,47.53L93.32,46.809L94.68,46.058L95.359,44.947L98.272,45.127L97.204,44.405L98.951,42.3L97.981,42.119L99.146,38.445L95.748,39.168L95.165,40.614L96.33,41.337L96.718,42.3L95.553,42.721L92.252,45.638L91.573,44.706L92.252,43.082L91.476,42.24L91.476,43.563L90.602,45.097L91.379,46.119L90.699,47.5L90.117,44.616L88.66,44.195L89.243,47.29L88.466,47.05L87.883,48.311L89.049,48.971L87.01,50.291L86.33,51.131L85.068,50.891L84.874,50.111L82.738,48.731L83.029,50.111L83.903,50.501L84.097,51.73L86.718,53.349L86.913,55.355L86.427,56.103L87.689,57.539L85.456,58.884L86.136,59.99L85.845,61.185L84.971,61.065L84.291,62.707L84.874,64.288L83.223,66.017L84.097,67.507L83.903,69.115L84.485,71.287L84.291,73.932L84.971,75.862L87.107,78.236L87.883,80.074L87.01,81.407L85.65,81.2L86.524,82.444L87.398,81.792L88.175,82.207L87.495,83.598L87.883,85.018L89.631,87.738L89.146,88.388L89.631,91.251L88.757,90.69L87.689,88.978L86.913,88.86L86.427,86.969L85.65,87.235L85.456,88.919L84.777,87.797L84,87.885L83.515,86.467L82.35,85.136L80.117,84.456L76.718,84.367L75.942,80.548L75.165,80.163L74.777,81.081L75.748,83.095L75.553,83.746L73.417,82.473L73.223,81.467L71.961,80.548L70.796,77.168L68.854,78.473L65.65,80.133L64.485,79.333L63.806,75.922L64.874,73.487L66.33,71.792L68.272,70.9L67.786,70.603L67.689,69.264L68.369,68.46L70.117,67.716L70.214,65.183L73.709,61.662L70.117,58.137L68.078,60.229L67.204,59.123L65.262,58.944L64.485,58.436L64.583,57.001L62.058,55.744L58.757,55.295L58.175,54.127L57.204,53.738L57.301,52L58.175,51.461L58.854,49.991L56.621,48.701L56.039,47.35L54.583,47.38L53.029,46.629L51.767,46.719L50.796,46.299L51.379,44.405L50.893,43.112L50.019,42.751L50.214,41.758L48.369,40.524L47.204,38.445L48.757,37.993L48.757,36.877L47.398,36.998L45.748,36.304L44,36.908L43.223,35.701L41.573,34.222L39.243,33.618L36.524,36.244L34.68,35.55L33.806,36.666L32.447,36.334L33.515,37.3L32.252,37.269L32.932,38.747L31.573,39.891L28.854,39.771L28.175,39.229L26.524,39.259L24.583,38.234L24.388,37.45L23.126,36.908L24.388,36.485L23.126,36.184L19.437,40.945L18.369,42.571L15.65,41.487L14.583,41.427L13.32,43.684L10.311,45.488L9.34,47.5L8.175,47.47L4.971,50.561L4,50.771Z" fill="currentColor"/>
</svg>
