<?xml version="1.0" encoding="UTF-8"?>
<svg xmlns="http://www.w3.org/2000/svg" viewBox="0 0 128 128" fill="none" aria-hidden="true">
  <path d="M112.325,98.033L113.89,98.954L117.38,98.762L119.547,98.11L120.991,95.424L122.917,99.452L122.796,100.602L121.593,101.215L117.621,101.061L112.686,98.762ZM93.669,96.115L95.836,96.115L98.122,92.659L101.372,90.353L102.696,90.93L103.539,93.62L105.344,94.656L106.548,93.12L106.427,96.345L101.492,96.307L97.761,96.652L95.595,98.455ZM12.185,33.226L39.145,34.089L63.097,34.99L78.263,35.461L79.466,33.657L81.994,33.618L81.874,31.185L83.679,29.772L85.966,30.479L87.049,28.043L91.382,26.785L93.188,27.965L94.15,27.454L94.391,30.282L95.474,35.618L98.483,37.459L99.928,35.814L101.613,37.146L99.687,40.669L96.919,40.943L92.345,42.312L93.789,44.266L91.623,46.219L90.78,45.868L90.179,48.171L89.697,46.571L88.373,48.639L89.697,51.525L88.132,51.135L87.531,52.226L88.493,53.239L87.892,54.291L89.577,54.836L90.299,53.434L91.984,53.122L93.067,54.953L95.956,56.042L97.4,57.676L97.641,59.465L100.169,63.077L100.048,65.017L99.206,66.53L97.761,66.724L98.122,67.654L100.65,69.63L102.094,69.32L103.057,70.25L104.02,73.462L103.418,75.395L104.983,77.25L107.751,78.601L111.844,79.064L112.927,79.952L115.214,78.254L117.501,77.945L120.75,76.67L121.472,75.704L121.352,72.649L120.63,70.288L119.065,71.488L119.065,67.732L118.463,65.599L116.658,64.28L115.575,64.552L114.973,66.065L113.649,63.776L115.214,63.349L117.741,64.047L120.51,66.297L122.676,71.063L123.759,75.665L124,80.955L122.195,85.928L121.954,87.622L121.111,87.275L122.556,82.961L121.713,82.074L118.584,82.267L113.408,83.809L109.797,83.5L108.955,84.579L106.909,84.849L105.103,87.237L101.131,87.622L97.039,90.161L95.113,91.968L92.586,93.043L89.817,93.62L90.54,92.621L94.752,91.314L96.678,89.507L99.567,87.622L100.169,86.082L99.928,81.573L100.65,79.991L97.521,78.987L97.521,81.264L96.678,80.724L96.197,82.652L94.512,82.537L94.752,83.77L91.021,84.194L90.179,86.082L90.419,87.776L89.697,88.891L86.688,89.776L85.244,89.122L84.04,89.661L83.679,82.382L81.513,81.688L80.55,80.107L79.346,78.254L77.059,76.979L76.457,74.815L76.698,71.682L75.254,71.914L75.254,66.22L61.292,66.724L61.172,66.026L36.859,65.522L34.211,65.677L29.155,65.444L28.794,66.956L27.109,67.189L27.23,65.444L20.73,65.328L6.528,64.785L4.722,64.823L4,63.194L8.092,47.82Z" fill="currentColor"/>
</svg>
