<?xml version="1.0" encoding="UTF-8"?>
<svg xmlns="http://www.w3.org/2000/svg" viewBox="0 0 128 128" fill="none" aria-hidden="true">
  <path d="M87.035,48.604L87.41,48.33L87.832,49.297L90.878,50.31L90.081,51.243L89.003,50.953L88.347,49.973ZM77.334,50.182L77.568,49.538L77.896,49.86ZM75.646,49.216L76.631,49.844L76.443,50.423L75.553,49.812ZM74.287,53.554L74.615,52.784L74.756,51.676L75.037,51.435L75.084,50.519L75.928,50.632L75.881,51.997L76.068,53.329L75.178,54.035ZM73.35,50.969L73.959,50.841L73.725,51.708L73.397,51.692ZM70.96,56.435L71.569,56.707L71.616,57.65ZM68.569,62.064L68.851,61.698L69.741,62.096L69.46,63.621L68.663,62.795ZM67.398,64.462L67.913,63.764L68.195,64.51ZM60.415,53.201L61.352,54.227L60.977,54.579L60.79,54.002L60.134,53.313ZM58.681,122.873L60.087,121.85L61.352,120.54L63.086,116.6L64.68,114.39L65.57,112.357L66.039,110.854L66.507,108.175L66.46,107.291L66.742,105.963L66.695,103.472L66.414,100.683L65.898,98.841L64.258,95.301L63.742,93.851L63.18,91.718L62.383,89.876L62.383,89.132L63.414,87.549L63.742,86.773L63.789,85.576L63.367,83.489L62.711,82.086L62.899,81.586L63.836,80.789L64.961,78.428L65.945,76.672L66.132,74.726L66.554,72.618L66.039,70.853L66.086,70.332L67.351,69.654L68.288,69.417L68.569,67.947L68.476,66.776L68.944,66.206L69.554,66.491L70.304,65.224L71.147,65.778L71.944,65.572L72.319,65.065L72.741,63.7L73.209,63.446L73.912,61.953L74.428,61.205L74.85,61.316L75.412,60.759L75.553,61.38L74.662,61.889L74.522,62.557L75.084,63.843L74.006,65.129L74.615,64.827L74.615,66L74.334,66.111L73.959,67.441L74.287,68.943L74.662,68.975L75.553,66.681L75.693,65.129L76.302,64.811L75.928,67.314L75.225,68.01L74.943,69.069L75.599,69.29L75.974,68.263L76.302,68.058L77.334,65.921L77.568,64.684L77.521,63.796L77.708,62.493L77.427,61.141L77.662,59.644L78.458,58.863L78.927,58.815L79.771,58.049L80.614,57.793L81.786,57.905L83.004,57.682L83.567,57.362L83.52,56.835L81.973,56.563L81.317,55.812L80.942,53.986L81.692,52.784L82.301,52.559L83.239,51.451L83.145,50.953L82.301,50.519L85.113,50.761L85.441,49.973L88.3,51.612L89.519,52.543L90.128,52.222L90.644,52.479L91.253,52.319L92.753,52.864L93.877,54.227L94.018,55.14L94.815,55.572L96.361,55.508L96.736,55.652L98.095,56.883L99.173,56.995L100.767,58.129L102.126,58.033L103.11,59.277L103.626,59.676L103.204,60.106L103.907,61.634L104.422,62.112L105.078,64.224L104.141,63.891L103.391,63.351L102.688,64.002L102.876,65.747L103.438,66.444L104.422,66.855L104.657,67.789L104.703,69.338L105.032,69.922L104.844,71.042L104.469,72.098L104.563,73.122L104.329,74.867L104.282,76.766L103.719,77.002L103.063,78.005L101.938,77.973L101.563,78.443L101.189,80.133L101.001,81.929L100.111,82.008L99.736,82.304L99.736,83.068L97.767,83.162L97.158,83.707L96.736,84.891L96.502,86.819L96.127,87.472L96.736,88.884L97.486,89.38L97.908,88.868L98.142,89.458L99.08,89.783L99.689,90.372L100.157,90.124L101.47,88.263L102.126,88.263L102.454,87.875L102.126,87.084L102.548,86.4L102.969,85.047L103.157,85.825L104.047,85.342L104.282,84.891L103.298,84.408L104.422,84.455L104.938,84.081L105.172,83.442L106.25,83.287L107.844,82.85L108.265,82.148L109.718,81.68L110.234,82.148L111.312,82.538L112.015,83.146L112.811,85.062L113.28,85.638L113.608,87.146L113.842,90.372L114.639,93.125L114.827,96.934L115.295,99.133L116.139,100.822L116.233,101.558L115.717,102.262L115.389,104.482L115.577,105.2L115.014,106.925L114.827,107.947L113.983,108.952L113.28,108.891L112.718,109.53L112.765,108.525L112.343,108.114L112.811,107.87L113.514,106.925L112.858,106.528L112.155,106.605L111.265,107.123L110.937,107.611L111.359,108.023L111.452,108.708L110.749,108.647L110.234,109.439L110.281,110.717L109.953,111.887L109.156,112.691L107.75,113.071L106.906,114.541L107,116.464L106.859,117.129L106.156,117.507L106.109,118.564L105.36,119.152L105.078,119.741L104.469,119.801L104.141,120.781L103.626,120.946L102.829,122.03L103.063,123.219L102.688,123.354L98.658,123.519L90.831,123.82L85.02,124L85.02,122.873L80.942,122.888L72.178,122.903L62.899,122.888ZM26.952,10.139L27.936,8.985L32.389,6.621L32.717,6.655L34.732,5.009L36.185,4.303L36.466,4.488L37.778,4L37.731,4.471L37.169,4.74L35.763,6.084L35.763,6.588L34.591,7.51L32.201,8.399L30.233,9.504L30.326,9.838L31.404,9.838L28.639,11.059L27.796,11.009ZM11.767,35.328L12.658,34.675L13.22,34.626L15.048,33.826L16.829,33.27L18.282,32.01L19.172,30.962L19.922,30.52L21.469,30.241L22.172,30.52L23.531,30.077L24.562,30.126L26.999,28.896L28.405,27.351L29.436,27.269L30.795,26.891L31.264,26.249L31.498,25.409L32.67,24.338L33.326,24.074L34.732,22.721L35.81,22.341L36.794,21.415L37.31,20.521L38.247,19.66L40.965,18.251L43.59,17.836L45.933,17.952L47.011,18.599L47.058,19.345L46.542,19.263L45.746,19.66L44.855,19.445L43.871,19.611L44.105,20.389L42.605,21.332L41.199,22.902L40.309,23.232L40.075,24.453L39.747,24.305L39.419,25.162L38.762,25.591L38.528,26.693L37.966,27.483L37.544,27.582L36.982,30.274L37.263,31.126L36.841,31.699L37.356,31.65L38.294,30.225L38.434,29.503L38.762,29.716L40.122,28.403L41.434,27.697L40.871,28.6L40.309,28.994L39.606,30.258L41.012,28.879L42.231,28.584L42.887,28.797L44.621,28.781L45.324,29.273L45.699,29.142L46.495,29.716L46.87,30.356L47.573,30.176L48.604,31.208L48.745,32.207L49.542,33.008L49.823,33.777L50.479,34.577L51.369,34.822L51.276,36.111L51.791,36.567L53.01,36.811L54.978,36.648L56.15,35.948L56.665,36.078L57.322,37.251L57.884,37.691L58.774,37.756L59.149,37.007L59.899,37.121L60.321,37.74L60.508,36.616L60.18,35.752L60.93,35.426L61.258,35.948L60.977,36.86L61.774,37.284L62.992,36.111L64.867,35.099L67.632,33.303L68.148,33.646L71.007,32.959L73.162,33.221L74.803,33.27L76.209,33.156L79.114,31.765L80.239,31.568L81.645,31.683L83.145,31.454L82.114,32.828L82.02,35.034L82.114,35.768L81.739,36.078L82.161,36.909L82.911,37.039L83.332,36.779L83.614,37.202L84.317,37.153L85.113,37.609L86.707,36.811L87.316,36.877L87.832,37.626L87.785,38.195L88.956,37.74L89.284,37.854L89.753,36.795L90.644,36.404L91.721,36.714L92.237,36.567L92.612,35.931L93.877,36.013L94.112,36.502L93.643,38.13L93.971,40.081L94.018,41.623L92.659,41.655L92.284,42.708L92.987,42.903L93.221,42.563L93.924,42.627L94.299,43.243L95.19,43.55L94.58,44.198L95.705,45.41L96.268,45.426L97.205,46.153L97.58,45.539L98.236,46.105L98.611,45.685L97.861,44.068L98.517,44.311L100.439,44.101L101.001,44.343L101.657,45.814L102.407,46.315L101.938,47.347L101.282,47.67L100.017,47.041L98.564,47.299L97.111,46.621L96.596,46.815L95.33,46.799L94.065,46.428L91.253,46.847L90.644,47.299L88.91,46.185L88.207,45.41L87.597,45.523L86.988,45.038L86.519,45.701L86.613,46.524L85.91,47.041L85.957,47.766L86.379,48.781L85.816,49.104L84.692,48.427L84.551,47.928L83.567,47.331L83.332,46.847L82.301,45.814L80.52,45.071L79.911,45.184L78.365,44.392L77.521,44.473L76.912,44.101L76.677,44.424L75.787,44.246L74.615,45.459L73.819,46.637L73.397,46.766L71.897,46.395L70.819,46.637L70.444,46.992L70.538,47.541L69.46,46.944L68.476,46.67L67.351,46.896L66.882,46.718L65.804,47.105L65.195,47.783L65.101,48.798L64.68,49.956L64.023,49.892L63.695,50.519L62.664,50.761L62.383,51.5L61.774,51.548L61.774,52.27L61.211,52.415L61.399,53.393L60.462,52.88L60.04,52.238L60.602,51.805L60.649,51.259L61.165,50.761L61.211,50.117L61.821,50.182L62.524,48.781L62.383,48.089L61.821,47.928L60.977,49.136L59.196,48.749L59.337,49.57L58.728,50.326L58.493,51.227L57.087,51.725L56.853,52.158L56.572,51.532L56.712,50.648L56.525,49.57L56.15,49.055L55.681,49.361L55.447,51.291L55.587,51.484L54.135,52.367L52.916,54.435L52.119,56.771L51.229,57.809L50.292,59.596L48.37,62.366L48.651,62.89L47.761,62.668L47.386,61.921L46.777,61.475L46.683,61.014L47.386,59.134L47.901,58.368L47.808,57.825L47.292,57.426L46.542,58.177L45.277,58.336L45.277,58.336L44.949,57.586L45.277,57.202L45.136,56.595L45.746,56.052L46.027,55.412L45.886,54.659L46.261,53.554L45.605,52.351L46.167,52.142L45.792,51.435L45.183,51.146L44.902,50.616L43.777,50.552L43.355,49.86L42.371,50.15L41.528,49.425L42.324,48.588L41.996,48.25L41.996,47.492L40.122,46.718L39.465,46.944L38.341,46.185L37.778,46.428L36.794,46.089L36.7,45.685L35.435,45.717L35.294,46.234L34.638,46.234L34.451,45.766L33.654,45.507L33.092,45.717L29.061,43.421L15.61,39.675L15.657,39.236L14.345,36.518L13.08,36.257L12.611,35.866L12.611,35.866L12.049,35.964Z" fill="currentColor"/>
</svg>
