<?xml version="1.0" encoding="UTF-8"?>
<svg xmlns="http://www.w3.org/2000/svg" viewBox="0 0 128 128" fill="none" aria-hidden="true">
  <path d="M9.789,12.244L13.969,12.262L27.364,12.262L38.896,12.281L38.896,4L40.256,4.685L41.666,4.315L43.126,5.295L43.529,5.942L44.234,9.669L44.587,10.129L45.493,14.74L45.191,16.004L45.392,16.992L46.098,17.778L47.558,18.6L48.767,18.819L49.169,18.472L51.385,18.673L51.939,19.732L55.011,19.859L57.428,20.242L57.831,21.445L57.68,22.337L57.982,22.556L60.097,22.519L60.349,22.246L61.457,22.283L62.615,21.919L62.565,21.045L64.227,20.206L66.191,19.878L66.644,20.279L69.313,20.279L72.939,22.064L74.248,21.992L74.298,22.883L73.342,23.011L73.14,23.683L73.946,24.247L76.011,24.01L76.766,24.991L76.464,25.608L76.766,26.497L77.975,28.797L79.233,28.308L78.831,26.787L79.485,25.971L80.241,26.171L82.356,25.88L83.161,26.678L83.061,27.856L83.917,28.598L84.622,28.435L85.075,29.086L87.14,29.249L87.392,30.46L87.19,31.02L88.197,31.399L89.356,31.164L89.204,32.517L90.312,32.012L91.017,32.409L91.974,31.976L93.686,31.669L96.003,29.629L96.859,29.394L97.514,28.815L98.773,28.272L99.478,28.507L99.478,29.719L100.334,30.026L100.032,30.496L100.535,31.363L101.341,31.417L103.103,30.893L103.406,31.417L104.665,31.146L105.974,31.471L106.931,31.236L109.348,31.092L110.808,31.597L111.262,32.787L112.974,33.742L113.729,33.112L114.736,32.95L115.391,33.31L116.549,33.202L117.103,33.526L118.362,33.13L117.002,34.138L116.499,33.778L116.297,34.39L115.441,34.66L114.132,35.703L112.269,36.314L111.564,36.979L108.945,37.768L106.528,38.737L105.772,38.844L103.657,39.651L103.456,39.901L100.888,41.279L99.024,42.691L95.399,45.954L94.542,47.182L91.773,50.344L90.463,51.62L89.154,52.346L87.845,53.903L87.291,54.097L85.881,55.563L85.377,55.74L82.305,58.102L81.852,58.542L82.255,59.422L82.96,60.231L81.902,59.352L81.197,59.545L81.046,60.055L80.241,60.301L80.694,60.635L80.14,61.39L79.032,61.109L79.032,73.075L78.528,73.248L78.226,74.273L77.018,74.151L76.514,75.123L75.809,74.897L75.406,75.556L74.147,75.955L73.14,76.769L72.133,79.329L71.025,80.175L70.673,82.142L70.723,83.055L71.78,83.416L72.284,83.261L72.989,83.812L72.939,84.346L74.097,85.807L74.047,86.665L73.291,87.472L73.342,87.969L72.485,88.809L72.586,90.367L72.385,90.914L72.687,92.469L71.881,93.459L72.435,94.039L72.334,95.147L72.637,95.846L72.284,96.56L72.435,97.836L71.831,99.195L72.083,99.806L72.888,100.264L74.449,101.739L74.399,102.145L75.104,102.416L75.557,103.161L78.075,103.313L78.68,103.6L79.183,104.919L79.888,105.56L82.406,106.421L83.514,107.079L84.219,107.753L84.219,108.646L84.622,108.898L84.874,110.311L85.73,111.068L87.089,111.756L87.24,112.243L89.053,113.753L91.017,114.239L91.773,115.16L93.284,117.435L93.737,118.687L93.334,120.572L93.435,121.755L93.938,122.371L93.737,123.102L94.14,123.983L83.866,123.983L72.586,123.983L66.745,124L55.515,124L46.45,123.983L30.688,123.983L20.666,123.983L20.666,103.617L20.717,101.908L20.666,96.782L20.666,88.603L20.163,87.489L18.35,86.476L17.443,86.408L16.738,85.463L16.285,84.208L14.976,82.521L15.228,81.728L16.487,80.659L17.595,79.985L18.199,78.897L18.904,78.102L19.105,75.886L18.904,74.047L19.206,73.405L18.652,70.134L18.602,67.885L17.947,67.414L16.94,65.701L16.688,64.844L16.487,62.759L15.933,61.759L15.832,61.074L16.084,59.879L15.782,57.908L16.033,57.609L16.336,55.545L16.033,55.74L15.479,54.839L15.53,51.815L15.278,50.184L15.177,48.16L15.328,47.271L14.976,45.438L15.026,41.565L14.774,41.512L14.422,39.919L13.868,38.271L13.465,37.966L12.911,36.153L12.76,35.11L12.206,34.498L11.954,32.319L11.149,30.496L10.998,28.507L11.35,27.548L10.947,25.862L11.098,24.919L11.048,22.974L10.695,21.901L11.048,20.516L11.501,20.078L11.652,18.947L10.897,17.485L10.494,15.216L10.192,14.776L9.638,12.979Z" fill="currentColor"/>
</svg>
