<?xml version="1.0" encoding="UTF-8"?>
<svg xmlns="http://www.w3.org/2000/svg" viewBox="0 0 128 128" fill="none" aria-hidden="true">
  <path d="M4.065,11.69L14.85,11.873L25.119,12.036L35.195,11.975L43.591,11.812L47.595,11.812L60.319,11.568L70.136,11.303L76.659,11.018L77.434,11.792L77.498,12.464L78.661,12.748L78.596,13.48L79.63,14.639L80.276,14.68L80.34,15.817L81.051,16.446L82.278,16.588L81.761,16.953L80.663,19.872L80.534,21.309L80.921,24.644L81.826,26.641L82.278,27.206L81.761,28.536L82.084,29.301L83.053,29.985L83.311,30.548L83.117,31.775L84.797,33.322L85.765,34.466L86.476,34.747L87.122,36.131L87.961,36.291L88.672,37.814L89.705,38.895L93.516,41.634L94.807,43.431L95.001,45.226L95.518,46.781L94.936,47.497L95.647,49.189L95.841,50.481L97.262,51.851L97.972,51.712L98.682,51.077L99.264,49.765L100.491,49.686L102.235,50.58L103.268,50.679L105.722,52.308L105.593,53.498L104.818,54.073L103.978,55.243L104.624,57.064L104.495,57.797L103.074,59.695L102.687,61.65L101.589,62.991L101.137,64.016L101.072,65.553L101.395,66.931L102.558,67.914L103.849,69.663L105.464,70.39L106.174,71.449L106.691,71.449L107.789,72.626L108.822,72.489L109.016,73.018L108.241,73.489L108.629,74.468L109.92,74.566L110.566,73.959L111.406,74.507L111.47,75.075L112.439,75.31L113.925,76.68L113.795,77.462L114.7,77.521L115.281,78.342L116.508,78.811L116.508,79.924L117.219,81.251L116.379,81.407L116.508,82.382L118.187,85.517L117.929,86.723L116.96,86.956L116.443,88.045L117.541,89.074L117.477,89.987L118.316,91.674L119.027,92.566L118.962,93.592L120.512,94.676L121.158,94.154L120.189,93.282L121.094,93.05L122.192,94.134L122.708,95.16L123.419,94.889L124,95.296L123.677,97.036L123.29,97.925L122.644,98.099L122.579,98.832L123.677,99.547L123.483,100.087L122.45,100.029L122.192,100.878L122.902,101.996L122.385,102.554L121.933,103.922L121.094,104.268L119.931,102.766L119.091,103.017L118.252,105.75L117.735,106.519L116.896,106.384L117.025,105.788L117.412,105.057L117.089,104.114L115.733,104.076L115.475,104.653L116.056,105.769L116.443,106.192L115.991,107.422L116.637,108.555L116.314,109.265L114.764,109.284L114.764,109.994L116.121,110.742L116.185,111.26L115.216,111.547L113.279,111.24L113.085,111.643L114.893,113.06L114.958,114.228L113.537,114.993L113.343,116.427L112.568,116.867L101.008,116.982L102.041,114.879L103.526,113.769L103.526,113.329L104.495,112.314L105.529,111.777L105.722,110.953L106.304,110.819L106.626,108.267L105.206,107.422L105.399,107.133L105.076,105.769L82.536,105.788L61.675,105.769L52.568,105.769L38.23,105.75L24.667,105.73L24.667,94.522L24.667,89.074L24.732,87.19L24.732,71.979L24.797,70.959L24.797,57.243L24.861,54.866L24.861,46.044L25.184,45.226L23.892,45.167L23.569,44.549L22.988,44.868L22.084,44.648L21.761,44.03L20.792,43.771L20.986,43.212L19.823,42.174L19.436,40.595L20.017,40.095L19.694,39.675L18.79,39.675L18.015,38.455L16.982,37.834L16.917,37.253L15.948,36.432L15.884,35.469L16.982,34.988L16.853,34.165L17.305,33.342L18.273,32.961L18.596,31.453L19.436,31.936L20.082,31.815L20.146,30.83L19.371,31.152L19.178,30.428L19.759,30.408L20.017,29.563L19.307,29.341L18.855,28.677L19.113,28.113L17.563,27.851L17.046,28.677L15.367,28.395L15.044,27.669L14.205,27.79L14.14,26.924L13.3,26.702L12.267,25.492L10.265,24.361L10.781,22.765L9.231,21.228L9.102,19.669L7.811,19.285L7.875,18.636L6.713,18.109L5.938,15.878L6.002,15.086L5.292,14.395L5.227,13.582L6.067,12.728L5.356,12.362L5.292,13.033L4,12.972Z" fill="currentColor"/>
</svg>
