<?xml version="1.0" encoding="UTF-8"?>
<svg xmlns="http://www.w3.org/2000/svg" viewBox="0 0 128 128" fill="none" aria-hidden="true">
  <path d="M92.55,123.103L94.81,123.374L93.755,123.791L92.851,123.604ZM87.051,122.414L88.256,122.143L90.516,122.748L90.968,123.061L89.16,122.957ZM82.531,123.124L83.661,122.978L84.791,122.331L84.49,122.936L82.908,123.499ZM78.915,122.581L80.497,122.602L81.1,122.331L80.723,123.228L79.97,123.374L78.689,122.832ZM36.806,54.415L37.785,53.146L36.053,51.812L36.43,50.972L37.258,51.274L38.313,51.101L38.539,50.606L38.388,48.99L39.367,47.869L39.217,47.373L38.463,47.654L38.237,48.559L37.333,47.093L37.333,45.712L39.066,43.769L38.689,43.077L37.936,44.654L36.656,44.957L35.902,44.438L36.128,44.028L37.409,43.812L37.71,42.645L36.656,42.061L36.731,43.164L35.375,43.509L36.43,41.78L35.45,40.418L37.559,39.53L37.409,38.816L35.526,37.712L35.676,37.105L36.957,36.758L37.484,37.517L38.689,37.993L39.593,37.603L38.991,36.52L38.011,36.823L37.258,36.26L37.333,34.98L39.141,34.937L39.744,35.327L40.497,34.59L39.292,34.026L38.765,32.832L40.121,31.138L38.463,30.399L38.689,29.768L39.895,29.268L40.271,30.203L41.1,29.855L40.573,28.877L42.381,28.746L42.983,27.419L42.757,26.896L41.929,26.962L41.251,25.851L42.155,25.154L43.36,25.873L44.339,25.263L44.188,24.718L42.682,24.74L41.627,23.802L42.305,23.17L43.51,24.108L43.812,22.559L45.243,22.232L45.77,21.577L45.168,20.595L45.544,20.005L46.976,19.983L46.75,21.163L47.503,21.184L47.503,19.809L49.386,18.563L48.934,16.748L49.913,15.632L49.838,15.041L48.934,13.705L48.934,12.303L49.687,11.842L49.612,12.916L50.441,13.311L51.495,12.215L51.345,11.535L49.838,11.491L49.386,10.614L49.913,10.307L49.763,9.539L50.516,8.946L50.365,10.197L50.742,10.943L51.797,10.526L51.345,8.946L51.721,8.397L51.119,7.431L51.269,6.793L52.098,6.837L52.399,8.134L54.735,7.167L56.09,6.2L56.09,5.21L54.81,4L72.06,4.044L83.812,4.022L99.028,4L100.007,5.87L101.213,6.639L100.309,14.581L98.877,28.616L98.425,32.093L95.94,56.284L95.563,60.833L93.981,76.001L93.303,82.019L94.056,98.375L94.508,107.277L94.734,114.764L94.96,119.407L94.659,120.076L94.132,119.762L93.378,120.598L92.022,120.034L91.043,120.347L90.667,119.721L89.311,119.574L87.955,120.055L86.222,119.031L86.071,119.616L84.49,118.822L82.832,118.885L80.497,119.449L78.388,120.326L76.128,121.016L76.429,119.888L75.676,119.261L74.621,119.825L75.299,120.18L75.375,121.016L73.491,122.206L72.889,123.875L72.211,123.666L71.232,124L70.328,124L69.348,122.957L69.047,121.579L69.047,120.138L67.917,118.529L67.917,117.4L67.164,116.501L66.335,116.103L66.034,115.287L65.281,114.575L64.979,112.585L64.377,112.292L65.13,110.447L64.829,109.691L65.356,109.167L66.034,106.542L66.561,106.143L66.486,105.197L67.013,104.734L66.486,103.977L54.057,104.019L43.962,104.04L26.938,104.04L27.917,103.598L28.445,102.378L27.239,101.325L27.164,100.736L27.917,99.766L27.691,98.902L26.787,98.27L26.863,97.468L28.219,97.616L29.499,97.194L29.65,96.287L28.746,95.506L28.671,94.556L28.143,94.218L28.821,93.394L29.123,94.45L29.725,95.063L30.403,94.915L30.403,94.302L29.424,92.718L29.349,91.153L30.855,90.772L31.759,90.032L31.458,89.355L30.102,89.63L29.424,88.995L29.801,88.19L30.554,88.783L31.91,88.783L31.985,86.538L32.814,85.796L34.546,85.69L34.848,85.308L32.663,85.075L33.19,83.081L34.094,82.847L34.245,83.76L34.772,84.12L35.149,83.526L34.697,83.081L36.505,81.424L36.354,80.362L36.882,79.831L38.313,79.533L38.313,78.47L36.882,77.917L37.258,77.385L38.237,78.215L38.614,77.449L39.518,76.981L40.196,75.512L39.066,75.001L39.217,76.321L36.806,76.087L36.957,74.404L38.991,73.978L39.518,73.402L40.573,74.063L40.949,73.168L40.799,72.038L41.703,72.208L42.908,70.523L42.607,70.139L42.155,70.992L40.422,70.63L40.422,69.391L41.025,68.964L40.422,68.217L39.669,68.644L37.936,67.597L38.162,66.357L38.539,66.336L39.819,67.362L40.573,67.212L40.196,66.656L38.614,65.587L39.669,64.924L40.271,64.132L39.744,63.34L39.292,64.325L37.785,64.881L37.333,64.582L37.108,63.468L37.785,62.655L38.991,61.948L39.141,61.369L36.806,60.726L36.882,59.204L37.258,58.41L38.84,57.294L38.991,56.456L38.313,54.909L37.484,54.995L37.559,56.435L36.505,56.993L35.827,56.521L36.053,55.489Z" fill="currentColor"/>
</svg>
