<?xml version="1.0" encoding="UTF-8"?>
<svg xmlns="http://www.w3.org/2000/svg" viewBox="0 0 128 128" fill="none" aria-hidden="true">
  <path d="M4.036,30.171L12.428,30.198L20.748,30.158L27.562,30.224L34.377,30.198L46.857,30.224L54.424,30.224L62.745,30.198L74.508,30.198L79.565,30.198L90.037,30.198L98.178,30.185L103.307,30.198L113.851,30.198L117.939,30.198L123.928,30.185L123.928,39.431L123.964,39.65L123.964,75.359L124,78.156L124,88.812L123.821,88.86L119.696,88.848L110.695,88.824L105.961,88.824L105.136,88.909L98.752,88.897L93.588,88.873L93.085,88.824L81.753,88.824L73.827,88.824L73.432,88.739L66.475,88.8L63.354,88.775L62.458,88.873L60.844,88.812L60.449,88.909L57.401,88.933L56.612,88.788L53.922,88.812L53.886,90.703L53.922,94.111L53.994,96.219L53.241,95.943L53.026,95.353L52.165,94.642L52.237,94.124L51.233,92.711L50.623,92.276L50.336,92.905L49.619,92.941L49.798,93.339L49.224,94.521L49.762,95.293L48.614,94.979L48.292,95.172L47.431,95.016L47.323,95.244L46.247,95.726L45.781,94.967L44.992,95.064L44.526,95.365L44.167,95.208L43.414,95.569L43.127,95.305L42.625,95.401L42.195,94.979L41.621,94.895L41.298,95.317L40.975,95.317L40.904,96.051L40.617,96.592L39.756,96.135L39.469,96.376L39.075,96.087L37.891,96.063L37.282,95.798L36.672,96.075L36.134,96.941L36.349,97.577L36.026,97.842L35.632,97.313L34.986,97.025L34.448,96.544L34.233,95.906L34.412,95.497L33.659,94.521L33.982,93.943L33.803,93.339L33.157,92.022L32.01,91.321L31.077,91.853L30.934,91.369L29.929,90.728L29.535,89.552L30.037,89.394L30.109,88.727L29.965,87.986L29.284,87.512L29.356,87.196L28.746,87.013L28.495,86.125L27.634,85.235L27.598,84.808L27.096,84.149L27.168,83.294L26.881,83.062L26.666,82.365L26.881,81.997L26.845,81.434L26.164,81.434L26.415,80.269L25.877,79.963L25.447,79.987L25.518,79.668L25.16,79.128L24.622,78.808L24.299,78.968L24.371,79.471L23.833,79.901L23.151,80.907L22.47,81.226L22.004,81.079L21.896,81.789L21.035,82.303L20.856,81.863L20.354,81.593L19.888,80.858L18.991,80.858L19.134,80.208L18.848,79.766L19.493,79.312L19.529,78.722L18.848,77.812L19.493,76.716L20.39,76.703L20.641,76.161L20.175,75.495L20.39,74.89L19.708,74.556L19.565,73.889L19.888,73.171L19.278,72.763L19.35,72.155L20.031,72.069L19.995,71.089L19.78,70.716L20.246,70.418L20.282,68.976L20.748,68.167L20.497,67.307L20.928,67.27L21.286,65.734L21.179,65.009L20.892,64.884L19.959,65.172L19.816,65.434L19.027,65.247L18.345,65.309L18.059,64.821L18.274,64.333L18.023,63.958L17.521,63.845L17.377,64.221L16.839,64.484L16.624,64.271L16.839,63.582L15.62,62.855L15.046,62.115L15.189,61.223L14.472,60.469L14.006,60.481L13.791,59.726L13.109,58.693L12.5,58.012L12.069,57.848L11.89,57.38L11.496,57.292L11.567,56.812L11.244,56.294L10.384,56.167L9.236,55.598L8.985,54.914L7.299,53.811L6.905,53.836L7.335,53.379L8.124,53.278L8.232,52.999L7.658,52.91L7.479,52.185L7.084,52.122L7.156,51.689L7.622,51.282L7.192,50.582L7.264,49.779L6.797,49.473L6.546,48.873L6.259,48.949L5.973,47.825L5.435,47.556L4.036,45.61L4,42.024L4.036,40.619Z" fill="currentColor"/>
</svg>
