<?xml version="1.0" encoding="UTF-8"?>
<svg xmlns="http://www.w3.org/2000/svg" viewBox="0 0 128 128" fill="none" aria-hidden="true">
  <path d="M4,36.498L18.433,36.514L25.478,36.53L34.246,36.53L37.3,36.595L47.448,36.563L57.99,36.546L65.527,36.563L74.69,36.546L80.207,36.546L80.65,37.497L83.507,38.865L85.281,39.863L86.808,40.971L87.744,40.827L88.335,40.361L88.778,39.171L89.172,38.994L90.158,39.332L91.389,39.477L92.276,39.203L93.064,39.38L93.852,39.171L94.739,39.396L95.084,39.026L95.823,39.235L96.562,39.01L97.793,39.412L97.842,40.023L98.729,40.345L98.975,40.794L101.094,41.003L101.488,41.774L102.079,41.501L103.458,42.063L103.507,42.704L104.542,42.752L105.084,43.009L104.739,43.842L105.773,44.899L106.118,45.747L107.3,45.667L107.547,46.147L108.384,46.035L109.074,46.163L109.271,46.866L108.828,47.569L108.828,48.782L109.369,49.244L110.059,50.885L109.567,51.283L109.714,52.047L110.798,52.937L110.749,54.256L111.488,54.653L111.241,54.907L111.98,55.081L111.931,55.557L112.719,55.652L112.571,56.699L112.276,56.873L112.966,57.839L113.015,58.44L113.606,58.804L113.458,59.531L113.064,59.847L113.36,60.7L112.818,60.984L113.212,61.632L112.867,62.247L113.409,62.862L113.261,63.744L114,64.185L114.099,63.602L114.542,63.618L114.443,64.83L115.429,64.988L115.478,66.811L115.133,67.267L116.118,67.691L115.478,68.334L115.724,69.322L115.527,69.902L116.709,70.278L116.118,70.544L116.365,72L116.118,72.422L116.463,72.891L116.414,73.547L116.857,73.859L116.759,74.89L117.103,75.311L116.611,76.106L116.808,77.399L116.167,77.944L116.069,78.52L116.808,79.422L117.448,79.671L117.941,80.541L117.744,80.975L117.695,81.953L118.68,81.999L118.729,81.488L119.271,81.767L118.631,82.418L118.68,83.038L119.222,83.565L119.172,84.169L119.764,85.871L120.65,86.273L120.601,86.768L121.586,87.061L121.685,88.25L122.867,89.422L122.473,90.64L124,91.502L117.448,91.502L110.355,91.502L97.399,91.487L83.655,91.471L75.626,91.471L62.177,91.487L49.222,91.471L44.099,91.471L31.438,91.456L31.438,73.422L24.542,73.422L17.892,73.422L4,73.438Z" fill="currentColor"/>
</svg>
