<?xml version="1.0" encoding="UTF-8"?>
<svg xmlns="http://www.w3.org/2000/svg" viewBox="0 0 128 128" fill="none" aria-hidden="true">
  <path d="M24.14,4.139L24.14,4.124L34.718,4.155L41.594,4.186L42.844,4.139L55.97,4.062L63.952,4.031L72.799,4.108L86.887,4.108L90.686,4.108L93.715,4L96.504,4.139L98.234,4.108L103.956,4.155L103.956,21.917L103.908,25.966L103.908,35.47L103.86,37.714L103.86,62.449L103.812,67.128L103.86,71.496L103.812,74.025L103.86,77.991L103.812,78.151L103.812,90.895L103.812,97.177L103.908,101.071L103.86,104.355L103.62,104.569L102.466,107.176L101.312,107.332L100.302,106.606L100.398,106.208L99.533,105.196L98.908,105.154L97.754,105.424L97.657,105.068L96.84,105.054L96.263,105.41L96.023,105.211L95.59,105.624L94.388,106.065L94.724,107.204L94.532,107.816L95.109,109.195L95.59,109.635L95.157,109.976L94.965,110.771L95.205,111.608L95.061,112.331L95.398,112.77L95.253,113.322L95.686,113.86L95.686,115.318L95.398,115.827L95.59,116.646L96.119,117.31L96.407,118.227L96.84,120.737L96.84,121.75L95.83,122.355L96.311,122.665L96.023,124L88.955,117.07L85.589,113.761L74.338,102.971L59.288,88.776L53.182,83.076L50.2,80.376L44.19,74.886L39.43,70.53L36.401,67.862L30.92,62.921L25.39,58.048L24.14,56.909L24.044,53.008L24.092,51.194L24.092,44.376L24.14,44.181L24.188,38.286L24.188,26.862L24.14,26.346Z" fill="currentColor"/>
</svg>
