<?xml version="1.0" encoding="UTF-8"?>
<svg xmlns="http://www.w3.org/2000/svg" viewBox="0 0 128 128" fill="none" aria-hidden="true">
  <path d="M121.276,95.557L121.44,95.245L122.911,94.863L121.767,95.609ZM119.642,98.727L119.915,98.38L120.514,98.657L120.514,99.522L120.187,98.917ZM118.553,97.013L119.424,96.736L118.771,97.48ZM90.391,107.503L90.664,108.654L90.173,109.324L88.103,110.662L87.504,110.679L87.668,109.821L88.158,109.547L88.376,108.105ZM55.421,41.573L56.292,40.669L56.02,41.483ZM54.222,41.23L54.876,40.506L55.366,40.596ZM4,74.914L5.798,73.98L8.685,72.022L10.264,70.414L11.898,69.53L13.315,69.087L13.914,67.848L14.622,67.21L14.84,66.288L16.801,65.294L17.836,64.336L17.618,62.914L16.91,62.202L17.019,61.437L16.637,60.778L15.384,60.154L15.439,58.514L14.458,58.246L14.949,56.871L14.676,54.635L14.513,54.403L16.038,54.009L18.108,53.256L21.158,52.414L23.337,52.055L25.135,52.019L27.205,52.181L29.166,52.037L33.85,52.79L35.103,53.131L35.92,53.973L37.173,54.796L37.827,54.975L40.005,54.098L41.912,54.08L44.254,53.865L45.398,54.206L46.651,54.224L47.414,53.776L49.048,53.418L50.028,52.701L50.518,52.683L51.553,51.248L53.187,50.099L53.732,49.955L54.767,48.985L55.53,48.895L56.619,49.164L57.545,48.823L58.035,47.869L58.144,46.303L57.654,43.055L56.565,42.333L57.164,41.429L57.926,41.23L58.035,41.826L59.179,41.085L59.016,40.307L57.981,39.455L56.783,39.727L57.055,39.202L56.238,38.277L55.421,38.259L55.475,36.808L56.347,34.718L57.382,34.627L58.635,33.863L58.635,32.989L59.615,32.589L61.086,31.586L61.576,31.678L62.448,31.149L63.809,29.78L64.027,28.94L64.681,28.008L66.914,25.794L68.603,23.961L71.653,21.372L71.599,21.151L75.303,19.146L76.719,18.003L77.7,18.003L78.898,17.321L80.369,17.856L81.404,17.671L86.36,17.819L89.247,17.837L95.076,17.579L96.383,17.598L101.449,17.413L101.503,19.422L101.122,19.974L100.904,21.133L101.612,22.18L101.068,23.19L100.959,24.878L100.741,25.446L100.959,26.728L101.994,28.337L102.212,29.598L101.558,31.058L101.939,33.135L101.721,33.79L100.686,34.936L100.414,36.554L99.978,37.987L100.468,38.477L100.414,40.343L100.959,41.555L100.686,42.712L101.34,43.742L100.468,45.492L100.087,47.545L100.632,48.013L101.013,46.825L102.048,46.825L102.157,47.779L102.865,48.301L102.756,54.456L102.429,61.989L102.429,63.305L102.212,63.962L102.647,65.117L100.795,71.722L98.943,78.679L99.27,79.417L98.78,86.805L98.507,91.945L98.29,94.741L99.325,96.424L95.621,98.675L96.71,100.438L96.655,101.008L96.274,101.733L95.13,102.458L95.021,103.82L94.313,103.786L94.803,104.819L95.784,103.32L96.383,103.579L96.928,102.855L98.072,102.389L99.052,102.355L99.27,101.785L100.468,102.303L100.577,101.595L101.068,102.079L102.157,102.217L103.138,102.613L104.39,102.13L104.499,101.388L105.425,101.25L105.97,101.457L110.055,101.405L112.18,101.06L112.942,100.749L114.576,99.66L115.067,98.969L115.72,98.744L116.429,97.879L117.572,97.515L118.226,97.55L117.246,98.45L116.755,98.554L117.572,99.09L117.845,99.851L118.771,100.058L119.37,99.626L120.241,100.87L121.059,100.576L122.311,99.747L122.42,99.263L123.346,99.072L124,99.28L123.728,99.643L120.078,101.267L115.829,103.389L113.106,104.458L108.694,106.059L105.807,107.4L103.464,108.105L101.994,108.311L101.667,108.053L98.181,109.083L94.858,108.912L92.352,109.856L92.516,109.204L91.263,109.238L91.426,108.809L90.827,108.139L91.208,107.538L90.773,106.919L91.099,106.54L91.317,105.422L91.971,104.303L93.06,101.077L92.897,100.749L85.707,96.493L80.913,93.492L80.205,92.536L80.26,92.014L79.388,92.153L79.225,91.771L77.863,91.823L77.972,91.51L77.155,90.936L76.556,91.023L76.501,90.431L75.139,88.462L75.575,88.253L75.466,85.477L74.704,85.11L75.139,84.551L74.595,83.694L73.124,83.099L72.307,83.169L71.871,81.417L71.599,81.487L70.836,80.452L65.008,80.487L55.802,80.47L49.756,80.4L44.036,80.452L30.8,80.47L21.703,80.435L17.509,80.487L4.054,80.47L4,80.435Z" fill="currentColor"/>
</svg>
