<?xml version="1.0" encoding="UTF-8"?>
<svg xmlns="http://www.w3.org/2000/svg" viewBox="0 0 128 128" fill="none" aria-hidden="true">
  <path d="M32.563,89.769L34.46,87.031L35.68,85.682L36.357,83.11L37.983,81.337L40.287,79.479L45.436,78.423L48.824,76.521L48.824,73.603L50.992,72.545L51.94,71.148L56.547,68.098L58.986,67.463L60.612,65.3L61.967,65.639L64.271,63.985L62.374,60.971L59.664,59.229L58.715,57.019L55.87,54.722L54.921,51.827L51.534,51.018L50.992,49.101L51.263,45.049L49.908,43.47L47.604,43.683L46.385,43.086L46.114,39.54L47.062,38.257L45.978,37.316L47.198,33.036L48.688,33.25L51.805,28.408L48.553,23.257L50.314,21.195L52.753,19.948L54.921,17.539L54.379,16.506L56.683,14.999L58.173,12.889L60.07,7.541L63.051,4.562L65.22,4L77.144,11.466L95.03,22.054L95.437,22.87L92.727,30.894L91.101,33.679L90.559,36.461L89.746,37.402L88.797,38.856L83.784,40.352L83.242,43.939L82.022,44.622L81.615,46.756L81.615,48.589L84.19,49.783L86.358,49.015L89.61,50.89L91.507,51.274L92.049,49.399L92.591,53.232L92.185,57.784L90.288,65.512L88.526,75.972L87.849,83.279L82.429,93.431L80.938,95.449L79.718,95.828L80.125,97.173L78.77,99.483L76.06,102.127L75.924,102.924L71.724,105.23L67.388,109.755L64.542,114.691L61.561,120.914L58.851,123.416L56.276,124L54.786,123.416L55.599,119.745L57.631,115.694L58.038,112.809L55.192,111.261L52.753,111.094L51.94,110.048L49.501,110.173L48.553,111.68L47.333,110.675L47.062,108.708L44.623,107.158L44.216,105.901L42.861,106.404L40.829,103.553L39.88,103.889L37.441,101.456L36.086,99.105L33.512,98.055L34.325,92.169L32.699,90.948Z" fill="currentColor"/>
</svg>
