<?xml version="1.0" encoding="UTF-8"?>
<svg xmlns="http://www.w3.org/2000/svg" viewBox="0 0 128 128" fill="none" aria-hidden="true">
  <path d="M68.274,17.701L68.63,14.967L70.767,12.39L70.411,11.786L71.717,8.803L70.174,7.351L72.311,6.907L72.786,5.858L75.398,4.162L77.178,6.625L80.503,6.827L82.046,4L83.827,34.411L85.133,68.587L85.133,72.096L85.726,84.399L86.439,85.301L85.726,88.749L86.201,89.141L85.252,93.092L86.32,95.163L91.188,100.159L90.475,101.797L90.475,104.484L94.631,107.636L91.069,114.395L90.832,116.102L89.882,116.606L88.101,115.442L83.827,116.683L82.758,119.085L80.503,118.388L78.722,119.783L78.841,122.182L76.347,122.221L75.16,124L60.201,123.536L36.575,122.646L35.506,120.596L34.794,120.983L33.369,117.032L34.438,114.201L34.556,111.989L36.1,111.6L37.05,109.852L36.337,107.831L37.406,106.547L36.812,104.017L37.287,98.638L38.712,96.14L37.999,93.796L39.187,88.514L38.593,87.143L39.187,84.242L40.968,82.948L41.68,78.667L42.748,76.937L45.004,75.246L45.717,73.514L45.598,70.993L47.854,68.351L47.854,64.996L49.278,63.257L50.703,60.529L50.703,58.668L49.516,55.975L50.228,53.715L49.516,52.366L50.703,49.945L54.858,48.673L56.045,49.19L57.945,48.356L58.539,46.288L61.388,45.731L63.05,44.18L63.881,42.388L65.781,41.512L65.069,39.16L66.374,38.642L66.612,35.728L65.425,34.211L64.119,30.133L65.9,28.052L66.374,25.488L68.512,22.48L66.968,18.907Z" fill="currentColor"/>
</svg>
