<?xml version="1.0" encoding="UTF-8"?>
<svg xmlns="http://www.w3.org/2000/svg" viewBox="0 0 128 128" fill="none" aria-hidden="true">
  <path d="M11.133,4.038L25.08,4.038L39.53,4.019L49.079,4L49.205,4.169L60.89,4.132L79.801,4.113L81.937,4.151L93.496,4.151L104.114,4.056L116.93,4L116.93,12.695L116.867,14.922L116.176,14.922L116.239,18.902L116.239,33.932L116.176,41.942L116.176,69.672L116.051,73.873L115.925,81.398L115.925,84.079L115.799,88.641L115.799,110.255L104.302,110.273L90.104,110.273L74.398,110.255L53.602,110.255L53.54,112.045L53.1,112.364L53.288,113.037L53.917,113.479L53.854,113.886L54.859,114.24L55.173,114.736L41.728,114.736L25.771,114.736L25.771,123.982L11.07,124L11.07,73.203L11.133,71.158L11.07,68.53L11.133,57.468L11.133,40.505L11.07,39.952L11.133,35.578Z" fill="currentColor"/>
</svg>
