<?xml version="1.0" encoding="UTF-8"?>
<svg xmlns="http://www.w3.org/2000/svg" viewBox="0 0 128 128" fill="none" aria-hidden="true">
  <path d="M120.403,52.263L121.278,52.536L121.861,53.598L121.91,54.273L121.181,54.144L121.278,53.498ZM116.515,66.695L116.904,65.842L117.293,65.842L119.577,64.618L120.306,64.448L120.987,63.978L121.57,63.949L122.348,63.451L122.979,63.308L123.222,62.253L123.757,58.655L123.757,57.883L123.368,56.523L123.077,55.018L123.222,55.047L123.757,56.566L124,57.926L123.854,59.87L123.125,63.949L121.959,64.063L119.529,64.974L117.439,66.084ZM39.82,41.313L43.903,41.545L46.576,41.588L51.193,41.805L52.991,41.747L58.532,42.052L60.865,42.081L69.128,42.109L82.688,42.109L86.284,42.052L99.115,42.052L104.267,42.066L104.267,41.921L105.774,41.95L111.606,41.95L118.508,41.95L118.605,42.79L119.431,46.33L120.209,48.609L121.327,50.854L123.028,54.746L122.591,54.545L121.716,52.45L121.035,51.3L120.403,51.142L119.966,48.637L119.188,46.403L118.8,46.071L118.945,45.508L118.702,44.222L118.216,43.788L118.022,43.094L116.807,42.906L116.758,42.327L116.126,42.616L116.418,43.499L117.196,44.193L117.73,44.048L117.73,45.016L118.459,46.965L118.897,47.845L118.848,48.22L119.383,49.3L119.383,49.977L118.459,49.055L118.508,48.522L117.876,47.643L117.73,47.095L117.147,46.922L117.439,47.47L117.293,47.874L117.973,48.436L116.467,48.075L114.911,46.374L114.182,46.2L115.106,47.6L115.592,47.845L115.883,48.594L115.446,48.926L114.279,49.127L113.259,48.104L113.599,49.012L114.085,49.401L113.745,49.602L112.238,48.954L111.606,48.882L111.363,48.465L110.488,48.119L111.606,49.17L112.627,49.502L112.287,49.775L111.12,49.89L110.488,50.782L109.711,51.099L108.885,51.084L108.496,50.638L107.524,50.466L106.94,48.724L106.94,47.845L107.524,46.72L107.281,46.532L106.6,47.629L106.503,48.724L106.892,50.077L107.426,51.185L107.183,51.789L107.572,52.277L109.516,52.134L111.315,51.458L111.752,52.162L112.384,52.076L113.016,51.645L114.279,51.3L115.835,51.314L116.515,51.904L116.515,52.521L115.835,53.641L115.981,54.431L116.078,56.781L116.515,56.709L116.855,55.062L117.001,52.909L117.682,52.335L117.39,51.861L118.07,51.573L119.286,51.875L120.063,53.225L120.403,54.158L120.209,54.904L120.549,56.308L120.16,56.666L120.355,57.439L119.723,58.212L118.897,58.355L118.605,58.097L118.119,58.326L117.827,58.898L117.341,59.027L117.196,59.641L116.855,59.798L116.515,60.812L115.883,61.027L115.738,61.683L114.911,62.039L114.765,62.382L113.502,62.025L112.092,62.082L110.829,61.826L110.586,61.469L110.1,61.669L109.371,61.027L108.739,59.384L110.245,59.341L110.488,58.698L109.128,59.055L108.544,58.898L108.107,59.37L108.544,60.184L108.836,61.412L108.496,61.412L107.086,60.741L106.406,60.884L105.434,60.398L103.927,59.97L102.809,59.284L102.761,59.698L103.587,60.57L104.608,60.641L107.67,62.097L109.905,62.496L110.294,62.938L110.343,63.508L110.002,64.305L109.371,65.074L109.419,65.472L108.982,66.226L108.253,66.823L105.823,68.414L103.392,66.823L103.441,67.746L104.608,68.527L106.357,69.137L108.107,68.002L108.739,67.974L110.051,67.548L110.245,66.667L110.78,66.866L110.926,67.803L111.315,68.243L112.19,68.314L111.752,67.249L112.724,67.661L112.821,68.868L111.995,69.932L111.12,70.116L111.12,70.598L110.586,70.881L109.905,72.071L109.565,73.076L108.739,72.793L108.787,71.66L108.301,71.391L108.35,72.552L107.572,72.651L109.614,73.557L110.731,71.816L112.335,70.116L113.502,69.052L115.786,66.553L116.175,66.851L114.814,68.03L113.55,69.393L112.481,70.272L111.461,71.377L110.586,72.538L109.565,74.164L109.419,74.617L109.225,73.67L107.524,72.892L105.628,72.878L102.712,73.415L101.303,73.882L100.33,74.334L98.775,75.478L96.88,76.537L95.616,77.426L93.818,79.018L93.137,79.793L91.922,81.593L91.242,83.153L90.756,84.725L90.318,85.692L90.124,86.659L89.492,86.561L89.346,86.085L88.326,85.79L87.208,85.664L85.847,85.692L84.389,85.86L82.688,86.449L82.299,86.687L77.779,82.057L72.724,76.96L71.217,75.323L66.94,71.051L63.976,71.037L60.379,70.938L51.728,70.796L51.922,68.882L49.881,66.055L48.423,67.093L48.18,66.795L48.52,66.112L48.423,65.358L45.75,65.173L40.646,64.946L31.509,64.533L30.391,64.818L30.148,64.262L29.565,65.003L29.225,64.875L28.253,65.259L27.961,65.188L26.552,65.856L25.191,66.709L24.851,66.411L20.428,67.817L13.478,67.959L13.526,68.045L4,68.016L4.437,64.106L5.507,63.422L5.652,63.793L7.013,63.736L8.083,62.838L7.84,62.025L8.277,61.669L8.083,61.041L8.909,60.156L9.541,59.941L9.93,59.256L10.707,59.141L11.436,58.498L15.324,58.398L15.859,57.683L16.928,57.225L17.171,56.852L17.657,56.953L18.435,56.265L18.629,55.764L19.407,55.707L19.796,55.133L20.817,54.717L21.983,54.975L23.247,53.326L23.101,52.421L23.587,51.99L24.316,52.507L25.288,51.099L26.892,50.092L27.378,50.667L27.135,51.674L27.864,51.961L29.225,51.07L29.954,49.732L30.683,49.228L31.509,48.926L32.092,48.998L32.53,48.522L33.453,48.695L33.648,49.415L34.377,49.415L35.057,49.012L36.661,46.128L37.682,45.363L38.216,45.19L38.605,45.522L39.431,45.522L38.945,44.453L39.286,43.513L39.577,43.34L39.383,42.182Z" fill="currentColor"/>
</svg>
