<?xml version="1.0" encoding="UTF-8"?>
<svg xmlns="http://www.w3.org/2000/svg" viewBox="0 0 128 128" fill="none" aria-hidden="true">
  <path d="M4,27.679L14.81,27.699L33.324,27.699L45.514,27.699L50.804,27.699L61.901,27.679L71.101,27.699L78.863,27.699L86.971,27.679L101.69,27.658L113.248,27.658L113.075,28.496L113.708,30.549L114.053,31.051L114.513,33.642L115.375,35.311L115.203,36.603L114.685,37.102L114.283,38.683L114.685,39.909L114.743,42.129L114.57,43.207L115.03,45.131L114.628,46.227L114.8,48.497L115.72,50.578L116.008,53.067L116.64,53.765L116.813,54.956L117.445,57.026L117.905,57.374L118.538,59.257L118.94,61.075L119.228,61.136L119.17,65.558L119.573,67.651L119.4,68.666L119.515,70.977L119.803,72.839L119.745,76.292L120.378,77.32L120.723,77.098L120.378,79.454L120.09,79.796L120.435,82.047L120.148,83.411L120.263,84.193L120.895,85.335L121.125,87.715L121.413,88.694L122.563,90.649L123.31,91.188L123.368,93.756L124,97.49L123.655,98.223L123.885,100.323L111.81,100.342L101.115,100.323L94.273,100.303L79.783,100.224L68.744,100.184L58.451,100.145L43.904,100.125L36.832,100.125L20.042,100.105L10.095,100.105L4.057,100.105L4.057,42.854L4,42.502Z" fill="currentColor"/>
</svg>
