<?xml version="1.0" encoding="UTF-8"?>
<svg xmlns="http://www.w3.org/2000/svg" viewBox="0 0 128 128" fill="none" aria-hidden="true">
  <path d="M62.343,16.884L63.816,16.383L63.632,17.444ZM59.581,15.381L60.134,12.725L61.146,13.758L60.87,14.791L59.581,16.029ZM9.228,13.699L20.643,13.345L36.016,12.755L43.932,12.43L44.024,13.198L45.958,14.024L47.154,13.522L50.56,15.941L52.862,16.53L53.874,17.149L55.531,19.093L57.28,19.946L58.937,19.269L59.121,17.797L59.766,17.414L61.054,19.034L62.803,18.975L62.711,20.064L65.381,22.886L66.854,23.856L68.879,24.473L72.653,22.798L74.678,22.681L76.243,21.652L80.938,19.887L84.344,21.005L86.093,20.564L87.934,20.828L90.603,19.034L93.273,16.501L94.009,16.206L95.482,14.496L99.533,11.485L100.453,11.456L106.621,8.264L109.382,7.761L111.592,6.754L117.575,4.711L119.14,4L119.14,49.729L117.483,50.512L116.194,50.483L115.366,51.934L116.378,53.21L117.207,55.644L116.839,57.699L117.115,60.446L116.654,62.323L115.734,62.987L115.274,64.747L114.353,66.131L114.353,67.802L113.525,68.666L113.525,72.176L112.88,72.751L113.064,74.245L111.868,73.929L112.236,75.652L111.315,76.312L111.315,77.948L110.211,79.324L111.223,80.756L110.303,81.501L109.935,83.876L108.462,84.133L105.7,86.677L104.227,88.305L103.491,89.675L102.478,89.903L101.466,91.443L99.901,91.671L97.968,93.011L96.955,93.096L96.403,91.614L94.838,91.073L92.537,93.239L92.26,95.602L89.407,95.402L89.131,96.967L88.21,97.309L87.474,98.474L87.75,101.201L86.001,101.74L86.277,102.961L87.197,103.783L86.829,106.929L86.001,106.221L85.172,106.787L84.896,107.976L84.068,108.599L83.055,108.033L83.791,106.9L82.687,104.662L81.674,104.634L80.478,103.5L79.925,104.549L78.821,105.314L77.532,107.807L77.532,109.702L75.599,111.173L76.519,114.139L76.795,116.989L76.243,117.835L74.77,117.637L73.666,118.427L73.389,121.187L72.929,122.566L70.812,122.875L67.59,124L65.933,123.438L65.749,122.2L64.552,121.215L62.619,118.99L60.686,118.821L59.489,117.778L58.661,114.647L58.937,113.405L58.293,112.473L56.36,113.377L54.979,113.377L54.15,114.478L52.493,115.438L51.573,116.933L48.811,116.904L47.615,117.581L47.154,116.369L46.142,115.691L43.564,115.127L42.183,114.224L39.79,114.845L38.501,116.707L35.924,115.889L35.463,114.478L34.083,113.744L33.807,112.784L31.137,111.484L28.099,112.021L24.417,110.862L23.957,110.127L23.957,108.259L22.484,105.909L21.563,103.528L18.894,102.62L18.526,100.662L17.789,100.435L17.053,101.258L15.764,101.173L14.475,101.996L12.542,101.201L11.161,99.668L10.517,99.611L8.86,100.974L8.86,94.207L9.044,86.277L9.044,73.642L9.32,61.052L9.32,20.828Z" fill="currentColor"/>
</svg>
