<?xml version="1.0" encoding="UTF-8"?>
<svg xmlns="http://www.w3.org/2000/svg" viewBox="0 0 128 128" fill="none" aria-hidden="true">
  <path d="M4.05,34.98L7.166,34.995L8.271,35.07L17.467,35.115L25.256,35.07L35.759,35.01L43.246,34.95L50.985,34.995L56.161,34.995L69.126,35.025L79.578,35.01L90.533,35.01L99.025,35.01L108.874,34.995L121.387,35.01L121.387,43.731L121.688,45.674L122.04,48.749L122.342,50.64L123.045,55.915L123.246,57.13L124,62.852L123.899,67.55L123.749,71.383L123.698,74.824L123.598,77.309L123.497,83.385L123.246,92.689L122.794,93.05L121.839,91.996L121.035,92.184L120.985,91.851L120.131,91.866L119.226,90.723L118.472,90.955L117.869,90.882L116.814,89.754L116.462,88.914L115.357,88.885L114.201,87.653L112.844,87.247L112.492,88.233L111.94,88.697L111.286,88.798L109.578,88.74L109.578,88.523L108.523,88.624L108.171,87.74L107.668,87.697L106.462,88.45L105.457,88.407L105.508,89.059L104.854,88.928L104.402,89.377L102.945,88.494L102.894,88.928L101.387,89.348L100.633,89.16L100.683,89.45L99.98,89.334L99.578,90.636L98.874,90.839L97.92,90.564L97.568,91.735L96.965,91.779L96.915,91.461L96.06,90.318L95.005,90.405L94.603,89.58L94.05,89.638L93.246,89.204L93.849,88.363L92.593,88.132L92.191,89.377L91.286,89.508L91.085,88.899L90.432,88.697L90.131,89.175L89.678,88.813L89.377,87.436L89.126,87.276L88.422,87.668L88.121,87.45L88.271,88.508L87.467,89.334L86.814,89.059L87.367,89.667L86.714,89.985L86.864,90.911L86.312,91.36L85.759,91.157L85.156,89.797L85.658,89.363L85.558,88.407L85.106,88.001L84.603,88.276L84.503,88.885L83.849,88.61L83.397,88.711L82.844,89.638L81.839,89.566L81.588,89.131L81.638,88.219L81.035,87.943L80.231,88.334L79.678,87.972L79.829,87.378L78.874,86.769L78.422,86.812L77.819,87.653L76.362,88.986L75.759,89.117L74.955,88.624L74.503,88.581L74.704,87.639L74.452,87.653L74.804,86.783L74.452,86.493L73.799,86.696L72.844,86.537L72.342,85.216L72.744,84.707L72.543,83.981L71.688,84.664L70.683,84.344L69.93,84.344L68.975,83.937L68.422,84.519L68.271,85.158L67.266,85.535L66.06,84.141L65.005,83.807L64.402,84.344L63.347,84.286L62.693,83.908L62.04,83.865L61.186,83.516L60.231,82.847L59.427,83.24L58.975,83.021L58.372,83.181L58.271,82.89L57.367,82.934L57.116,80.896L56.211,80.081L56.412,79.76L55.608,79.687L54.704,78.856L54.503,80.197L53.899,80.255L52.794,79.57L51.94,79.541L51.638,80.255L50.131,80.037L48.925,78.9L47.065,76.812L46.06,77.09L46.06,43.731L39.879,43.731L30.884,43.731L23.347,43.731L14.553,43.716L4,43.716L4.05,41.934Z" fill="currentColor"/>
</svg>
