<?xml version="1.0" encoding="UTF-8"?>
<svg xmlns="http://www.w3.org/2000/svg" viewBox="0 0 128 128" fill="none" aria-hidden="true">
  <path d="M18.907,19.969L20.025,19.784L20.717,20.614L20.664,21.626L21.569,22.399L22.9,22.417L24.603,21.479L25.349,21.553L28.49,23.741L28.862,24.861L29.821,26.346L29.874,27.391L30.247,28.343L30.087,29.568L30.619,31.176L30.406,31.924L30.566,32.836L32.323,33.82L34.772,34.457L35.358,34.803L36.263,34.548L36.955,35.131L37.913,35.222L39.138,34.512L40.362,34.384L43.237,32.872L43.876,32.052L44.674,31.76L45.792,32.033L47.336,31.815L48.827,31.34L49.839,31.888L50.744,32.052L51.702,31.796L53.512,32.526L53.991,33.893L54.736,33.82L55.748,32.909L57.558,32.836L58.25,33.128L58.836,32.508L61.338,31.577L62.137,30.938L63.255,31.103L64.373,32.033L65.544,31.924L67.354,31.45L68.419,31.358L69.004,30.591L70.495,30.098L72.039,29.257L74.488,28.764L76.458,28.581L77.15,27.537L77.895,27.116L79.173,27.519L82.58,26.805L83.485,27.061L84.497,26.951L85.988,26.181L86.573,25.521L95.251,25.503L108.561,25.558L117.292,25.613L118.144,27.574L118.729,28.068L119.581,29.44L120.539,29.349L121.072,30.208L122.083,30.244L122.935,31.121L122.935,32.088L123.627,32.982L124,33.966L122.722,35.931L122.669,36.931L122.137,37.348L120.859,40.069L120.912,40.722L120.433,41.645L120.06,43.742L119.368,44.464L119.049,45.421L118.303,46.214L118.144,47.133L118.516,48.178L118.037,49.401L117.079,50.767L117.079,51.144L115.375,52.023L114.63,53.69L114.204,55.427L113.672,56.607L112.713,57.465L112.873,58.643L112.447,59.285L113.246,60.515L112.82,61.512L113.512,62.135L114.524,61.69L115.375,62.74L116.44,62.526L116.547,63.469L117.505,63.771L117.558,64.321L117.026,65.422L116.387,65.724L116.44,66.468L117.026,67.036L116.972,67.797L116.334,69.231L116.334,70.186L115.748,70.38L115.642,71.422L115.642,108.044L106.804,108.078L92.27,108.164L90.886,108.216L83.272,108.181L71.56,108.147L71.56,108.164L71.56,108.147L66.662,108.181L56.174,108.181L50.105,108.113L41.906,107.976L39.51,107.89L34.453,107.873L32.483,107.958L26.36,107.993L24.87,107.856L21.888,108.061L17.789,108.044L17.31,108.147L9.058,108.078L7.94,107.135L7.141,106.191L6.768,105.006L6.875,104.438L6.13,103.045L6.236,102.494L5.863,101.408L5.757,99.235L6.449,96.694L6.076,94.841L5.171,93.333L4.586,93.298L4,91.163L4.799,89.598L5.437,87.926L5.757,86.479L5.757,85.572L6.236,84.175L6.555,82.444L6.236,81.708L7.141,80.78L7.567,80.026L8.419,77.71L9.217,74.315L10.016,69.319L10.389,65.333L10.602,61.993L10.495,61.85L11.028,58.34L10.974,57.107L11.347,53.816L11.347,52.167L11.081,51.467L11.507,49.832L12.146,45.746L12.571,43.634L12.784,40.794L12.625,39.598L12.784,37.621L12.571,36.367L12.838,35.931L13.104,32.726L13.051,31.34L12.465,30.591L12.784,29.001L12.678,27.482L12.305,26.658L13.157,25.998L13.21,23.998L12.199,20.448L13.636,21.902L14.382,22.16L14.222,21.461L15.446,21.276L15.819,20.963L16.405,21.479L17.043,20.908L17.842,20.908Z" fill="currentColor"/>
</svg>
