<?xml version="1.0" encoding="UTF-8"?>
<svg xmlns="http://www.w3.org/2000/svg" viewBox="0 0 128 128" fill="none" aria-hidden="true">
  <path d="M4,37.311L7.549,35.859L10.876,34.095L11.542,33.522L12.281,32.09L13.242,32.019L13.464,32.687L16.126,30.968L19.601,29.199L19.601,36.692L19.675,36.74L37.937,36.764L43.63,36.692L55.978,36.74L73.945,36.716L81.708,36.645L89.915,36.74L102.41,36.764L110.322,36.716L111.357,38.12L111.726,38.025L112.318,40.403L113.427,40.308L115.423,41.116L116.163,42.279L115.571,43.039L116.606,43.537L116.754,47.305L116.163,47.589L118.011,50.261L118.085,51.064L118.898,50.946L120.007,51.725L119.86,52.15L121.708,52.08L121.93,52.599L123.113,52.41L123.039,53.118L124,54.415L122.817,54.722L121.19,56.347L120.155,59.265L119.342,60.417L118.085,61.239L118.381,61.803L117.198,63.117L115.867,63.797L114.906,64.923L116.68,67.733L114.98,70.375L114.166,70.259L113.501,72.594L114.092,73.107L113.575,73.807L113.723,75.742L114.388,76.068L115.645,75.952L116.384,76.813L116.237,79.024L116.532,80.07L118.381,80.512L118.898,82.091L120.451,83.345L120.969,84.551L122.447,85.501L123.482,87.146L122.226,88.048L121.486,87.863L120.599,89.043L119.268,89.39L116.754,91.054L116.237,91.817L115.054,92.394L115.054,93.986L113.205,95.024L110.396,95.6L109.139,96.614L107.438,95.761L105.811,95.623L104.037,96.084L102.928,96.867L101.449,98.755L85.405,98.778L76.68,98.801L65.516,98.801L48.067,98.732L25.516,98.778L13.168,98.778L4,98.778L4,74.04Z" fill="currentColor"/>
</svg>
