<?xml version="1.0" encoding="UTF-8"?>
<svg xmlns="http://www.w3.org/2000/svg" viewBox="0 0 128 128" fill="none" aria-hidden="true">
  <path d="M118.927,57.759L120.671,58.598L122.573,58.079L124,59.518L121.305,60.956L119.403,60.197ZM108.465,68.584L116.232,66.428L121.781,67.706L118.927,68.744L115.598,69.023L113.855,69.981L112.587,69.502L109.892,70.181ZM107.672,55.72L108.782,56.28L108.782,58.039ZM33.643,56.919L36.021,56.2L38.716,54.241L38.082,51.721L39.192,50.441L41.411,49.96L44.581,50.201L47.276,51.201L55.202,51.121L58.373,52.001L62.177,50.961L65.03,51.161L68.993,52.161L70.262,51.361L74.7,51.361L78.98,52.161L81.517,52.121L82.626,52.881L83.577,51.921L89.443,53.321L90.077,52.561L92.93,53.281L93.881,53.001L98.795,54.321L101.015,56.28L102.124,55.76L102.917,56.839L104.502,57.079L106.721,56.2L105.929,57.799L106.404,61.156L108.465,62.354L107.355,64.072L105.612,63.313L106.087,64.432L104.502,64.352L103.392,65.63L101.332,65.59L99.588,67.945L98.478,71.258L97.21,71.498L97.052,73.253L93.089,75.088L90.711,75.447L88.808,74.969L87.699,76.046L86.114,75.527L82.785,77.242L81.199,76.883L79.773,78.04L78.505,77.681L75.651,75.048L73.749,75.447L72.639,76.803L69.31,74.41L68.042,74.41L64.079,75.727L61.86,74.769L59.958,75.527L55.995,73.652L54.885,75.208L52.666,76.285L49.337,76.405L47.435,77.122L46.166,75.487L42.838,75.168L41.094,76.444L38.082,75.687L36.18,76.165L36.338,74.051L37.923,72.814L36.18,72.336L36.655,69.742L37.448,69.143L37.606,66.149L38.716,64.911L37.131,60.876L35.07,60.037ZM4.317,68.784L7.487,68.305L8.28,70.021L5.902,71.538L4,70.261Z" fill="currentColor"/>
</svg>
