<?xml version="1.0" encoding="UTF-8"?>
<svg xmlns="http://www.w3.org/2000/svg" viewBox="0 0 128 128" fill="none" aria-hidden="true">
  <path d="M94.446,51.718L101.129,53.859L102.243,76.312L94.817,81.768L92.59,69.665L93.332,62.063L89.619,59.448L90.362,78.329L84.05,78.091L83.307,82.242L79.594,83.072L79.223,76.549L85.164,65.271L88.134,57.189ZM76.995,53.74L78.852,52.908L82.936,59.091L81.08,59.923ZM73.282,81.412L75.51,75.363L74.025,72.633L75.881,65.865L77.367,68.24L77.367,78.329ZM51.376,122.82L55.46,113.372L57.317,115.026L57.688,124ZM25.757,100.838L28.727,97.406L27.613,88.406L32.069,87.458L33.183,62.657L33.183,44.815L32.069,18.342L32.069,5.555L75.139,4L75.139,21.566L79.594,20.85L78.852,30.515L80.708,37.191L87.763,41.123L91.476,46.839L90.362,52.194L85.164,57.07L82.936,52.075L84.421,47.91L77.367,41.48L74.396,36.714L76.253,52.075L68.084,50.052L72.54,54.692L72.911,63.608L68.456,64.914L71.426,71.209L71.426,79.752L67.713,85.088L64.743,93.736L60.287,93.026L50.262,95.157L40.237,99.182L26.128,102.731Z" fill="currentColor"/>
</svg>
