<?xml version="1.0" encoding="UTF-8"?>
<svg xmlns="http://www.w3.org/2000/svg" viewBox="0 0 128 128" fill="none" aria-hidden="true">
  <path d="M4,47.256L4.282,47.179L4.282,30.393L4.226,25.987L10.158,25.987L19.932,25.987L36.429,26.006L43.379,26.006L57.672,26.026L67.785,26.064L78.633,26.103L92.87,26.181L99.593,26.201L110.102,26.22L121.966,26.201L121.74,28.687L120.949,29.579L120.271,30.8L119.028,31.555L117.616,32.755L117.333,33.645L118.802,35.537L119.311,36.945L120.102,38.005L121.119,38.082L123.153,39.218L123.718,40.468L123.718,49.644L123.774,55.395L123.718,57.313L123.718,80.161L121.458,80.161L121.74,80.571L121.345,81.261L122.588,82.452L122.531,84.498L121.74,84.59L122.192,85.556L122.023,86.132L123.379,86.187L123.492,87.726L124,88.375L123.605,89.597L122.814,89.893L123.096,90.929L122.644,91.447L122.983,91.835L122.305,92.684L122.305,94.161L121.684,94.456L121.514,95.414L120.893,95.893L120.949,97.293L121.797,97.789L122.757,98.893L123.322,100.491L123.096,101.316L123.831,101.885L122.87,102.013L122.588,101.463L121.232,101.555L120.836,100.582L119.65,99.37L120.045,98.415L119.424,98.12L118.237,98.065L118.181,97.329L116.599,96.685L115.921,96.998L115.469,96.114L113.04,95.875L112.757,95.359L111.74,94.991L111.684,94.29L110.271,93.829L109.424,94.087L108.576,93.847L108.181,94.271L107.164,94.013L106.26,94.253L105.356,94.05L104.339,94.364L102.927,94.198L101.797,93.81L101.345,94.013L100.836,95.378L100.158,95.912L99.085,96.078L97.333,94.806L95.299,93.663L92.023,92.093L91.514,91.003L85.186,91.003L74.678,91.022L66.034,91.003L53.944,91.022L42.305,91.058L38.802,90.985L28.746,90.985L20.667,90.966L4.113,90.948L4.113,84.553L4.056,84.405L4.056,49.987Z" fill="currentColor"/>
</svg>
