<?xml version="1.0" encoding="UTF-8"?>
<svg xmlns="http://www.w3.org/2000/svg" viewBox="0 0 128 128" fill="none" aria-hidden="true">
  <path d="M10,22.88L18.149,20.289L18.776,20.839L21.284,19.267L23.881,18.035L24.418,18.166L26.209,17.458L26.836,17.694L27.91,16.33L28.358,17.353L30.418,16.829L47.254,17.589L56.657,18.009L61.582,18.35L61.761,19.739L61.134,20.996L61.582,21.546L64.269,19.634L68.03,24.842L67.672,28.369L83.612,28.63L90.239,28.813L95.701,28.839L103.582,36.71L106.358,39.727L115.672,49.118L124,57.649L122.836,57.855L119.612,59.171L117.194,60.873L114.06,63.99L112.448,66.023L111.821,67.18L110.388,68.671L109.134,71.06L107.97,75.523L108.239,76.933L107.612,78.162L106.358,79.365L104.299,80.414L103.493,82.894L101.97,82.639L100.448,83.048L99.463,82.051L98.03,82.894L97.134,84.504L97.403,85.296L98.119,85.04L98.119,85.883L96.776,86.394L95.164,87.542L94.358,88.868L91.313,90.372L90.418,89.404L89.433,89.582L89.343,90.398L90.866,90.958L90.418,92.461L88.179,93.785L87.552,94.803L86.657,94.676L84.507,95.236L82.985,96.736L82.448,96.279L79.224,98.566L78.507,98.033L77.164,98.744L76.985,97.982L75.821,98.007L75.463,99.074L76.806,101.182L76.179,103.059L73.313,104.632L71.612,105.139L71.433,104.099L69.731,103.085L68.746,103.643L68.567,104.429L69.642,104.809L70.896,106.304L69.552,107.95L67.313,109.444L66.507,109.444L64.985,111.139L65.433,111.67L64.627,111.568L62.657,109.773L61.672,110.203L59.791,109.342L59.343,107.773L59.701,107.115L58.716,105.417L59.612,104.302L59.075,102.375L58.716,102.476L57.373,99.811L57.731,98.947L55.672,96.889L55.672,96.304L53.433,95.643L52.358,94.422L52.806,93.378L52.448,92.156L51.91,91.952L52.358,90.806L52,89.99L52,87.823L51.194,87.44L51.015,86.189L49.94,84.555L50.388,82.843L48.687,81.744L47.254,80.261L46.448,80.286L44.03,78.879L43.313,77.727L43.493,76.676L42.507,76.804L41.343,75.728L41.701,74.959L39.194,72.856L39.552,72.035L39.194,71.034L39.821,69.93L39.463,69.313L38.119,68.645L36.507,66.254L34.985,65.302L33.91,65.251L32.746,64.273L32.657,63.243L31.851,62.187L31.493,60.615L28.896,58.087L26.299,56.745L24.597,54.886L23.791,54.86L22.806,52.249L21.552,51.007L20.836,49.273L19.761,48.652L19.134,46.89L19.134,45.568L18.149,44.219L17.881,42.921L16.806,42.143L16.537,40.48L15.821,38.817L15.104,38.505L12.597,38.921L10.537,37.594L8.478,34.888L6.955,34.705L4.269,32.569L4,30.9L4.716,30.222L4.627,29.283L6.955,26.541L9.731,24.764Z" fill="currentColor"/>
</svg>
