<?xml version="1.0" encoding="UTF-8"?>
<svg xmlns="http://www.w3.org/2000/svg" viewBox="0 0 128 128" fill="none" aria-hidden="true">
  <path d="M11.957,61.168L12.554,60.829L12.703,59.725L13.797,59.136L13.747,58.237L12.355,57.145L12.504,56.835L13.996,57.071L14.742,56.85L14.692,56.451L13.648,55.875L13.648,55.329L14.841,55.314L15.09,54.767L14.593,53.895L14.941,52.948L14.642,52.622L15.388,52.637L15.289,53.096L15.935,53.199L16.333,52.607L17.974,52.459L22.152,52.548L28.418,52.548L35.231,52.637L35.529,51.689L35.032,49.509L38.065,49.761L38.016,50.28L43.685,50.162L48.26,50.132L55.521,49.954L55.869,50.28L56.665,49.954L59.102,50.013L63.229,50.34L66.014,50.488L70.788,50.607L73.523,50.399L77.203,50.533L79.74,50.77L83.867,50.933L87.647,51.007L91.576,51.037L95.703,51.155L95.902,50.844L97.543,50.903L101.422,50.888L101.671,50.963L109.479,50.977L112.512,50.933L120.022,50.963L120.171,50.577L124,50.651L123.602,51.066L123.155,51.955L123.354,53.14L123.055,53.318L122.707,54.279L123.204,55.373L122.359,55.373L121.961,55.033L121.414,55.211L120.37,55.994L118.729,58.944L118.032,59.357L117.286,59.357L117.087,58.62L116.143,58.443L115.695,58.929L115.098,58.856L114.253,59.165L113.507,59.681L112.761,61.05L111.368,61.962L110.622,61.668L110.871,60.638L110.374,60.049L108.733,61.079L107.738,62.52L106.992,61.991L106.495,62.432L106.644,63.358L105.351,65.046L104.157,64.782L103.113,65.207L102.715,65.794L101.92,65.853L101.721,66.366L100.925,67.069L100.428,66.966L100.179,67.347L99.085,67.816L98.538,68.548L94.559,68.65L93.814,69.308L93.018,69.425L92.62,70.127L91.973,70.346L91.128,71.252L91.327,71.894L90.879,72.259L91.128,73.091L90.034,74.009L88.642,74.068L88.492,73.689L87.398,74.388L86.951,78.389L77.85,78.404L71.087,78.491L69.147,78.462L66.114,78.389L58.206,78.331L56.366,78.36L51.741,78.331L43.785,78.142L40.651,78.142L33.192,78.055L33.192,78.273L23.146,78.288L15.388,78.302L4,78.273L4.149,77.561L5.392,77.75L5.84,76.296L6.288,75.917L6.884,76.223L7.382,75.859L6.636,75.015L7.232,74.388L6.934,73.966L6.188,73.864L5.989,73.178L6.785,73.033L6.785,72.376L7.232,71.69L6.487,71.179L6.387,71.807L5.79,71.719L5.939,71.048L7.083,70.069L7.481,71.354L8.028,70.259L7.581,69.645L7.829,68.796L8.277,68.665L9.371,69.484L9.52,68.899L9.073,68.753L9.023,67.977L10.316,67.362L10.167,66.805L9.57,67.142L9.122,66.893L8.824,65.897L9.57,65.295L10.017,65.603L10.863,65.281L11.31,64.518L11.857,64.503L12.404,64.019L11.41,63.49L11.857,62.77L13.051,63.108L13.051,62.447L12.156,61.726Z" fill="currentColor"/>
</svg>
