<?xml version="1.0" encoding="UTF-8"?>
<svg xmlns="http://www.w3.org/2000/svg" viewBox="0 0 128 128" fill="none" aria-hidden="true">
  <path d="M37.297,6.923L44.186,6.923L49.927,6.933L54.847,6.933L60.72,6.933L64.755,6.933L64.755,28.71L65.411,28.529L66.624,29.892L67.412,30.634L68.396,30.777L68.593,30.31L69.15,30.329L69.872,30.777L70.266,30.739L70.397,29.863L70.987,30.406L71.512,30.453L71.381,30.662L71.972,31.195L72.136,32.525L72.726,32.497L72.792,32.687L73.185,32.582L73.481,32.725L74.005,32.468L74.629,32.905L75.186,33.133L75.613,33.161L76.039,33.408L76.728,33.446L77.122,33.095L77.811,33.313L78.598,34.223L79.254,33.977L79.353,33.56L79.714,33.18L80.337,33.446L80.829,33.446L81.485,33.655L82.043,33.209L82.174,33.683L81.911,34.015L82.239,34.877L82.863,34.981L83.289,34.849L83.519,35.038L83.289,35.606L83.453,35.597L83.322,36.212L83.617,36.24L84.142,36.561L84.536,36.476L85.487,35.606L85.881,35.057L86.176,35.029L86.799,35.426L86.701,35.814L87.062,36.051L87.587,35.795L87.98,35.975L87.948,36.571L88.112,36.854L88.768,36.902L89.128,36.297L89.424,36.23L89.85,36.41L89.916,36.013L90.244,35.833L90.539,36.098L90.605,36.722L90.277,37.006L90.67,37.893L91.031,38.026L91.392,37.733L91.294,37.128L91.72,36.921L91.359,36.524L91.786,36.703L92.311,36.164L92.212,35.474L92.409,35.616L92.868,35.36L93.032,35.464L93.229,36.363L93.524,36.599L93.721,36.287L94.148,36.42L94.279,36.817L94.869,36.732L95.132,35.918L95.952,36.07L95.558,36.618L96.083,36.902L96.444,36.864L96.706,37.402L97.395,37.346L97.953,38.092L97.986,38.299L98.379,38.271L98.609,37.506L99.232,37.686L99.692,37.554L99.954,36.703L100.413,36.779L100.381,36.59L100.873,36.713L101.857,36.438L101.89,36.155L102.841,36.732L103.136,36.438L103.563,36.524L103.53,36.098L104.186,36.126L104.973,35.634L105.301,35.663L105.531,36.24L106.22,36.174L106.22,36.316L107.335,36.353L107.762,36.287L108.122,35.985L108.352,35.341L109.238,35.606L109.992,36.41L110.714,36.429L110.944,36.977L111.633,37.714L112.026,37.761L112.518,37.61L113.109,38.356L113.666,38.347L113.699,38.564L114.224,38.441L114.847,39.129L115.143,38.894L115.405,38.818L115.405,39.327L115.766,39.563L116.061,39.506L115.996,39.846L116.324,39.93L116.488,39.676L116.75,39.846L116.849,39.572L117.537,39.827L117.898,39.393L118.292,39.554L118.456,39.836L118.653,39.638L119.178,39.846L119.178,39.846L119.21,39.949L119.21,45.66L119.21,56.795L119.473,56.906L119.834,57.572L120.424,57.859L120.72,58.626L121.212,59.134L121.146,59.448L121.408,59.965L121.179,60.352L121.277,60.767L121.048,61.026L121.244,61.496L121.54,61.79L121.966,61.846L122.065,62.168L121.868,62.417L122.327,62.748L122.294,63.042L122.557,63.18L122.655,63.631L122.458,64.118L122.852,64.55L123.049,64.532L123.245,65.569L123.869,65.459L123.672,66.395L123.934,66.679L124,67.174L123.574,67.366L123.541,67.668L123.934,68.172L123.639,68.373L123.541,68.721L123.672,69.297L123.377,69.599L123.081,70.174L122.983,70.841L122.589,71.069L122.524,71.69L122.065,71.963L121.966,72.328L122.196,72.547L122.36,73.376L121.933,73.84L121.736,74.514L122.261,74.987L122.294,75.468L122.13,75.823L122.425,76.54L122.032,77.176L122.327,77.348L121.966,77.81L121.507,78.164L121.277,78.871L120.851,79.541L120.293,79.948L120.227,80.175L120.523,80.446L121.08,81.296L121.08,81.422L119.571,81.395L118.358,81.757L114.159,83.634L113.24,84.184L112.912,84.671L112.42,84.608L113.142,83.968L113.437,83.544L113.863,83.553L114.159,83.382L114.421,82.967L114.716,83.111L115.077,83.039L114.585,82.542L112.814,83.03L112.551,82.795L113.109,81.983L113.24,81.26L113.24,80.591L112.846,80.545L112.682,80.337L112.125,80.6L111.797,80.97L111.665,81.422L111.173,81.639L110.976,81.224L110.386,81.63L110.32,81.946L110.616,82.235L110.288,82.687L110.616,83.183L111.272,83.337L111.075,83.824L111.436,84.004L111.501,84.707L111.436,85.31L111.173,85.589L110.878,85.499L110.255,86.138L109.533,86.723L109.435,86.489L109.008,86.561L108.943,87.352L109.139,87.586L109.566,87.19L110.419,86.606L110.517,86.435L111.567,85.544L112.059,85.337L112.059,84.932L112.912,85.067L112.256,85.616L110.222,86.993L109.435,87.613L109.303,87.837L108.254,88.655L106.941,89.937L106.449,90.009L104.186,91.317L103.038,92.033L101.299,92.829L99.298,93.83L98.183,94.607L97.756,94.982L97.264,95.642L95.525,96.632L94.738,97.238L93.196,98.617L92.147,99.889L91.786,100.626L91.326,101.149L90.244,103.109L89.457,104.853L89.096,105.976L88.768,107.671L88.702,108.624L88.735,109.532L88.997,111.336L89.457,113.156L89.85,114.332L90.375,116.339L90.736,118.614L90.506,118.203L90.342,116.917L89.949,115.261L89.588,113.928L88.8,113.788L89.391,113.551L89.096,112.822L88.899,112.057L88.604,111.283L88.505,110.351L88.538,109.135L88.505,108.06L88.866,105.622L89.391,104.03L90.014,102.719L90.473,102.099L90.802,101.327L91.064,101.016L90.998,100.599L91.425,99.835L92.015,99.498L92.311,99.097L92.901,97.968L93.82,97.451L94.082,96.979L94.607,96.962L95.755,96.026L96.51,95.589L97.297,95.384L97.166,95L97.461,94.741L97.166,94.598L96.641,94.964L95.985,95.277L95.624,95.633L95.066,95.678L94.869,95.321L94.869,94.786L94.279,94.679L94.082,94.955L94.082,95.705L93.918,95.928L94.115,96.293L93.984,96.614L93.328,97.113L92.77,97.656L92.507,97.665L91.917,97.398L91.818,97.015L90.769,97.558L90.211,98.155L90.9,98.35L91.687,97.843L91.95,98.502L91.72,98.706L90.473,100.688L90.08,100.706L89.883,100.217L89.194,100.306L89.063,100.146L88.013,100.244L87.652,100.137L87.455,100.475L87.849,100.759L88.341,100.768L88.702,100.617L88.571,101.185L88.8,101.611L89.293,101.912L89.85,102.072L89.227,103.366L88.8,105.003L88.407,105.941L87.751,106.179L87.521,106.418L87.16,106.259L87.619,106.073L87.718,105.552L87.455,105.525L87.259,105.799L86.307,106.462L86.438,106.744L87.226,106.886L88.046,106.55L88.308,106.532L88.144,107.557L88.243,107.592L88.112,109.373L87.915,111.196L87.783,111.222L88.112,113.243L88.374,113.814L88.407,114.551L88.702,114.56L89.457,116.444L89.621,116.698L89.325,117.11L89.457,117.407L89.424,117.95L89.686,118.579L90.342,118.675L90.375,118.981L90.769,118.824L90.834,119.934L90.08,119.872L89.653,119.942L89.653,120.108L88.964,120.213L88.768,121.077L88.112,120.981L87.882,120.632L87.39,120.606L87.193,120.126L86.832,120.091L86.242,119.235L85.225,119.13L84.864,118.842L84.306,118.92L84.077,118.78L83.322,118.929L83.191,118.772L82.764,118.78L82.666,119.034L82.338,118.763L81.682,118.885L81.419,118.693L81.223,118.885L80.763,118.71L80.501,118.448L80.599,118.23L80.074,118.221L79.976,117.836L79.484,117.845L78.795,117.189L78.5,117.285L77.68,116.865L77.056,117.057L76.63,116.751L76.138,116.147L75.81,116.076L75.744,115.787L75.482,115.682L74.891,115.814L74.202,115.402L73.809,115.428L73.546,115.253L73.153,115.419L72.857,115.034L73.054,114.595L72.726,114.104L72.365,113.99L72.267,113.129L72.07,112.76L71.972,112.066L71.709,111.846L71.676,111.415L71.447,110.852L70.889,110.474L70.955,110.201L70.528,109.972L70.299,109.646L70.463,109.47L70.102,109.065L69.806,109.003L69.774,108.545L69.97,108.271L69.872,107.689L70.003,107.433L69.872,106.674L69.347,106.453L69.38,106.126L68.986,106.029L69.282,105.764L69.446,105.003L69.347,104.729L69.478,104.198L69.052,104.11L69.216,103.437L68.822,102.923L68.593,103.047L68.363,102.639L68.068,102.799L67.773,102.453L67.445,102.506L66.854,101.708L66.559,101.611L66.46,101.274L66.198,101.354L65.87,101.016L65.87,100.572L65.64,100.342L65.739,99.977L65.312,99.551L65.378,99.133L64.82,98.991L64.59,98.27L64.262,98.066L64,97.443L62.852,96.97L62.721,96.498L62.491,96.516L62.065,95.99L62.13,95.651L61.572,94.759L61.671,94.339L61.376,93.991L61.671,93.732L61.277,93.634L60.982,93.214L61.113,92.865L60.654,92.615L60.687,92.32L60.195,92.069L60.063,91.613L60.129,91.246L59.867,91.013L59.735,90.359L59.539,90.35L59.243,89.561L58.981,89.552L58.784,89.13L58.817,88.448L58.587,87.496L57.997,87.083L57.669,86.723L57.767,86.597L57.472,85.958L56.717,85.589L56.652,85.319L56.094,84.905L55.504,84.68L55.077,83.923L55.077,83.733L54.224,83.544L54.027,83.147L53.273,83.084L53.371,82.57L53.306,81.983L53.142,81.937L52.945,82.542L52.748,82.299L52.814,81.82L52.256,81.576L51.829,80.6L51.567,80.636L51.272,80.346L50.845,80.573L50.616,80.175L50.353,80.419L49.139,80.536L48.516,80.256L48.319,80.328L47.827,80.129L47.106,80.256L46.712,80.039L46.154,80.102L46.023,80.301L45.17,80.111L44.809,79.659L44.383,79.686L43.727,79.324L43.267,79.487L42.939,80.491L41.824,80.319L41.529,80.654L41.299,80.555L40.577,80.844L40.348,80.753L40.085,81.242L40.151,81.45L39.724,81.811L39.724,82.263L39.495,82.263L39.429,82.795L39.068,83.066L39.101,83.364L38.872,83.887L38.937,84.355L38.773,84.788L38.445,84.833L38.347,85.481L38.183,85.814L38.511,86.012L38.347,86.354L37.756,86.696L37.428,86.624L37.198,87.226L36.641,87.613L36.411,87.936L36.28,88.69L35.821,88.762L35.263,88.628L34.771,88.726L34.312,88.313L33.426,88.098L32.54,87.101L31.753,86.804L31.425,86.876L30.703,86.534L30.113,85.841L29.686,85.625L28.407,85.436L27.849,85.184L27.226,84.635L26.865,84.527L26.242,83.797L26.242,83.58L25.782,83.156L25.093,83.093L24.7,82.849L24.536,82.542L23.552,81.838L23.256,81.45L23.027,80.455L22.633,79.948L22.403,79.405L21.977,78.835L21.977,78.3L21.747,77.783L21.944,77.13L21.846,76.64L21.911,76.141L21.682,75.523L21.321,75.25L21.223,74.85L20.796,74.495L20.763,74.222L20.337,73.913L20.402,73.613L19.976,72L19.746,71.635L19.353,71.598L18.992,70.768L18.5,70.768L18.04,70.165L17.647,70.074L17.548,69.855L17.056,69.544L16.663,69.58L16.433,69.324L15.416,68.968L15.416,68.611L13.973,67.531L13.546,66.55L13.153,66.211L12.562,65.973L12.267,65.67L11.972,65.652L11.906,65.321L11.119,64.348L10.463,64.026L10.331,63.53L9.872,63.235L9.183,63.171L8.035,62.453L7.674,61.643L7.346,61.422L7.149,60.795L6.723,59.974L6.428,59.596L5.804,59.245L5.443,59.42L5.083,59.042L4.919,58.783L4.394,58.598L4.426,58.386L4.098,58.155L4,57.803L4.23,57.637L4.262,56.702L15.121,56.702L23.322,56.711L30.736,56.711L36.739,56.702L36.739,45.416L36.805,43.034L36.805,41.634L36.87,37.705L36.936,35.511L36.936,21.032L36.969,16.85L36.969,9.001L36.936,6.923Z" fill="currentColor"/>
</svg>
