<?xml version="1.0" encoding="UTF-8"?>
<svg xmlns="http://www.w3.org/2000/svg" viewBox="0 0 128 128" fill="none" aria-hidden="true">
  <path d="M68.936,12.054L76.485,6.343L82.873,6.929L91.583,11.029L84.034,11.615L84.615,18.789L79.388,15.861L71.839,16.593ZM51.515,123.708L55.58,118.456L53.257,112.62L57.322,108.242L63.129,110.139L67.775,106.928L77.646,106.49L81.13,110.723L103.778,109.993L104.939,112.62L86.357,119.624L62.548,124ZM23.061,11.761L26.545,4.439L32.352,7.808L39.32,4L50.354,7.075L69.517,6.197L68.355,9.565L60.225,10.151L65.452,16.3L56.161,17.91L47.45,14.543L43.385,17.471L36.417,10.297Z" fill="currentColor"/>
</svg>
