<?xml version="1.0" encoding="UTF-8"?>
<svg xmlns="http://www.w3.org/2000/svg" viewBox="0 0 128 128" fill="none" aria-hidden="true">
  <path d="M17.875,4.214L21.923,4.342L39.312,4.064L52.054,4.021L52.386,4.128L65.394,4.064L73.225,4L73.291,14.822L73.225,19.464L73.225,28.793L79.397,28.836L88.224,28.857L91.675,28.793L101.165,28.772L110.191,28.73L110.191,39.972L110.125,40.934L110.125,79.276L109.992,83.679L109.992,94.172L110.324,96.78L110.324,111.625L110.258,112.346L110.258,123.98L99.506,124L83.91,124L83.512,123.861L72.893,123.901L66.456,123.92L45.683,123.94L30.949,123.94L17.676,123.94L17.676,106.35L17.742,106.129L17.676,100.655L17.742,97.164L17.676,91.134L17.742,84.676L17.742,50.535L17.809,47.438L17.809,34.319L17.875,28.73Z" fill="currentColor"/>
</svg>
