<?xml version="1.0" encoding="UTF-8"?>
<svg xmlns="http://www.w3.org/2000/svg" viewBox="0 0 128 128" fill="none" aria-hidden="true">
  <path d="M30.901,4.23L40.532,4L56.132,4L61.558,4.413L69.969,4.643L77.701,4.551L100.49,4.092L98.998,5.469L100.762,9.552L98.32,12.989L97.777,15.918L95.742,18.296L97.235,22.955L98.591,24.689L98.32,28.018L96.828,28.61L97.642,31.297L95.471,32.298L94.522,34.345L92.622,36.118L89.367,36.755L88.689,39.117L86.518,40.07L85.162,39.48L80.414,40.933L79.057,43.699L79.871,45.241L79.057,47.823L80.414,50.9L80.414,53.025L78.786,56.143L77.158,58.129L77.158,61.963L74.581,64.981L74.716,67.862L73.903,69.841L71.325,71.774L70.104,73.75L69.29,78.641L67.256,80.12L66.577,83.435L67.256,85.001L65.899,91.036L66.713,93.714L65.085,96.568L64.543,102.715L65.221,105.605L64,107.072L64.814,109.382L63.729,111.379L61.965,111.823L61.83,114.351L60.609,117.585L62.237,122.099L63.05,121.657L64.271,124L33.885,123.028L32.8,120.153L33.343,118.515L33.343,115.237L34.157,96.479L34.428,81.151L32.664,79.851L32.393,77.475L29.816,77.475L28.866,80.434L27.51,79.268L28.459,74.154L30.63,69.796L29.002,67.232L29.68,64.351L28.324,61.332L28.459,56.685L27.238,55.465L28.324,51.895L29.002,47.868L31.579,45.014L32.122,43.382L31.172,38.209L32.8,34.573L32.258,31.434L29.68,27.425L29.138,24.233L29.68,22.818L29.951,18.616L31.308,16.101L29.544,13.492L30.087,10.606L31.037,9.231Z" fill="currentColor"/>
</svg>
