<?xml version="1.0" encoding="UTF-8"?>
<svg xmlns="http://www.w3.org/2000/svg" viewBox="0 0 128 128" fill="none" aria-hidden="true">
  <path d="M113.226,67.06L113.583,67.292L113.226,67.71ZM117.923,65.217L118.23,65.279L118.536,64.426L124,63.837L123.183,65.062L122.417,66.58L122.009,66.998L121.753,66.673L120.987,66.781L120.017,67.988L119.404,69.071L118.843,71.016L118.894,72.004L117.719,73.976L118.077,74.192L117.157,75.592L116.545,76.806L116.085,76.975L116.136,77.851L115.574,79.17L114.655,80.152L113.838,80.121L114.043,80.657L113.583,80.734L113.532,79.446L113.021,78.603L112.817,77.666L112.919,76.591L113.379,75.684L113.532,74.315L114.043,72.697L114.247,71.526L115.064,70.306L115.983,68.607L115.779,68.081L116.851,67.818L117.617,66.812L117.668,66.379L116.647,66.054ZM113.277,65.171L112.715,65.852L112.562,65.171ZM28.306,72.651L28.868,73.098L27.949,73.622L28,74.13L28.766,74.469L28.868,75.853L29.583,76.33L29.94,77.129L30.86,77.175L31.472,77.559L31.472,77.927L32.443,78.664L34.179,78.557L34.843,78.112L34.945,77.651L36.119,77.39L36.528,76.545L36.936,76.222L37.498,76.914L38.877,78.066L40.46,77.282L42.349,76.868L43.217,76.791L44.187,76.068L43.728,75.407L44.085,74.623L45.157,75.207L45.362,75.607L47.455,74.515L48.426,73.791L49.038,73.653L49.549,74.7L52.051,73.175L52.255,72.728L51.591,72.667L51.643,72.173L52.562,71.649L53.174,71.032L52.306,70.507L52.102,69.874L52.715,69.272L52.613,68.715L53.685,66.983L55.217,65.372L56.136,64.581L56.647,63.79L56.953,62.859L57.362,62.393L57.055,61.943L57.413,61.072L58.689,59.812L59.302,59.485L58.996,58.8L60.119,57.445L60.732,56.509L60.579,55.494L61.294,53.604L62.877,54.338L63.745,56.041L66.094,56.868L67.523,55.401L68.289,53.244L68.8,52.352L69.209,52.368L69.26,51.256L70.128,49.971L70.587,48.889L72.374,50.473L73.396,48.434L74.57,47.318L74.57,47.884L75.081,47.507L75.847,46.47L76.204,46.8L76.919,45.809L76.613,45.558L77.838,44.172L78.196,44.062L79.013,43.085L78.502,42.517L79.064,41.666L78.757,41.429L79.932,39.755L79.574,39.581L79.881,39.012L79.626,38.569L79.83,37.588L83.2,40.418L87.183,43.715L88.255,40.955L88.715,40.244L89.379,40.197L90.196,40.592L90.962,40.576L91.268,41.287L92.443,41.965L92.085,42.738L91.626,43.022L91.574,43.936L92.085,44.141L92.391,44.755L94.128,44.991L95.455,45.652L95.404,46.407L95.813,46.674L96.834,46.768L97.294,47.35L98.417,48.496L98.417,49.955L98.366,51.288L97.447,51.679L97.089,52.102L97.14,52.806L96.119,53.135L95.455,52.806L95.455,53.619L94.536,55.385L94.332,56.197L94.434,57.382L95.2,58.302L96.681,58.068L96.987,57.663L97.753,57.663L98.366,57.07L98.826,57.538L98.519,58.691L99.489,59.688L99.489,60.45L101.277,61.368L102.553,61.399L102.911,61.834L103.217,61.508L104.443,61.647L104.647,62.331L105.464,62.937L105.872,63.852L106.536,64.085L107.302,64.922L108.323,65.279L109.855,66.332L109.6,67.339L108.834,67.71L108.732,69.364L108.936,69.812L108.374,70.523L109.038,70.878L108.068,71.34L106.485,70.353L105.923,70.77L105.566,70.384L105.566,69.75L104.902,68.499L103.932,68.004L103.523,67.462L102.911,67.277L101.838,65.682L101.277,65.511L101.072,64.814L100.409,64.349L100.306,64.814L101.736,66.193L102.757,67.957L103.523,68.329L103.574,68.715L104.391,68.932L104.902,70.414L105.464,71.232L106.996,71.294L107.353,71.849L108.936,72.22L108.221,72.667L108.17,73.237L108.834,73.36L109.038,73.021L109.447,73.653L109.702,75.346L109.294,76.729L108.374,75.761L107.302,75.069L106.843,75.715L107.404,76.314L107.762,77.16L108.221,77.375L107.098,77.743L106.179,77.805L106.485,78.403L107.609,78.234L107.506,79.4L108.221,79.216L108.426,79.692L109.038,79.998L109.345,80.749L108.885,82.234L108.681,82.005L107.864,82.28L107.098,82.801L106.587,81.76L105.106,80.826L104.391,80.136L104.596,79.4L103.932,78.311L102.809,78.449L102.4,78.833L101.889,78.127L100.97,77.958L100.766,77.605L99.694,78.142L100.255,78.649L100.868,78.526L101.787,78.725L102.553,79.569L103.013,79.6L103.421,78.71L103.83,80.535L103.881,81.561L105.004,81.852L106.281,83.106L106.332,84.1L107.711,84.039L108.17,83.626L108.221,84.131L108.681,84.299L108.528,82.984L109.396,82.892L110.06,83.336L111.847,83.886L112.715,83.473L113.277,83.642L113.685,85.597L114.298,87.733L114.757,88.814L115.115,90.245L107.864,90.245L101.736,90.245L100.153,90.215L100.153,90.367L94.74,90.352L81.26,90.352L77.481,90.412L63.234,90.412L54.553,90.382L52.102,90.352L46.281,90.032L44.391,90.093L39.54,89.865L36.732,89.819L32.443,89.575L32.851,89.149L28.919,89.073L28.766,89.469L21.055,89.438L17.94,89.484L9.923,89.469L9.668,89.393L5.685,89.408L4,89.347L4.409,88.936L6.094,88.19L7.166,88.22L9.157,87.428L10.843,86.894L11.66,86.833L11.762,86.07L12.579,84.849L14.06,84.788L15.336,84.238L15.643,83.55L15.489,82.648L16.102,82.143L16.715,82.112L17.532,81.515L17.532,80.198L18.809,79.508L19.779,78.756L20.902,78.127L22.791,77.528Z" fill="currentColor"/>
</svg>
