<?xml version="1.0" encoding="UTF-8"?>
<svg xmlns="http://www.w3.org/2000/svg" viewBox="0 0 128 128" fill="none" aria-hidden="true">
  <path d="M37.884,62.695L38.105,60.649L38.656,59.244L39.317,60.259L39.207,61.39L40.253,62.013L39.262,62.539L38.986,63.045L37.994,63.279ZM35.956,35.423L35.956,34.626L37.058,35.443L36.121,35.96ZM34.854,31.172L35.185,30.892L36.617,33.19L35.625,32.351ZM34.579,34.606L35.019,34.028L35.68,34.965L34.854,35.622ZM34.138,42.849L34.854,41.086L35.625,39.916L35.736,38.824L36.617,38.606L37.003,38.983L37.003,39.956L38.05,40.71L38.215,41.225L37.388,41.602L36.452,41.304L36.397,41.879L35.68,42.552L34.909,42.691L35.074,43.166L36.342,42.968L36.948,43.799L37.388,45.459L37.168,45.736L37.719,47.709L38.16,47.176L37.884,45.854L38.435,45.914L39.317,47.038L40.198,47.295L40.584,49.147L40.143,50.289L39.372,50.033L38.711,48.34L37.554,48.832L37.664,48.241L36.617,47.374L36.782,45.538L36.507,44.432L35.515,44.511L35.35,43.918ZM30.942,29.732L31.548,29.812L33.421,30.872L32.981,31.032L31.769,30.632ZM29.51,31.912L30.446,31.392L30.556,32.051ZM29.234,24.857L30.061,24.857L30.281,25.44L29.344,25.48ZM27.471,34.327L27.857,33.728L28.959,33.708L29.069,34.287L29.895,34.945L30.832,35.124L29.84,33.748L31.879,31.592L32.54,31.632L34.579,32.79L33.532,33.788L34.138,35.104L34.028,36.339L33.421,36.836L33.642,38.208L32.54,38.447L31.713,37.453L31.218,37.691L30.006,37.473L28.298,36.239L27.967,34.725ZM26.975,32.171L27.967,32.371L28.959,33.449L27.306,32.631ZM122.237,24.938L122.182,30.752L122.182,39.539L122.072,45.203L122.072,58.99L122.127,60.005L122.127,84.092L121.741,85.009L122.843,86.461L123.284,87.491L123.284,88.692L123.945,89.454L123.008,91.223L123.394,91.432L124,93.199L114.964,93.142L101.19,93.085L92.209,93.104L91.603,93.787L90.061,94.584L89.014,94.697L88.077,94.432L84.551,95.171L83.229,94.754L82.457,95.19L81.741,96.27L79.702,96.459L77.168,96.97L75.57,97.84L74.028,98.351L73.421,99.144L72.32,99.239L70.446,99.73L69.234,99.843L68.077,98.88L66.92,98.71L66.094,99.371L63.504,100.334L62.898,100.975L62.182,100.674L60.309,100.749L59.262,101.692L58.49,101.767L57.994,100.353L56.121,99.598L55.129,99.862L54.193,99.692L53.146,99.126L51.603,99.617L50.006,99.843L48.848,99.56L48.022,99.862L47.361,100.711L44.386,102.276L43.118,102.408L41.851,103.143L40.86,103.048L40.143,102.446L39.207,102.709L38.601,102.352L36.066,101.692L34.248,100.674L34.083,99.73L34.303,98.956L33.752,97.292L33.917,96.024L33.532,95.039L33.477,93.958L32.485,92.42L32.099,91.261L28.848,88.997L28.077,88.92L26.314,89.891L24.937,89.872L24,89.073L24.055,88.025L23.339,87.167L22.182,87.357L20.309,87.186L20.143,86.537L19.482,86.422L18.931,87.014L18.215,86.823L17.168,87.796L16.672,87.663L15.515,86.251L14.964,86.098L14.579,86.995L14.028,87.186L14.358,84.531L14.413,82.159L14.193,78.994L14.909,80.165L14.799,82.082L15.019,84.703L15.956,84.703L16.011,83.996L15.46,83.231L15.46,82.063L16.121,82.771L16.893,81.181L15.846,78.956L16.452,78.149L17.829,77.13L16.893,76.418L16.562,76.937L15.57,76.976L15.791,77.418L14.909,77.341L13.807,76.495L13.752,75.436L13.146,72.929L13.587,72.775L13.917,73.778L14.523,73.18L17.388,71.964L16.837,71.442L14.964,70.998L14.854,70.127L13.366,69.856L12.926,70.321L13.366,72.06L12.485,72.466L12.65,71.732L12.43,67.745L11.658,64.329L10.336,62.773L9.84,58.736L9.565,57.232L8.738,54.059L7.967,53.353L7.747,52.274L6.975,51.822L6.7,51.213L5.653,50.643L4.992,48.477L4.551,46.486L4.606,45.44L4,44.333L4.661,43.186L5.157,40.452L4.11,39.539L4.275,39.102L5.212,39.082L7.416,40.174L9.179,41.443L9.73,41.463L11.107,42.236L11.438,41.998L13.697,43.087L13.642,43.483L15.57,44.294L18.656,44.511L19.813,44.254L21.521,44.985L22.017,44.61L22.567,44.966L23.89,44.827L24.551,45.459L26.81,45.42L28.573,44.017L28.408,44.491L29.62,45.321L30.006,46.21L30.942,45.874L31.879,45.973L31.713,46.604L32.485,46.999L32.54,48.162L33.091,48.044L33.256,46.999L32.485,46.328L32.485,45.538L33.146,44.985L34.303,44.788L34.468,45.4L33.642,46.072L34.193,47.058L34.579,46.94L34.689,45.993L35.24,45.716L35.68,47.689L34.854,47.886L35.46,48.714L35.901,50.249L36.617,50.662L36.176,51.154L35.295,51.114L35.405,51.94L34.468,52.647L33.972,54.863L33.201,55.039L33.807,52.823L33.477,52.49L32.43,54.471L32.209,55.509L31.052,56.88L28.959,60.454L28.242,62.773L28.904,62.617L30.171,62.87L30.832,62.344L31.989,62.013L32.154,61.273L29.73,62.481L28.793,61.955L31.107,57.544L32.815,56.097L34.413,55.549L34.579,54.118L35.46,52.686L37.168,51.35L36.672,49.442L37.884,50.23L38.656,53.902L37.444,53.902L37.609,54.687L38.215,54.961L37.994,56.058L38.38,56.43L38.38,57.466L37.609,58.209L37.554,58.951L38.38,59.264L37.829,60.2L37.499,61.896L37.719,62.305L37.168,63.415L37.554,64.368L36.727,65.902L35.24,64.387L35.68,62.519L34.799,63.337L34.468,64.562L36.121,66.174L35.57,66.485L35.625,67.416L35.019,67.92L34.138,67.028L33.036,64.99L33.697,64.27L33.752,63.084L33.366,62.597L33.366,63.59L32.705,64.698L33.091,66.097L32.76,67.028L33.477,66.756L34.083,68.036L35.57,68.462L36.176,67.745L36.176,67.105L36.893,66.795L37.333,65.262L37.884,64.232L37.774,63.648L39.152,64.776L39.702,64.29L39.482,63.59L40.97,62.928L40.97,61.955L40.529,60.824L40.088,60.61L40.419,59.927L39.868,59.147L39.482,57.759L40.694,57.016L39.372,55.881L40.253,54.275L39.923,52.49L40.749,51.586L41.245,49.246L42.457,48.753L42.402,47.393L41.631,46.94L40.364,45.242L40.419,43.779L39.868,42.81L39.041,42.731L39.207,43.206L38.601,43.76L39.152,45.084L40.143,46.072L40.198,46.762L38.766,45.084L38.105,45.005L37.719,43.858L37.829,42.335L38.821,41.859L39.702,42.295L40.253,41.463L39.702,40.571L38.16,39.678L37.444,38.725L37.499,37.95L35.901,38.606L35.515,37.95L35.736,37.055L35.019,37.393L35.185,36.617L36.507,36.06L37.223,36.359L37.719,37.334L38.766,37.194L38.215,35.044L39.152,34.925L39.427,34.247L38.27,32.93L37.994,31.612L38.435,30.732L37.719,30.132L36.782,30.252L36.176,31.072L36.672,31.952L35.625,31.152L36.066,30.012L35.515,29.512L35.019,29.792L34.964,28.49L33.807,27.407L34.413,26.986L34.138,26.264L33.421,25.942L34.303,24.857L44.441,24.857L49.785,24.978L57.774,24.878L65.653,24.918L76.121,24.918L85.433,24.918L94.523,24.898L104.331,24.898Z" fill="currentColor"/>
</svg>
