<?xml version="1.0" encoding="UTF-8"?>
<svg xmlns="http://www.w3.org/2000/svg" viewBox="0 0 128 128" fill="none" aria-hidden="true">
  <path d="M5.051,80.214L6.628,80.749L9.693,79.678L11.708,79.384L12.146,78.072L12.409,75.446L13.46,74.695L14.861,74.882L15.387,74.078L15.124,71.366L14.248,68.543L16.088,67.144L16.088,65.34L17.314,62.968L18.365,62.24L18.891,61.242L20.029,62.321L20.993,62.348L22.044,64.478L21.343,65.556L22.307,66.094L23.095,65.502L23.358,64.37L24.146,63.831L24.934,64.505L25.285,61.512L24.409,60.729L24.146,59.568L25.81,59.055L25.547,56.46L26.248,55.351L27.124,55.026L27.387,53.537L30.102,53.727L30.365,51.478L32.555,49.417L34.044,49.933L34.569,51.343L35.533,51.261L37.372,49.987L38.861,49.77L39.825,48.305L40.788,48.088L41.489,46.784L42.891,45.235L45.518,42.815L46.92,42.57L47.27,40.31L48.146,39.601L47.182,38.238L48.234,36.929L48.234,35.373L49.109,34.745L48.759,33.105L49.898,33.406L49.723,31.984L50.336,31.437L50.336,28.097L51.124,27.275L51.124,25.685L52,24.368L52.438,22.693L53.314,22.062L53.752,20.275L53.489,17.661L53.839,15.706L53.051,13.39L52.088,12.176L52.876,10.796L54.102,10.823L55.679,10.077L55.679,39.383L66.54,39.383L81.168,39.383L80.905,55.676L81.781,55.486L84.672,52.698L85.723,52.725L86.599,50.909L89.314,49.282L90.453,47.246L91.416,47.3L93.869,48.278L94.832,46.811L98.161,42.515L99.299,42.787L98.161,43.168L99.299,43.658L99.474,44.365L101.226,45.29L102.715,45.262L103.328,45.752L105.781,45.86L107.007,44.827L106.394,43.495L107.533,43.522L106.569,42.651L107.796,42.951L108.584,41.944L110.248,42.57L112.701,40.201L114.803,40.745L116.292,42.08L116.993,43.168L118.569,42.624L120.058,43.25L121.285,43.141L121.285,44.148L119.883,44.555L120.934,46.431L122.599,47.544L122.423,48.44L123.212,48.766L123.65,49.933L123.124,51.641L124,52.02L123.212,53.24L121.372,57.974L114.54,52.318L108.759,47.463L108.409,49.146L108.847,49.906L108.321,50.882L108.934,51.18L106.92,54.052L107.445,54.458L106.482,55.919L107.358,56.893L105.956,58.569L105.343,58.758L103.241,61.134L103.766,61.566L102.54,63.265L101.927,62.699L100.613,64.478L99.737,65.125L99.737,64.155L97.723,66.067L95.971,69.565L92.905,66.848L92.117,68.705L90.628,70.909L90.54,72.816L89.839,72.789L88.964,74.319L87.65,78.018L85.197,80.535L81.168,79.116L79.679,76.196L76.964,74.936L75.737,78.179L76,79.919L74.949,81.524L73.022,83.85L73.547,85.025L72.496,85.586L70.307,87.747L69.693,89.24L70.219,90.013L69.518,90.812L68.993,92.409L68.117,93.766L66.54,95.122L63.912,97.885L62.073,100.857L62.248,101.811L61.197,102.845L61.547,103.931L63.036,104.831L61.985,105.889L60.409,106.789L60.321,107.635L61.46,107.741L61.109,108.507L56.818,111.122L55.942,109.326L54.891,109.564L53.226,110.805L49.635,112.679L49.285,111.993L47.445,110.99L46.832,112.336L47.62,113.47L45.956,114.709L44.467,114.841L41.226,115.553L38.511,116.896L36.146,114.92L35.182,113.734L34.482,114.288L33.781,115.737L31.766,116.185L31.591,116.975L30.453,117.738L27.474,117.923L25.81,116.659L25.81,116.027L24.759,115.368L23.182,115.289L22.569,113.919L21.343,113.101L21.168,110.726L19.854,110.145L19.766,109.274L21.343,108.375L20.38,107.609L19.153,107.714L16.701,106.921L16.438,105.942L15.737,105.916L15.124,104.857L14.336,104.91L13.723,103.798L12.409,103.507L11.27,99.955L10.394,99.451L9.255,97.832L9.343,96.929L8.029,96.425L7.328,95.388L8.292,93.926L6.978,93.341L6.19,91.211L5.314,90.013L4,89.027L4,88.014L4.701,88.014L4.964,86.547L4.613,86.013L5.577,85.132L5.664,83.583L4.964,82.621Z" fill="currentColor"/>
</svg>
