<?xml version="1.0" encoding="UTF-8"?>
<svg xmlns="http://www.w3.org/2000/svg" viewBox="0 0 128 128" fill="none" aria-hidden="true">
  <path d="M117.823,50.271L118.223,48.455L120.288,48.841L118.756,51.745ZM110.029,54.304L110.829,53.987L110.962,55.412L110.029,54.892ZM52.676,6.035L53.209,4.094L54.008,4L53.675,5.755ZM51.61,9.468L53.009,8.698L52.076,9.794ZM49.212,8.138L49.545,7.648L51.543,6.97L51.876,7.274L51.144,8.395L49.545,8.651ZM47.214,10.47L47.413,9.841L48.746,8.885L48.812,9.328ZM47.613,7.087L48.546,8.348L47.68,8.418L47.147,7.554ZM46.947,5.451L49.279,4.609L50.011,5.895L50.944,5.1L51.077,6.129L50.011,6.339L48.879,7.484L48.146,6.503L47.08,6.035ZM46.614,11.938L47.747,11.519L49.878,9.514L50.811,10.261L48.812,11.03L49.145,11.845L48.013,11.938L46.681,12.799ZM43.084,6.479L44.083,6.082L44.016,7.11ZM23.966,14.078L25.298,14.776L27.563,14.52L30.827,13.311L32.093,12.683L33.292,12.683L36.489,11.053L38.154,10.424L38.554,9.818L39.686,10.331L40.153,9.561L41.818,9.328L43.283,7.694L44.216,7.974L45.149,7.157L45.815,7.25L47.413,9.141L46.481,10.913L44.882,12.729L45.482,14.427L44.416,15.24L43.683,17.028L44.549,17.399L47.347,15.705L47.68,14.45L50.478,16.959L51.344,17.469L51.943,17.237L53.608,17.863L54.008,18.767L54.807,18.628L54.807,18.628L55.474,19.184L57.272,19.555L59.137,23.418L59.071,24.042L78.188,29.366L83.917,32.63L84.717,32.331L85.849,32.699L86.115,33.364L87.048,33.364L87.248,32.63L89.046,32.584L89.18,33.158L90.578,33.64L91.378,33.296L92.976,34.374L93.909,34.053L96.574,35.153L96.574,36.23L97.04,36.711L95.907,37.901L97.106,38.93L98.505,38.518L99.105,39.501L100.704,39.593L101.103,40.346L101.969,40.758L102.502,41.762L101.703,42.058L102.635,43.768L102.102,45.34L102.302,46.409L101.903,47.319L101.037,48.091L101.236,48.954L100.77,49.499L101.236,50.566L101.236,50.566L103.035,50.339L104.101,49.272L104.834,49.84L104.967,50.611L104.234,51.699L103.235,54.372L103.368,55.028L104.234,55.661L104.767,56.723L106.033,57.039L105.366,58.348L105.3,60.152L102.835,60.445L101.436,61.346L101.636,62.404L100.903,63.732L100.304,64.069L99.571,65.933L98.772,66.876L98.306,69.208L98.505,69.768L97.639,70.887L98.972,71.827L99.771,71.67L100.237,70.484L101.969,69.051L102.635,68.984L103.635,67.571L103.635,66.764L105.7,63.777L107.431,62.967L108.164,63.124L108.897,62.359L109.896,63.079L109.496,62.044L110.296,59.859L112.094,57.4L112.561,55.141L113.36,55.254L114.759,54.53L114.825,53.195L115.958,51.835L117.423,51.903L117.29,53.874L116.224,53.987L116.091,57.197L115.292,58.1L114.759,58.01L114.426,59.205L113.493,60.378L113.826,61.346L112.96,62.224L113.227,62.809L112.028,63.552L111.162,64.945L110.629,66.898L109.496,69.297L108.897,69.88L108.297,71.267L106.899,77.251L107.498,79.345L107.365,80.924L106.565,81.835L105.033,82.857L104.834,84.233L104.301,85.053L103.368,88.641L103.501,90.453L104.034,91.558L103.901,93.808L102.502,96.407L102.036,99.397L100.704,101.746L100.104,105.163L100.637,106.825L100.304,107.656L100.837,109.512L100.371,110.755L101.303,112.107L101.303,113.957L101.703,115.328L102.769,116.61L102.502,118.542L101.769,120.862L102.169,124L96.707,123.892L86.582,123.914L83.851,124L70.928,123.762L67.53,123.654L52.409,123.611L49.412,123.568L49.412,122.767L48.213,120.407L47.08,119.973L43.95,119.171L41.751,117.782L40.885,114.11L40.086,113.566L40.086,112.085L39.553,110.166L39.487,107.809L40.086,107.284L40.486,106.148L41.685,104.835L40.819,103.171L39.02,102.272L39.087,100.649L38.421,99.551L38.754,98.408L38.221,97.243L38.487,96.275L37.821,95.46L37.688,93.896L38.221,91.403L37.621,89.746L35.623,86.737L34.624,85.519L32.026,84.876L29.628,82.879L29.428,82.235L27.629,81.324L26.497,80.324L26.164,78.454L25.631,78.12L25.631,76.939L24.699,76.048L23.233,75.178L19.902,74.039L18.97,73.19L18.304,71.446L17.504,71.066L14.174,70.865L13.574,69.88L12.642,69.521L12.708,68.984L10.643,67.033L9.577,66.427L9.244,65.619L10.044,63.821L9.844,62.134L10.31,61.189L9.911,60.265L10.044,58.799L9.311,58.032L10.377,56.723L9.977,54.666L10.244,53.942L10.11,51.881L11.243,50.77L11.176,50.112L12.175,49.045L12.242,47.91L10.71,45.977L10.777,45.271L9.844,44.543L9.178,44.748L7.779,44.269L7.712,43.062L8.179,40.461L9.644,39.341L10.976,35.955L12.309,34.878L13.974,34.351L14.507,33.479L15.439,33.777L16.106,32.492L17.704,32.653L18.104,31.298L18.77,31.068L18.77,15.24L20.235,15.612L20.968,14.613L20.369,14.171L21.435,13.846L21.634,13.171L22.567,12.916Z" fill="currentColor"/>
</svg>
