<?xml version="1.0" encoding="UTF-8"?>
<svg xmlns="http://www.w3.org/2000/svg" viewBox="0 0 128 128" fill="none" aria-hidden="true">
  <path d="M123.877,17.215L123.939,20.188L123.939,57.638L124,57.8L124,64.757L124,110.856L110.66,110.895L110.23,110.934L95.352,110.954L86.93,110.934L82.873,110.837L62.77,110.837L53.303,110.876L38.426,110.876L30.066,110.915L21.275,110.934L18.078,110.993L9.902,110.973L4.184,110.934L4.184,102.292L4.246,97.992L4.184,87.968L4.184,74.522L4.246,71.261L4.246,49.263L4.184,48.734L4.184,38.197L4.123,32.713L4.184,29.83L4.061,26.217L4,20.375L4.061,17.132L8.672,17.091L10.025,17.34L15.25,17.299L15.926,17.132L18.693,17.236L20.23,17.07L25.578,17.111L37.504,17.007L38.18,17.153L51.766,17.153L71.193,17.153L72.053,17.236L80.906,17.278L91.848,17.299L93.262,17.153L101.377,17.153L116.807,17.195Z" fill="currentColor"/>
</svg>
